<svg width="1118" height="803" viewBox="0 0 1118 803" fill="none" xmlns="http://www.w3.org/2000/svg">
<g clip-path="url(#clip0)">
<path opacity="0.1" d="M466.5 625.279C730.216 625.279 944 594.834 944 557.279C944 519.723 730.216 489.279 466.5 489.279C202.784 489.279 -11 519.723 -11 557.279C-11 594.834 202.784 625.279 466.5 625.279Z" fill="#36DBE2"/>
<path d="M816.486 590.702C816.486 590.702 845.641 553.604 843.283 516.796C842.195 501.364 846.143 485.995 854.534 472.997C858.565 466.858 863.15 461.101 868.232 455.798" stroke="#535461" stroke-width="2" stroke-miterlimit="10"/>
<path d="M866.885 432.594C864.83 437.746 868.197 456.408 868.197 456.408C868.197 456.408 883.487 445.19 885.543 440.038C886.527 437.564 886.49 434.801 885.438 432.355C884.386 429.909 882.406 427.981 879.933 426.994C877.46 426.007 874.697 426.043 872.25 427.093C869.803 428.143 867.874 430.122 866.885 432.594Z" fill="#36DBE2"/>
<path d="M840.079 454.98C841.154 460.422 854.123 474.257 854.123 474.257C854.123 474.257 860.86 456.53 859.786 451.088C859.53 449.794 859.022 448.563 858.291 447.466C857.56 446.368 856.62 445.425 855.524 444.691C854.428 443.956 853.199 443.445 851.906 443.186C850.612 442.927 849.281 442.925 847.987 443.181C846.693 443.436 845.462 443.944 844.364 444.675C843.266 445.406 842.323 446.347 841.589 447.442C840.855 448.538 840.344 449.768 840.084 451.061C839.825 452.354 839.823 453.686 840.079 454.98Z" fill="#36DBE2"/>
<path d="M821.294 504.016C824.969 508.171 843.149 513.567 843.149 513.567C843.149 513.567 840.016 494.864 836.341 490.709C835.468 489.72 834.408 488.914 833.223 488.335C832.037 487.756 830.749 487.417 829.433 487.336C828.116 487.255 826.796 487.434 825.549 487.863C824.301 488.292 823.151 488.963 822.162 489.837C821.174 490.711 820.368 491.771 819.789 492.957C819.211 494.142 818.872 495.43 818.791 496.747C818.711 498.063 818.89 499.383 819.32 500.631C819.749 501.878 820.42 503.028 821.294 504.016Z" fill="#36DBE2"/>
<path d="M815.436 544.318C818.356 549.035 835.363 557.425 835.363 557.425C835.363 557.425 835.436 538.462 832.516 533.745C831.822 532.623 830.914 531.648 829.843 530.877C828.773 530.106 827.561 529.554 826.276 529.251C824.992 528.948 823.661 528.902 822.359 529.114C821.056 529.326 819.809 529.793 818.687 530.487C817.565 531.182 816.591 532.09 815.82 533.162C815.05 534.233 814.498 535.445 814.196 536.729C813.894 538.014 813.848 539.345 814.061 540.647C814.274 541.949 814.741 543.197 815.436 544.318Z" fill="#36DBE2"/>
<path d="M873.312 483.07C868.184 485.185 849.484 482.035 849.484 482.035C849.484 482.035 860.524 466.616 865.652 464.501C868.114 463.485 870.879 463.489 873.339 464.512C875.798 465.535 877.751 467.493 878.767 469.955C879.782 472.418 879.779 475.183 878.756 477.642C877.733 480.102 875.775 482.054 873.312 483.07Z" fill="#36DBE2"/>
<path d="M865.863 530.117C860.338 530.601 843.437 522 843.437 522C843.437 522 858.584 510.59 864.11 510.106C865.425 509.99 866.749 510.133 868.008 510.529C869.267 510.925 870.436 511.565 871.448 512.413C872.459 513.26 873.294 514.299 873.904 515.47C874.514 516.64 874.887 517.919 875.002 519.234C875.117 520.549 874.972 521.873 874.575 523.132C874.178 524.391 873.537 525.559 872.688 526.569C871.84 527.58 870.8 528.414 869.629 529.022C868.458 529.631 867.178 530.003 865.863 530.117Z" fill="#36DBE2"/>
<path d="M852.349 574.851C846.984 576.262 828.873 570.64 828.873 570.64C828.873 570.64 841.875 556.835 847.239 555.424C849.815 554.747 852.555 555.12 854.856 556.463C857.157 557.805 858.83 560.006 859.507 562.583C860.185 565.159 859.811 567.899 858.469 570.199C857.126 572.5 854.925 574.173 852.349 574.851Z" fill="#36DBE2"/>
<path opacity="0.25" d="M866.885 432.594C864.83 437.746 868.197 456.408 868.197 456.408C868.197 456.408 883.487 445.19 885.543 440.038C886.527 437.564 886.49 434.801 885.438 432.355C884.386 429.909 882.406 427.981 879.933 426.994C877.46 426.007 874.697 426.043 872.25 427.093C869.803 428.143 867.874 430.122 866.885 432.594Z" fill="black"/>
<path opacity="0.25" d="M840.079 454.98C841.154 460.422 854.123 474.257 854.123 474.257C854.123 474.257 860.86 456.53 859.786 451.088C859.53 449.794 859.022 448.563 858.291 447.466C857.56 446.368 856.62 445.425 855.524 444.691C854.428 443.956 853.199 443.445 851.906 443.186C850.612 442.927 849.281 442.925 847.987 443.181C846.693 443.436 845.462 443.944 844.364 444.675C843.266 445.406 842.323 446.347 841.589 447.442C840.855 448.538 840.344 449.768 840.084 451.061C839.825 452.354 839.823 453.686 840.079 454.98Z" fill="black"/>
<path opacity="0.25" d="M821.294 504.016C824.969 508.171 843.149 513.567 843.149 513.567C843.149 513.567 840.016 494.864 836.341 490.709C835.468 489.72 834.408 488.914 833.223 488.335C832.037 487.756 830.749 487.417 829.433 487.336C828.116 487.255 826.796 487.434 825.549 487.863C824.301 488.292 823.151 488.963 822.162 489.837C821.174 490.711 820.368 491.771 819.789 492.957C819.211 494.142 818.872 495.43 818.791 496.747C818.711 498.063 818.89 499.383 819.32 500.631C819.749 501.878 820.42 503.028 821.294 504.016Z" fill="black"/>
<path opacity="0.25" d="M815.436 544.318C818.356 549.035 835.363 557.425 835.363 557.425C835.363 557.425 835.436 538.462 832.516 533.745C831.822 532.623 830.914 531.648 829.843 530.877C828.773 530.106 827.561 529.554 826.276 529.251C824.992 528.948 823.661 528.902 822.359 529.114C821.056 529.326 819.809 529.793 818.687 530.487C817.565 531.182 816.591 532.09 815.82 533.162C815.05 534.233 814.498 535.445 814.196 536.729C813.894 538.014 813.848 539.345 814.061 540.647C814.274 541.949 814.741 543.197 815.436 544.318Z" fill="black"/>
<path opacity="0.25" d="M873.312 483.07C868.184 485.185 849.484 482.035 849.484 482.035C849.484 482.035 860.524 466.616 865.652 464.501C868.114 463.485 870.879 463.489 873.339 464.512C875.798 465.535 877.751 467.493 878.767 469.955C879.782 472.418 879.779 475.183 878.756 477.642C877.733 480.102 875.775 482.054 873.312 483.07Z" fill="black"/>
<path opacity="0.25" d="M865.863 530.117C860.338 530.601 843.437 522 843.437 522C843.437 522 858.584 510.59 864.11 510.106C865.425 509.99 866.749 510.133 868.008 510.529C869.267 510.925 870.436 511.565 871.448 512.413C872.459 513.26 873.294 514.299 873.904 515.47C874.514 516.64 874.887 517.919 875.002 519.234C875.117 520.549 874.972 521.873 874.575 523.132C874.178 524.391 873.537 525.559 872.688 526.569C871.84 527.58 870.8 528.414 869.629 529.022C868.458 529.631 867.178 530.003 865.863 530.117Z" fill="black"/>
<path opacity="0.25" d="M852.349 574.851C846.984 576.262 828.873 570.64 828.873 570.64C828.873 570.64 841.875 556.835 847.239 555.424C849.815 554.747 852.555 555.12 854.856 556.463C857.157 557.805 858.83 560.006 859.507 562.583C860.185 565.159 859.811 567.899 858.469 570.199C857.126 572.5 854.925 574.173 852.349 574.851Z" fill="black"/>
<path d="M816.733 589.158C816.733 589.158 858.42 567.055 871.18 532.45C876.439 517.901 886.276 505.45 899.214 496.967C905.387 492.988 911.912 489.583 918.707 486.795" stroke="#535461" stroke-width="2" stroke-miterlimit="10"/>
<path d="M926.878 465.035C922.911 468.912 918.427 487.338 918.427 487.338C918.427 487.338 936.951 483.278 940.918 479.401C942.823 477.539 943.911 474.997 943.941 472.333C943.972 469.67 942.943 467.103 941.081 465.198C939.219 463.293 936.677 462.206 934.013 462.175C931.35 462.144 928.783 463.173 926.878 465.035Z" fill="#36DBE2"/>
<path d="M893.3 474.638C892.077 480.048 898.328 497.952 898.328 497.952C898.328 497.952 911.671 484.476 912.893 479.066C913.184 477.779 913.219 476.448 912.995 475.148C912.771 473.848 912.294 472.605 911.589 471.49C910.885 470.375 909.968 469.409 908.891 468.648C907.814 467.887 906.597 467.346 905.311 467.055C904.024 466.764 902.693 466.73 901.393 466.954C900.093 467.177 898.85 467.655 897.735 468.359C896.62 469.063 895.654 469.98 894.893 471.057C894.132 472.135 893.591 473.351 893.3 474.638Z" fill="#36DBE2"/>
<path d="M856.256 511.856C857.932 517.144 872.366 529.443 872.366 529.443C872.366 529.443 877.081 511.075 875.405 505.787C875.007 504.53 874.364 503.363 873.515 502.354C872.666 501.345 871.626 500.513 870.455 499.906C869.284 499.299 868.005 498.928 866.691 498.815C865.377 498.702 864.054 498.849 862.796 499.247C861.539 499.646 860.373 500.288 859.363 501.137C858.354 501.986 857.522 503.026 856.915 504.197C856.308 505.368 855.937 506.647 855.824 507.961C855.711 509.275 855.858 510.598 856.256 511.856Z" fill="#36DBE2"/>
<path d="M834.569 546.327C835.327 551.822 847.475 566.385 847.475 566.385C847.475 566.385 855.226 549.077 854.468 543.582C854.288 542.276 853.852 541.017 853.186 539.879C852.519 538.741 851.635 537.745 850.584 536.949C849.532 536.153 848.334 535.571 847.058 535.237C845.782 534.904 844.453 534.825 843.146 535.005C841.84 535.186 840.581 535.621 839.443 536.288C838.305 536.955 837.309 537.839 836.513 538.89C835.716 539.941 835.135 541.139 834.801 542.415C834.468 543.692 834.389 545.021 834.569 546.327Z" fill="#36DBE2"/>
<path d="M912.3 513.785C906.754 513.641 890.935 503.184 890.935 503.184C890.935 503.184 907.276 493.561 912.821 493.705C915.484 493.774 918.01 494.898 919.844 496.83C921.678 498.762 922.67 501.343 922.601 504.006C922.531 506.669 921.407 509.195 919.476 511.029C917.544 512.863 914.963 513.854 912.3 513.785H912.3Z" fill="#36DBE2"/>
<path d="M886.425 553.779C881.177 551.982 869.212 537.27 869.212 537.27C869.212 537.27 887.683 532.977 892.931 534.774C895.451 535.637 897.526 537.465 898.698 539.857C899.87 542.249 900.043 545.009 899.181 547.529C898.318 550.049 896.489 552.124 894.097 553.296C891.705 554.468 888.945 554.641 886.425 553.779V553.779Z" fill="#36DBE2"/>
<path d="M855.943 589.199C850.467 588.315 836.187 575.836 836.187 575.836C836.187 575.836 853.667 568.484 859.144 569.368C861.773 569.792 864.127 571.244 865.686 573.403C867.245 575.563 867.883 578.254 867.459 580.883C867.034 583.513 865.583 585.867 863.423 587.426C861.263 588.985 858.573 589.623 855.943 589.199Z" fill="#36DBE2"/>
<path d="M531.563 529.678C552.305 529.678 569.12 511.829 569.12 489.812C569.12 467.795 552.305 449.947 531.563 449.947C510.821 449.947 494.006 467.795 494.006 489.812C494.006 511.829 510.821 529.678 531.563 529.678Z" fill="#FBD56F"/>
<path opacity="0.1" d="M531.563 529.678C552.305 529.678 569.12 511.829 569.12 489.812C569.12 467.795 552.305 449.947 531.563 449.947C510.821 449.947 494.006 467.795 494.006 489.812C494.006 511.829 510.821 529.678 531.563 529.678Z" fill="black"/>
<path d="M538.045 529.678C558.787 529.678 575.602 512.227 575.602 490.7C575.602 469.174 558.787 451.723 538.045 451.723C517.303 451.723 500.488 469.174 500.488 490.7C500.488 512.227 517.303 529.678 538.045 529.678Z" fill="#FBD56F"/>
<path d="M553.257 526.023L549.35 523.847C549.35 523.847 547.523 531.473 548.12 536.907C548.179 537.458 548.405 537.978 548.769 538.396C549.133 538.814 549.617 539.11 550.154 539.245C559.141 541.477 601.975 550.986 631.429 537.593C631.857 537.398 632.226 537.095 632.5 536.714C632.775 536.333 632.945 535.888 632.995 535.421C633.356 532.081 632.077 525.19 631.567 523.847C630.468 520.958 553.257 526.023 553.257 526.023Z" fill="#FBD56F"/>
<path opacity="0.1" d="M553.257 526.023L549.35 523.847C549.35 523.847 547.523 531.473 548.12 536.907C548.179 537.458 548.405 537.978 548.769 538.396C549.133 538.814 549.617 539.11 550.154 539.245C559.141 541.477 601.975 550.986 631.429 537.593C631.857 537.398 632.226 537.095 632.5 536.714C632.775 536.333 632.945 535.888 632.995 535.421C633.356 532.081 632.077 525.19 631.567 523.847C630.468 520.958 553.257 526.023 553.257 526.023Z" fill="black"/>
<path d="M590.458 533.114C613.162 533.114 631.567 528.965 631.567 523.847C631.567 518.73 613.162 514.581 590.458 514.581C567.755 514.581 549.35 518.73 549.35 523.847C549.35 528.965 567.755 533.114 590.458 533.114Z" fill="#FBD56F"/>
<path d="M568.962 512.351L565.056 510.175C565.056 510.175 563.228 517.801 563.826 523.235C563.885 523.786 564.111 524.306 564.475 524.724C564.839 525.142 565.322 525.439 565.86 525.573C574.847 527.805 617.68 537.314 647.135 523.921C647.562 523.726 647.931 523.423 648.206 523.042C648.48 522.661 648.651 522.216 648.701 521.749C649.062 518.409 647.783 511.518 647.272 510.175C646.174 507.286 568.962 512.351 568.962 512.351Z" fill="#FBD56F"/>
<path opacity="0.1" d="M568.962 512.351L565.056 510.175C565.056 510.175 563.228 517.801 563.826 523.235C563.885 523.786 564.111 524.306 564.475 524.724C564.839 525.142 565.322 525.439 565.86 525.573C574.847 527.805 617.68 537.314 647.135 523.921C647.562 523.726 647.931 523.423 648.206 523.042C648.48 522.661 648.651 522.216 648.701 521.749C649.062 518.409 647.783 511.518 647.272 510.175C646.174 507.286 568.962 512.351 568.962 512.351Z" fill="black"/>
<path d="M606.164 519.442C628.868 519.442 647.272 515.293 647.272 510.176C647.272 505.058 628.868 500.909 606.164 500.909C583.461 500.909 565.056 505.058 565.056 510.176C565.056 515.293 583.461 519.442 606.164 519.442Z" fill="#FBD56F"/>
<path d="M582.847 494.382L578.94 492.207C578.94 492.207 577.113 499.832 577.71 505.266C577.769 505.817 577.996 506.337 578.36 506.755C578.723 507.173 579.207 507.47 579.745 507.604C588.732 509.836 631.565 519.345 661.02 505.952C661.447 505.757 661.816 505.454 662.09 505.073C662.365 504.693 662.535 504.247 662.585 503.78C662.947 500.44 661.668 493.549 661.157 492.207C660.058 489.317 582.847 494.382 582.847 494.382Z" fill="#FBD56F"/>
<path opacity="0.1" d="M582.847 494.382L578.94 492.207C578.94 492.207 577.113 499.832 577.71 505.266C577.769 505.817 577.996 506.337 578.36 506.755C578.723 507.173 579.207 507.47 579.745 507.604C588.732 509.836 631.565 519.345 661.02 505.952C661.447 505.757 661.816 505.454 662.09 505.073C662.365 504.693 662.535 504.247 662.585 503.78C662.947 500.44 661.668 493.549 661.157 492.207C660.058 489.317 582.847 494.382 582.847 494.382Z" fill="black"/>
<path d="M620.049 501.473C642.752 501.473 661.157 497.325 661.157 492.207C661.157 487.089 642.752 482.94 620.049 482.94C597.345 482.94 578.94 487.089 578.94 492.207C578.94 497.325 597.345 501.473 620.049 501.473Z" fill="#FBD56F"/>
<path d="M567.471 475.677L563.564 473.502C563.564 473.502 561.737 481.127 562.334 486.561C562.393 487.112 562.62 487.632 562.983 488.05C563.347 488.468 563.831 488.765 564.368 488.899C573.355 491.131 616.189 500.64 645.644 487.247C646.071 487.052 646.44 486.749 646.714 486.368C646.989 485.988 647.159 485.542 647.209 485.075C647.57 481.735 646.291 474.844 645.781 473.502C644.682 470.612 567.471 475.677 567.471 475.677Z" fill="#FBD56F"/>
<path opacity="0.1" d="M567.471 475.677L563.564 473.502C563.564 473.502 561.737 481.127 562.334 486.561C562.393 487.112 562.62 487.632 562.983 488.05C563.347 488.468 563.831 488.765 564.368 488.899C573.355 491.131 616.189 500.64 645.644 487.247C646.071 487.052 646.44 486.749 646.714 486.368C646.989 485.988 647.159 485.542 647.209 485.075C647.57 481.735 646.291 474.844 645.781 473.502C644.682 470.612 567.471 475.677 567.471 475.677Z" fill="black"/>
<path d="M604.672 482.768C627.376 482.768 645.781 478.619 645.781 473.501C645.781 468.384 627.376 464.235 604.672 464.235C581.969 464.235 563.564 468.384 563.564 473.501C563.564 478.619 581.969 482.768 604.672 482.768Z" fill="#FBD56F"/>
<path d="M602.062 460.666L598.155 458.49C598.155 458.49 596.328 466.116 596.925 471.55C596.984 472.101 597.211 472.621 597.574 473.039C597.938 473.457 598.422 473.754 598.959 473.888C607.946 476.12 650.78 485.629 680.235 472.236C680.662 472.041 681.031 471.738 681.305 471.357C681.58 470.976 681.75 470.531 681.8 470.064C682.161 466.724 680.882 459.833 680.372 458.49C679.273 455.601 602.062 460.666 602.062 460.666Z" fill="#FBD56F"/>
<path opacity="0.1" d="M602.062 460.666L598.155 458.49C598.155 458.49 596.328 466.116 596.925 471.55C596.984 472.101 597.211 472.621 597.574 473.039C597.938 473.457 598.422 473.754 598.959 473.888C607.946 476.12 650.78 485.629 680.235 472.236C680.662 472.041 681.031 471.738 681.305 471.357C681.58 470.976 681.75 470.531 681.8 470.064C682.161 466.724 680.882 459.833 680.372 458.49C679.273 455.601 602.062 460.666 602.062 460.666Z" fill="black"/>
<path d="M639.263 467.757C661.967 467.757 680.372 463.608 680.372 458.49C680.372 453.373 661.967 449.224 639.263 449.224C616.56 449.224 598.155 453.373 598.155 458.49C598.155 463.608 616.56 467.757 639.263 467.757Z" fill="#FBD56F"/>
<path d="M578.69 450.576L574.784 448.401C574.784 448.401 572.957 456.026 573.554 461.46C573.613 462.011 573.839 462.531 574.203 462.949C574.567 463.367 575.05 463.664 575.588 463.798C584.575 466.03 627.409 475.539 656.863 462.146C657.29 461.951 657.659 461.648 657.934 461.267C658.208 460.887 658.379 460.441 658.429 459.974C658.79 456.634 657.511 449.743 657.001 448.401C655.902 445.511 578.69 450.576 578.69 450.576Z" fill="#FBD56F"/>
<path opacity="0.1" d="M578.69 450.576L574.784 448.401C574.784 448.401 572.957 456.026 573.554 461.46C573.613 462.011 573.839 462.531 574.203 462.949C574.567 463.367 575.05 463.664 575.588 463.798C584.575 466.03 627.409 475.539 656.863 462.146C657.29 461.951 657.659 461.648 657.934 461.267C658.208 460.887 658.379 460.441 658.429 459.974C658.79 456.634 657.511 449.743 657.001 448.401C655.902 445.511 578.69 450.576 578.69 450.576Z" fill="black"/>
<path d="M615.892 457.667C638.596 457.667 657 453.518 657 448.401C657 443.283 638.596 439.134 615.892 439.134C593.189 439.134 574.784 443.283 574.784 448.401C574.784 453.518 593.189 457.667 615.892 457.667Z" fill="#FBD56F"/>
<path d="M594.294 431.098L590.388 428.922C590.388 428.922 588.56 436.548 589.158 441.982C589.216 442.533 589.443 443.053 589.807 443.471C590.171 443.889 590.654 444.186 591.192 444.32C600.179 446.552 643.012 456.061 672.467 442.668C672.894 442.473 673.263 442.17 673.538 441.789C673.812 441.409 673.983 440.963 674.033 440.496C674.394 437.156 673.115 430.265 672.604 428.923C671.506 426.033 594.294 431.098 594.294 431.098Z" fill="#FBD56F"/>
<path opacity="0.1" d="M594.294 431.098L590.388 428.922C590.388 428.922 588.56 436.548 589.158 441.982C589.216 442.533 589.443 443.053 589.807 443.471C590.171 443.889 590.654 444.186 591.192 444.32C600.179 446.552 643.012 456.061 672.467 442.668C672.894 442.473 673.263 442.17 673.538 441.789C673.812 441.409 673.983 440.963 674.033 440.496C674.394 437.156 673.115 430.265 672.604 428.923C671.506 426.033 594.294 431.098 594.294 431.098Z" fill="black"/>
<path d="M631.496 438.189C654.199 438.189 672.604 434.04 672.604 428.923C672.604 423.805 654.199 419.656 631.496 419.656C608.792 419.656 590.387 423.805 590.387 428.923C590.387 434.04 608.792 438.189 631.496 438.189Z" fill="#FBD56F"/>
<path d="M601.991 407.978L598.084 405.802C598.084 405.802 596.257 413.428 596.854 418.862C596.913 419.413 597.14 419.933 597.504 420.351C597.867 420.769 598.351 421.066 598.889 421.2C607.876 423.432 650.709 432.941 680.164 419.548C680.591 419.353 680.96 419.05 681.234 418.669C681.509 418.288 681.68 417.843 681.729 417.376C682.091 414.036 680.812 407.145 680.301 405.802C679.202 402.913 601.991 407.978 601.991 407.978Z" fill="#FBD56F"/>
<path opacity="0.1" d="M601.991 407.978L598.084 405.802C598.084 405.802 596.257 413.428 596.854 418.862C596.913 419.413 597.14 419.933 597.504 420.351C597.867 420.769 598.351 421.066 598.889 421.2C607.876 423.432 650.709 432.941 680.164 419.548C680.591 419.353 680.96 419.05 681.234 418.669C681.509 418.288 681.68 417.843 681.729 417.376C682.091 414.036 680.812 407.145 680.301 405.802C679.202 402.913 601.991 407.978 601.991 407.978Z" fill="black"/>
<path d="M639.193 415.069C661.896 415.069 680.301 410.92 680.301 405.802C680.301 400.685 661.896 396.536 639.193 396.536C616.489 396.536 598.084 400.685 598.084 405.802C598.084 410.92 616.489 415.069 639.193 415.069Z" fill="#FBD56F"/>
<path d="M671.386 531.385L667.479 529.21C667.479 529.21 665.652 536.835 666.249 542.269C666.308 542.82 666.534 543.34 666.898 543.758C667.262 544.176 667.745 544.473 668.283 544.607C677.27 546.839 720.104 556.348 749.558 542.955C749.985 542.76 750.354 542.457 750.629 542.076C750.903 541.696 751.074 541.25 751.124 540.783C751.485 537.443 750.206 530.552 749.696 529.21C748.597 526.32 671.386 531.385 671.386 531.385Z" fill="#FBD56F"/>
<path opacity="0.1" d="M671.386 531.385L667.479 529.21C667.479 529.21 665.652 536.835 666.249 542.269C666.308 542.82 666.534 543.34 666.898 543.758C667.262 544.176 667.745 544.473 668.283 544.607C677.27 546.839 720.104 556.348 749.558 542.955C749.985 542.76 750.354 542.457 750.629 542.076C750.903 541.696 751.074 541.25 751.124 540.783C751.485 537.443 750.206 530.552 749.696 529.21C748.597 526.32 671.386 531.385 671.386 531.385Z" fill="black"/>
<path d="M708.587 538.476C731.291 538.476 749.696 534.327 749.696 529.209C749.696 524.092 731.291 519.943 708.587 519.943C685.884 519.943 667.479 524.092 667.479 529.209C667.479 534.327 685.884 538.476 708.587 538.476Z" fill="#FBD56F"/>
<path d="M685.27 513.416L681.364 511.241C681.364 511.241 679.536 518.866 680.134 524.3C680.193 524.851 680.419 525.371 680.783 525.789C681.147 526.208 681.63 526.504 682.168 526.639C691.155 528.87 733.988 538.379 763.443 524.986C763.87 524.791 764.239 524.489 764.514 524.108C764.788 523.727 764.959 523.281 765.009 522.814C765.37 519.475 764.091 512.583 763.58 511.241C762.482 508.351 685.27 513.416 685.27 513.416Z" fill="#FBD56F"/>
<path opacity="0.1" d="M685.27 513.416L681.364 511.241C681.364 511.241 679.536 518.866 680.134 524.3C680.193 524.851 680.419 525.371 680.783 525.789C681.147 526.208 681.63 526.504 682.168 526.639C691.155 528.87 733.988 538.379 763.443 524.986C763.87 524.791 764.239 524.489 764.514 524.108C764.788 523.727 764.959 523.281 765.009 522.814C765.37 519.475 764.091 512.583 763.58 511.241C762.482 508.351 685.27 513.416 685.27 513.416Z" fill="black"/>
<path d="M722.472 520.507C745.175 520.507 763.58 516.358 763.58 511.241C763.58 506.123 745.175 501.974 722.472 501.974C699.768 501.974 681.364 506.123 681.364 511.241C681.364 516.358 699.768 520.507 722.472 520.507Z" fill="#FBD56F"/>
<path d="M669.894 494.711L665.987 492.535C665.987 492.535 664.16 500.161 664.757 505.595C664.816 506.146 665.043 506.666 665.407 507.084C665.771 507.502 666.254 507.798 666.792 507.933C675.779 510.165 718.612 519.674 748.067 506.281C748.494 506.086 748.863 505.783 749.137 505.402C749.412 505.021 749.583 504.576 749.632 504.109C749.994 500.769 748.715 493.878 748.204 492.535C747.105 489.646 669.894 494.711 669.894 494.711Z" fill="#FBD56F"/>
<path opacity="0.1" d="M669.894 494.711L665.987 492.535C665.987 492.535 664.16 500.161 664.757 505.595C664.816 506.146 665.043 506.666 665.407 507.084C665.771 507.502 666.254 507.798 666.792 507.933C675.779 510.165 718.612 519.674 748.067 506.281C748.494 506.086 748.863 505.783 749.137 505.402C749.412 505.021 749.583 504.576 749.632 504.109C749.994 500.769 748.715 493.878 748.204 492.535C747.105 489.646 669.894 494.711 669.894 494.711Z" fill="black"/>
<path d="M707.096 501.802C729.799 501.802 748.204 497.653 748.204 492.535C748.204 487.418 729.799 483.269 707.096 483.269C684.392 483.269 665.987 487.418 665.987 492.535C665.987 497.653 684.392 501.802 707.096 501.802Z" fill="#FBD56F"/>
<path d="M704.485 479.699L700.578 477.524C700.578 477.524 698.751 485.149 699.348 490.583C699.407 491.135 699.634 491.654 699.998 492.073C700.362 492.491 700.845 492.787 701.383 492.922C710.37 495.154 753.203 504.662 782.658 491.269C783.085 491.075 783.454 490.772 783.729 490.391C784.003 490.01 784.174 489.564 784.223 489.097C784.585 485.758 783.306 478.867 782.795 477.524C781.697 474.635 704.485 479.699 704.485 479.699Z" fill="#FBD56F"/>
<path opacity="0.1" d="M704.485 479.699L700.578 477.524C700.578 477.524 698.751 485.149 699.348 490.583C699.407 491.135 699.634 491.654 699.998 492.073C700.362 492.491 700.845 492.787 701.383 492.922C710.37 495.154 753.203 504.662 782.658 491.269C783.085 491.075 783.454 490.772 783.729 490.391C784.003 490.01 784.174 489.564 784.223 489.097C784.585 485.758 783.306 478.867 782.795 477.524C781.697 474.635 704.485 479.699 704.485 479.699Z" fill="black"/>
<path d="M741.687 486.791C764.39 486.791 782.795 482.642 782.795 477.524C782.795 472.407 764.39 468.258 741.687 468.258C718.983 468.258 700.578 472.407 700.578 477.524C700.578 482.642 718.983 486.791 741.687 486.791Z" fill="#FBD56F"/>
<path d="M681.114 469.61L677.207 467.435C677.207 467.435 675.38 475.06 675.977 480.494C676.036 481.045 676.263 481.565 676.626 481.983C676.99 482.401 677.474 482.698 678.011 482.832C686.998 485.064 729.832 494.573 759.287 481.18C759.714 480.985 760.083 480.682 760.357 480.302C760.632 479.921 760.802 479.475 760.852 479.008C761.213 475.669 759.934 468.777 759.424 467.435C758.325 464.545 681.114 469.61 681.114 469.61Z" fill="#FBD56F"/>
<path opacity="0.1" d="M681.114 469.61L677.207 467.435C677.207 467.435 675.38 475.06 675.977 480.494C676.036 481.045 676.263 481.565 676.626 481.983C676.99 482.401 677.474 482.698 678.011 482.832C686.998 485.064 729.832 494.573 759.287 481.18C759.714 480.985 760.083 480.682 760.357 480.302C760.632 479.921 760.802 479.475 760.852 479.008C761.213 475.669 759.934 468.777 759.424 467.435C758.325 464.545 681.114 469.61 681.114 469.61Z" fill="black"/>
<path d="M718.315 476.701C741.019 476.701 759.424 472.552 759.424 467.434C759.424 462.317 741.019 458.168 718.315 458.168C695.612 458.168 677.207 462.317 677.207 467.434C677.207 472.552 695.612 476.701 718.315 476.701Z" fill="#FBD56F"/>
<path d="M696.717 450.132L692.811 447.957C692.811 447.957 690.984 455.582 691.581 461.016C691.64 461.567 691.866 462.087 692.23 462.505C692.594 462.923 693.077 463.22 693.615 463.354C702.602 465.586 745.436 475.095 774.89 461.702C775.318 461.507 775.686 461.204 775.961 460.824C776.235 460.443 776.406 459.997 776.456 459.53C776.817 456.191 775.538 449.299 775.028 447.957C773.929 445.067 696.717 450.132 696.717 450.132Z" fill="#FBD56F"/>
<path opacity="0.1" d="M696.717 450.132L692.811 447.957C692.811 447.957 690.984 455.582 691.581 461.016C691.64 461.567 691.866 462.087 692.23 462.505C692.594 462.923 693.077 463.22 693.615 463.354C702.602 465.586 745.436 475.095 774.89 461.702C775.318 461.507 775.686 461.204 775.961 460.824C776.235 460.443 776.406 459.997 776.456 459.53C776.817 456.191 775.538 449.299 775.028 447.957C773.929 445.067 696.717 450.132 696.717 450.132Z" fill="black"/>
<path d="M733.919 457.223C756.623 457.223 775.028 453.074 775.028 447.956C775.028 442.839 756.623 438.69 733.919 438.69C711.216 438.69 692.811 442.839 692.811 447.956C692.811 453.074 711.216 457.223 733.919 457.223Z" fill="#FBD56F"/>
<path d="M704.414 427.012L700.508 424.837C700.508 424.837 698.68 432.462 699.278 437.896C699.336 438.447 699.563 438.967 699.927 439.385C700.291 439.803 700.774 440.1 701.312 440.234C710.299 442.466 753.132 451.975 782.587 438.582C783.014 438.387 783.383 438.084 783.658 437.703C783.932 437.323 784.103 436.877 784.153 436.41C784.514 433.07 783.235 426.179 782.724 424.837C781.626 421.947 704.414 427.012 704.414 427.012Z" fill="#FBD56F"/>
<path opacity="0.1" d="M704.414 427.012L700.508 424.837C700.508 424.837 698.68 432.462 699.278 437.896C699.336 438.447 699.563 438.967 699.927 439.385C700.291 439.803 700.774 440.1 701.312 440.234C710.299 442.466 753.132 451.975 782.587 438.582C783.014 438.387 783.383 438.084 783.658 437.703C783.932 437.323 784.103 436.877 784.153 436.41C784.514 433.07 783.235 426.179 782.724 424.837C781.626 421.947 704.414 427.012 704.414 427.012Z" fill="black"/>
<path d="M741.616 434.103C764.32 434.103 782.724 429.954 782.724 424.837C782.724 419.719 764.32 415.57 741.616 415.57C718.912 415.57 700.508 419.719 700.508 424.837C700.508 429.954 718.912 434.103 741.616 434.103Z" fill="#FBD56F"/>
<path d="M616.879 586.555C637.621 586.555 654.436 568.707 654.436 546.69C654.436 524.673 637.621 506.824 616.879 506.824C596.137 506.824 579.322 524.673 579.322 546.69C579.322 568.707 596.137 586.555 616.879 586.555Z" fill="#FBD56F"/>
<path opacity="0.1" d="M616.879 586.555C637.621 586.555 654.436 568.707 654.436 546.69C654.436 524.673 637.621 506.824 616.879 506.824C596.137 506.824 579.322 524.673 579.322 546.69C579.322 568.707 596.137 586.555 616.879 586.555Z" fill="black"/>
<path d="M623.36 586.555C644.102 586.555 660.917 569.104 660.917 547.577C660.917 526.05 644.102 508.6 623.36 508.6C602.618 508.6 585.803 526.05 585.803 547.577C585.803 569.104 602.618 586.555 623.36 586.555Z" fill="#FBD56F"/>
<path d="M79.1428 568.597C104.761 568.597 125.528 565.086 125.528 560.756C125.528 556.425 104.761 552.914 79.1428 552.914C53.5247 552.914 32.7571 556.425 32.7571 560.756C32.7571 565.086 53.5247 568.597 79.1428 568.597Z" fill="#36DBE2"/>
<path d="M98.323 547.927C100.31 546.081 102.173 543.904 102.745 541.253C103.318 538.602 102.188 535.424 99.6552 534.455C96.817 533.37 93.7842 535.337 91.4848 537.324C89.1855 539.31 86.5502 541.578 83.5408 541.157C85.0888 539.754 86.247 537.974 86.9024 535.991C87.5579 534.007 87.6883 531.887 87.281 529.838C87.1489 528.992 86.7894 528.197 86.2408 527.54C84.6654 525.855 81.8093 526.579 79.9228 527.905C73.9237 532.125 72.2497 540.274 72.2171 547.609C71.6121 544.963 72.1216 542.206 72.1067 539.492C72.0918 536.778 71.3481 533.77 69.0587 532.313C67.6326 531.545 66.0288 531.168 64.4099 531.22C61.7132 531.121 58.7097 531.391 56.8681 533.363C54.5798 535.814 55.1733 539.926 57.164 542.624C59.1547 545.322 62.1828 547.012 64.97 548.876C67.2058 550.207 69.1126 552.026 70.5484 554.197C70.7172 554.499 70.8557 554.817 70.962 555.147H87.868C91.6631 553.224 95.18 550.795 98.323 547.927Z" fill="#36DBE2"/>
<path d="M498.621 509.623C500.688 512.452 502.378 515.538 503.649 518.803C503.985 519.647 504.314 520.534 504.625 521.465C509.622 536.4 501.704 554.31 499.44 552.378C497.176 550.446 490.122 546.862 488.758 551.899C487.393 556.936 482.355 562.084 482.355 562.084C473.174 571.318 464.865 561.341 459.41 551.034C457.628 547.633 456.044 544.132 454.665 540.548C453.454 537.383 452.758 535.195 452.758 535.195L490.995 502.616C490.995 502.616 494.692 504.313 498.621 509.623Z" fill="#36DBE2"/>
<path d="M438.357 530.455C440.424 533.284 442.114 536.37 443.385 539.635C443.721 540.479 444.049 541.366 444.361 542.297C449.358 557.232 441.439 575.142 439.176 573.21C436.912 571.278 429.857 567.694 428.493 572.731C427.129 577.768 422.091 582.916 422.091 582.916C412.91 592.149 404.601 582.173 399.146 571.866C397.364 568.465 395.78 564.964 394.401 561.38C393.19 558.215 392.494 556.027 392.494 556.027L430.731 523.448C430.731 523.448 434.428 525.145 438.357 530.455Z" fill="#36DBE2"/>
<path d="M317.354 559.235C317.139 562.732 316.471 566.186 315.366 569.511C315.085 570.375 314.773 571.268 314.418 572.183C308.734 586.87 291.208 595.605 290.698 592.673C290.188 589.741 287.045 582.48 282.78 585.487C278.515 588.494 271.35 589.242 271.35 589.242C258.39 590.492 258.359 577.509 260.738 566.092C261.537 562.336 262.551 558.63 263.777 554.991C264.864 551.781 265.725 549.653 265.725 549.653L315.954 548.974C315.954 548.974 317.717 552.639 317.354 559.235Z" fill="#36DBE2"/>
<path d="M252.455 542.866C252.24 546.364 251.572 549.818 250.467 553.143C250.187 554.007 249.874 554.9 249.519 555.815C243.835 570.502 226.309 579.237 225.799 576.305C225.289 573.373 222.146 566.112 217.881 569.119C213.616 572.126 206.451 572.874 206.451 572.874C193.491 574.124 193.46 561.14 195.84 549.724C196.638 545.968 197.652 542.262 198.878 538.623C199.966 535.413 200.826 533.285 200.826 533.285L251.056 532.605C251.056 532.605 252.818 536.271 252.455 542.866Z" fill="#36DBE2"/>
<path opacity="0.2" d="M498.621 509.623C500.688 512.452 502.378 515.538 503.649 518.803C503.985 519.647 504.314 520.534 504.625 521.465C509.622 536.4 501.704 554.31 499.44 552.378C497.176 550.446 490.122 546.862 488.758 551.899C487.393 556.936 482.355 562.084 482.355 562.084C473.174 571.318 464.865 561.341 459.41 551.034C457.628 547.633 456.044 544.132 454.665 540.548C453.454 537.383 452.758 535.195 452.758 535.195L490.995 502.616C490.995 502.616 494.692 504.313 498.621 509.623Z" fill="black"/>
<path opacity="0.2" d="M438.357 530.455C440.424 533.284 442.114 536.37 443.385 539.635C443.721 540.479 444.049 541.366 444.361 542.297C449.358 557.232 441.439 575.142 439.176 573.21C436.912 571.278 429.857 567.694 428.493 572.731C427.129 577.768 422.091 582.916 422.091 582.916C412.91 592.149 404.601 582.173 399.146 571.866C397.364 568.465 395.78 564.964 394.401 561.38C393.19 558.215 392.494 556.027 392.494 556.027L430.731 523.448C430.731 523.448 434.428 525.145 438.357 530.455Z" fill="black"/>
<path opacity="0.2" d="M317.354 559.235C317.139 562.732 316.471 566.186 315.366 569.511C315.085 570.375 314.773 571.268 314.418 572.183C308.734 586.87 291.208 595.605 290.698 592.673C290.188 589.741 287.045 582.48 282.78 585.487C278.515 588.494 271.35 589.242 271.35 589.242C258.39 590.492 258.359 577.509 260.738 566.092C261.537 562.336 262.551 558.63 263.777 554.991C264.864 551.781 265.725 549.653 265.725 549.653L315.954 548.974C315.954 548.974 317.717 552.639 317.354 559.235Z" fill="black"/>
<path opacity="0.2" d="M252.455 542.866C252.24 546.364 251.572 549.818 250.467 553.143C250.187 554.007 249.874 554.9 249.519 555.815C243.835 570.502 226.309 579.237 225.799 576.305C225.289 573.373 222.146 566.112 217.881 569.119C213.616 572.126 206.451 572.874 206.451 572.874C193.491 574.124 193.46 561.14 195.84 549.724C196.638 545.968 197.652 542.262 198.878 538.623C199.966 535.413 200.826 533.285 200.826 533.285L251.056 532.605C251.056 532.605 252.818 536.271 252.455 542.866Z" fill="black"/>
<path d="M600.616 322.733C600.616 456.891 555.232 565.649 345.796 565.649C205.063 565.649 96.1838 530.681 90.9758 322.733C87.6168 188.616 205.063 79.8164 345.796 79.8164C486.529 79.8164 600.616 188.574 600.616 322.733Z" fill="#36DBE2"/>
<path opacity="0.2" d="M297.994 84.0571H298.024C298.017 84.0611 298.009 84.0636 298.001 84.0645L297.994 84.0571Z" fill="black"/>
<path opacity="0.2" d="M298.492 83.9754C299.14 83.8712 300.419 83.6927 302.279 83.5513L298.135 84.0423C298.195 84.0274 298.269 84.0126 298.358 83.9977C298.403 83.9902 298.44 83.9828 298.492 83.9754Z" fill="black"/>
<path opacity="0.2" d="M486.784 183.232L468.184 189.928C458.702 177.213 448.5 165.051 437.628 153.502C425.761 140.845 412.814 129.247 398.932 118.839C351.309 83.5438 314.474 82.6435 302.309 83.5511L330.269 80.2627C356.694 84.8095 382.106 93.9956 405.331 107.396C421.579 116.763 436.712 127.942 450.44 140.72C474.783 163.316 486.784 183.232 486.784 183.232Z" fill="black"/>
<path opacity="0.2" d="M318.64 195.88C318.64 195.88 294.088 114.04 314.92 91.7204C314.92 91.7204 347.656 80.5604 372.208 143.8L318.64 195.88Z" fill="black"/>
<path d="M442.962 119.442C442.962 119.442 508.071 64.1129 536.875 74.2375C536.875 74.2375 560.233 99.7439 512.161 147.609L442.962 119.442Z" fill="#36DBE2"/>
<path opacity="0.2" d="M442.962 119.442C442.962 119.442 508.071 64.1129 536.875 74.2375C536.875 74.2375 560.233 99.7439 512.161 147.609L442.962 119.442Z" fill="black"/>
<path d="M646 384.484C646 456.597 594.252 513.568 545.56 513.568C496.868 513.568 469.672 456.597 469.672 384.484C469.672 312.372 509.226 256.73 557.836 253.912C634.84 249.448 646 312.372 646 384.484Z" fill="#36DBE2"/>
<path opacity="0.2" d="M646 384.484C646 456.597 594.252 513.568 545.56 513.568C496.868 513.568 469.672 456.597 469.672 384.484C469.672 312.372 509.226 256.73 557.836 253.912C634.84 249.448 646 312.372 646 384.484Z" fill="black"/>
<path d="M542.584 416.104C551.624 416.104 558.952 406.778 558.952 395.272C558.952 383.767 551.624 374.44 542.584 374.44C533.544 374.44 526.216 383.767 526.216 395.272C526.216 406.778 533.544 416.104 542.584 416.104Z" fill="#36DBE2"/>
<path d="M600.616 398.249C609.656 398.249 616.984 388.922 616.984 377.417C616.984 365.911 609.656 356.584 600.616 356.584C591.576 356.584 584.248 365.911 584.248 377.417C584.248 388.922 591.576 398.249 600.616 398.249Z" fill="#36DBE2"/>
<path d="M453.616 127.284C453.628 131.95 452.539 136.553 450.439 140.72C447.668 146.258 443.171 150.744 437.628 153.502C425.761 140.845 412.814 129.247 398.932 118.839C400.169 114.589 402.357 110.676 405.331 107.397C407.895 104.539 411.03 102.25 414.534 100.68C418.038 99.1104 421.832 98.2936 425.672 98.2827C441.102 98.2827 453.616 111.265 453.616 127.284Z" fill="#FAD46F"/>
</g>
<defs>
<clipPath id="clip0">
<rect width="1118" height="802.819" fill="white"/>
</clipPath>
</defs>
</svg>
