<svg width="782" height="493" viewBox="0 0 782 493" fill="none" xmlns="http://www.w3.org/2000/svg">
<g clip-path="url(#clip0)">
<path d="M365.78 46.3917L363.172 65.1163L769.217 132.441L771.824 113.716L365.78 46.3917Z" fill="#F5F5F5"/>
<path d="M358.316 38.7868L309 392.935L732.204 463.104L781.52 108.957L358.316 38.7868Z" fill="#C54646"/>
<path d="M362.97 65.325L318 388.268L722.583 455.35L767.553 132.407L362.97 65.325Z" fill="#F5F5F5"/>
<path d="M378.585 58.092C378.937 55.5639 377.344 53.2031 375.027 52.8189C372.711 52.4348 370.547 54.1728 370.195 56.7009C369.843 59.229 371.436 61.5898 373.753 61.974C376.069 62.3581 378.233 60.6201 378.585 58.092Z" fill="#FF5252"/>
<path d="M390.12 59.9992C390.472 57.471 388.879 55.1102 386.562 54.7261C384.245 54.3419 382.082 56.0799 381.73 58.608C381.378 61.1362 382.971 63.497 385.287 63.8811C387.604 64.2653 389.768 62.5273 390.12 59.9992Z" fill="#FFFF00"/>
<path d="M401.655 61.9159C402.007 59.3878 400.414 57.0269 398.097 56.6427C395.78 56.2586 393.617 57.9967 393.265 60.5248C392.913 63.0529 394.505 65.4137 396.822 65.7979C399.139 66.182 401.303 64.444 401.655 61.9159Z" fill="#69F0AE"/>
<path d="M376.306 96.8242L360.013 213.834L724.599 274.285L740.893 157.275L376.306 96.8242Z" fill="url(#paint0_linear)"/>
<path d="M736.69 161.362L379.967 102.216L364.868 210.645L721.591 269.792L736.69 161.362Z" fill="#36DBE2"/>
<path d="M415.908 269.379L412.758 292.003L437.065 296.033L440.215 273.409L415.908 269.379Z" fill="url(#paint1_linear)"/>
<path d="M439.663 274.912L416.788 271.12L414.181 289.844L437.055 293.637L439.663 274.912Z" fill="#36DBE2"/>
<path d="M435.197 306.896L412.323 303.103L409.715 321.828L432.589 325.62L435.197 306.896Z" fill="#FF5252"/>
<path d="M430.748 338.88L407.874 335.088L405.267 353.812L428.141 357.605L430.748 338.88Z" fill="#FF9800"/>
<path opacity="0.4" d="M661.438 315.674L477.004 285.094L475.484 296.011L659.918 326.591L661.438 315.674Z" fill="#36DBE2"/>
<path opacity="0.4" d="M656.98 347.659L472.546 317.079L471.026 327.995L655.46 358.576L656.98 347.659Z" fill="#36DBE2"/>
<path opacity="0.4" d="M652.532 379.644L468.098 349.064L466.578 359.98L651.012 390.56L652.532 379.644Z" fill="#36DBE2"/>
<path d="M436.247 8.43916L9.50504 112.526L13.2304 130.712L439.973 26.6251L436.247 8.43916Z" fill="#F5F5F5"/>
<path d="M444.802 -9.62818e-06L0 108.353L70.5552 452.342L515.358 343.989L444.802 -9.62818e-06Z" fill="#C54646"/>
<path d="M439.742 26.5383L13 130.625L77.26 444.322L504.002 340.236L439.742 26.5383Z" fill="#F5F5F5"/>
<path d="M22.6958 123.52C25.1287 122.926 26.6934 120.456 26.1906 118.001C25.6878 115.547 23.308 114.038 20.8751 114.631C18.4422 115.225 16.8776 117.696 17.3804 120.15C17.8831 122.605 20.263 124.113 22.6958 123.52Z" fill="#FF5252"/>
<path d="M34.8223 120.571C37.2551 119.977 38.8198 117.507 38.317 115.052C37.8142 112.598 35.4344 111.089 33.0015 111.682C30.5686 112.276 29.004 114.747 29.5068 117.201C30.0095 119.656 32.3894 121.164 34.8223 120.571Z" fill="#FFFF00"/>
<path d="M46.9401 117.614C49.373 117.021 50.9377 114.55 50.4349 112.096C49.9321 109.641 47.5523 108.133 45.1194 108.726C42.6865 109.319 41.1219 111.79 41.6246 114.245C42.1274 116.699 44.5073 118.208 46.9401 117.614Z" fill="#69F0AE"/>
<path d="M420.169 60.9003L37.0004 154.359L60.2837 268.02L443.452 174.562L420.169 60.9003Z" fill="url(#paint2_linear)"/>
<path d="M417.346 66.3586L42.4426 157.801L64.0175 263.123L438.921 171.681L417.346 66.3586Z" fill="#36DBE2"/>
<path d="M160.204 289.786L134.659 296.017L139.16 317.986L164.704 311.756L160.204 289.786Z" fill="url(#paint3_linear)"/>
<path d="M162.149 292.734L138.003 298.649L141.76 316.911L165.906 310.996L162.149 292.734Z" fill="#36DBE2"/>
<path d="M166.505 322.459L142.46 328.323L146.185 346.509L170.23 340.645L166.505 322.459Z" fill="#FF5252"/>
<path d="M175.041 355.095L150.896 361.01L154.653 379.272L178.798 373.357L175.041 355.095Z" fill="#FF9800"/>
<path opacity="0.4" d="M394.562 238.187L200.728 285.465L202.902 296.073L396.735 248.795L394.562 238.187Z" fill="#36DBE2"/>
<path opacity="0.4" d="M400.925 269.259L207.091 316.536L209.265 327.145L403.098 279.867L400.925 269.259Z" fill="#36DBE2"/>
<path opacity="0.4" d="M407.288 300.321L213.455 347.598L215.628 358.207L409.461 310.929L407.288 300.321Z" fill="#36DBE2"/>
<path d="M644.394 17.6058H148.485V40.4704H644.394V17.6058Z" fill="#F5F5F5"/>
<path d="M655.863 10.207H139V442.73H655.863V10.207Z" fill="#A57272"/>
<path d="M644 40.8282H148V403.178H644V40.8282Z" fill="white"/>
<path d="M160.594 34.6304C163.425 34.6304 165.719 32.1267 165.719 29.0381C165.719 25.9496 163.425 23.4458 160.594 23.4458C157.764 23.4458 155.469 25.9496 155.469 29.0381C155.469 32.1267 157.764 34.6304 160.594 34.6304Z" fill="#FF5252"/>
<path d="M174.677 34.6304C177.508 34.6304 179.802 32.1267 179.802 29.0381C179.802 25.9496 177.508 23.4458 174.677 23.4458C171.847 23.4458 169.552 25.9496 169.552 29.0381C169.552 32.1267 171.847 34.6304 174.677 34.6304Z" fill="#FFFF00"/>
<path d="M188.76 34.6304C191.59 34.6304 193.885 32.1267 193.885 29.0381C193.885 25.9496 191.59 23.4458 188.76 23.4458C185.929 23.4458 183.635 25.9496 183.635 29.0381C183.635 32.1267 185.929 34.6304 188.76 34.6304Z" fill="#69F0AE"/>
<path d="M275.081 273.88H245.397V301.509H275.081V273.88Z" fill="url(#paint4_linear)"/>
<path d="M274.645 275.786H246.706V298.65H274.645V275.786Z" fill="#36DBE2"/>
<path d="M480.255 347.238H317.862V493H480.255V347.238Z" fill="url(#paint5_linear)"/>
<path d="M355.335 324.059C355.335 310.898 360.126 298.277 368.654 288.971C377.182 279.666 388.748 274.438 400.809 274.438C412.87 274.438 424.436 279.666 432.964 288.971C441.492 298.277 446.283 310.898 446.283 324.059V355.812H459.013V324.059C459.107 315.653 457.671 307.31 454.789 299.514C451.906 291.719 447.634 284.625 442.22 278.644C436.806 272.664 430.357 267.915 423.249 264.674C416.14 261.434 408.513 259.765 400.809 259.765C393.105 259.765 385.478 261.434 378.369 264.674C371.261 267.915 364.812 272.664 359.398 278.644C353.984 284.625 349.712 291.719 346.829 299.514C343.947 307.31 342.511 315.653 342.605 324.059V355.812H355.335V324.059Z" fill="url(#paint6_linear)"/>
<path d="M357.25 328.326C357.25 314.65 361.859 301.534 370.064 291.863C378.269 282.193 389.397 276.76 401 276.76C412.603 276.76 423.731 282.193 431.936 291.863C440.141 301.534 444.75 314.65 444.75 328.326V361.329H457V328.326C457 310.821 451.1 294.032 440.598 281.653C430.096 269.275 415.852 262.321 401 262.321C386.148 262.321 371.904 269.275 361.402 281.653C350.9 294.032 345 310.821 345 328.326V361.329H357.25V328.326Z" fill="#36DBE2"/>
<path d="M476.763 352.001H324.847V487.284H476.763V352.001Z" fill="#36DBE2"/>
<path d="M476.916 352.143H325V487.425H476.916V352.143Z" fill="#36DBE2"/>
<path d="M411.954 404.171C411.962 402.182 411.524 400.221 410.676 398.46C409.828 396.699 408.597 395.193 407.092 394.072C405.586 392.951 403.851 392.25 402.039 392.031C400.228 391.812 398.394 392.082 396.7 392.816C395.006 393.551 393.503 394.727 392.323 396.243C391.143 397.759 390.322 399.568 389.932 401.511C389.541 403.453 389.594 405.471 390.084 407.387C390.575 409.302 391.489 411.057 392.746 412.497V438.43C392.746 440.775 393.6 443.023 395.119 444.681C396.639 446.339 398.7 447.271 400.848 447.271C402.997 447.271 405.058 446.339 406.577 444.681C408.097 443.023 408.951 440.775 408.951 438.43V412.497C410.89 410.243 411.965 407.263 411.954 404.171Z" fill="url(#paint7_linear)"/>
<path d="M476.916 378.681H325V460.613H476.916V378.681Z" fill="#69F0AE"/>
<g clip-path="url(#clip1)">
<path d="M215.025 205.29C215.025 205.29 311.767 132.244 367.485 205.29Z" fill="#F2F2F2"/>
<path d="M373.774 249.052C398.52 249.052 418.581 246.223 418.581 242.734C418.581 239.245 398.52 236.417 373.774 236.417C349.028 236.417 328.967 239.245 328.967 242.734C328.967 246.223 349.028 249.052 373.774 249.052Z" fill="#F2F2F2"/>
<path d="M381.078 246.359C405.824 246.359 425.885 243.53 425.885 240.041C425.885 236.552 405.824 233.724 381.078 233.724C356.332 233.724 336.272 236.552 336.272 240.041C336.272 243.53 356.332 246.359 381.078 246.359Z" stroke="#3F3D56" stroke-miterlimit="10"/>
<path d="M400.102 175.006C400.759 175.222 401.464 175.297 402.159 175.225C402.854 175.153 403.521 174.936 404.108 174.591C404.695 174.246 405.185 173.783 405.54 173.237C405.894 172.691 406.104 172.079 406.153 171.447C406.201 170.816 406.087 170.182 405.819 169.598C405.551 169.013 405.136 168.493 404.608 168.077C404.08 167.662 403.452 167.364 402.774 167.206C402.097 167.048 401.388 167.034 400.704 167.166L400.817 169.27L399.716 167.467C398.637 167.926 397.802 168.754 397.397 169.769C397.253 170.125 397.166 170.497 397.137 170.875C397.068 171.761 397.32 172.644 397.855 173.39C398.39 174.135 399.179 174.702 400.102 175.006V175.006Z" fill="#57B894"/>
<path d="M405.546 199.407C405.157 197.618 406.84 196.032 408.503 195.001C410.165 193.97 412.108 192.957 412.675 191.207C413.49 188.692 411.062 186.389 409.172 184.403C407.77 182.929 406.566 181.31 405.585 179.58C405.158 178.9 404.868 178.158 404.727 177.387C404.578 176.272 404.974 175.163 405.372 174.1C406.701 170.558 408.121 167.045 409.634 163.563" stroke="#3F3D56" stroke-miterlimit="10"/>
<path d="M400.288 174.464C400.946 174.68 401.65 174.755 402.345 174.683C403.04 174.611 403.707 174.394 404.294 174.049C404.881 173.704 405.371 173.241 405.726 172.695C406.08 172.15 406.29 171.537 406.339 170.905C406.387 170.274 406.273 169.641 406.005 169.056C405.737 168.471 405.322 167.951 404.794 167.536C404.266 167.121 403.638 166.822 402.96 166.664C402.283 166.506 401.574 166.492 400.89 166.624L401.003 168.728L399.902 166.925C398.823 167.384 397.988 168.212 397.583 169.228C397.439 169.583 397.352 169.955 397.323 170.333C397.254 171.22 397.506 172.103 398.041 172.848C398.576 173.593 399.365 174.161 400.288 174.464V174.464Z" stroke="#3F3D56" stroke-miterlimit="10"/>
<path d="M404.994 162.836C405.252 162.192 405.685 161.617 406.253 161.164C406.821 160.711 407.507 160.395 408.246 160.244L408.618 162.244L409.307 160.144C410.265 160.156 411.193 160.444 411.958 160.966C412.723 161.487 413.285 162.215 413.563 163.044C413.841 163.873 413.821 164.76 413.505 165.578C413.189 166.396 412.594 167.102 411.806 167.594C411.017 168.086 410.077 168.339 409.119 168.316C408.162 168.293 407.238 167.995 406.48 167.465C405.721 166.936 405.169 166.202 404.902 165.37C404.635 164.538 404.667 163.651 404.994 162.836H404.994Z" fill="#57B894"/>
<path d="M405.242 162.114C405.5 161.47 405.933 160.895 406.501 160.442C407.07 159.989 407.755 159.672 408.494 159.522L408.866 161.522L409.555 159.421C410.513 159.434 411.441 159.722 412.206 160.243C412.971 160.765 413.533 161.492 413.811 162.321C414.089 163.151 414.069 164.038 413.753 164.856C413.437 165.674 412.842 166.38 412.054 166.872C411.266 167.364 410.325 167.617 409.367 167.594C408.41 167.57 407.486 167.273 406.728 166.743C405.97 166.214 405.417 165.48 405.15 164.648C404.883 163.816 404.915 162.928 405.242 162.114V162.114Z" stroke="#3F3D56" stroke-miterlimit="10"/>
<path d="M408.379 184.444C409.422 184.786 410.567 184.769 411.597 184.396C412.627 184.023 413.47 183.321 413.964 182.422C414.458 181.523 414.57 180.492 414.277 179.523C413.984 178.555 413.308 177.718 412.377 177.172L411.847 178.787L411.472 176.763C411.468 176.761 411.464 176.76 411.46 176.759C410.902 176.576 410.31 176.494 409.718 176.518C409.125 176.542 408.543 176.671 408.006 176.899C407.468 177.126 406.986 177.447 406.585 177.843C406.185 178.239 405.875 178.703 405.672 179.207C405.47 179.712 405.38 180.248 405.406 180.784C405.433 181.32 405.576 181.846 405.827 182.333C406.078 182.819 406.433 183.256 406.871 183.618C407.309 183.98 407.821 184.261 408.379 184.444V184.444Z" fill="#57B894"/>
<path d="M408.594 183.712C409.637 184.054 410.782 184.037 411.812 183.665C412.842 183.292 413.685 182.589 414.179 181.69C414.673 180.792 414.784 179.76 414.492 178.792C414.199 177.824 413.523 176.987 412.592 176.441L412.062 178.055L411.686 176.031C411.683 176.03 411.679 176.028 411.675 176.027C410.549 175.658 409.306 175.708 408.221 176.167C407.135 176.626 406.296 177.457 405.887 178.476C405.479 179.495 405.534 180.619 406.042 181.601C406.549 182.583 407.467 183.342 408.594 183.712V183.712Z" stroke="#3F3D56" stroke-miterlimit="10"/>
<path d="M403.675 191.232C403.854 192.155 404.379 192.994 405.161 193.609C405.943 194.224 406.935 194.576 407.971 194.608C409.006 194.639 410.022 194.348 410.848 193.782C411.674 193.216 412.26 192.411 412.508 191.501C412.755 190.591 412.649 189.631 412.208 188.783C411.766 187.936 411.016 187.251 410.082 186.844C409.149 186.437 408.09 186.333 407.081 186.549C406.073 186.765 405.178 187.289 404.546 188.031L406.559 190.772L403.808 189.317C403.595 189.936 403.549 190.593 403.675 191.232V191.232Z" fill="#57B894"/>
<path d="M403.861 190.69C404.041 191.613 404.565 192.453 405.347 193.067C406.129 193.682 407.121 194.035 408.157 194.066C409.192 194.098 410.208 193.806 411.034 193.24C411.86 192.675 412.446 191.869 412.694 190.959C412.941 190.049 412.835 189.09 412.394 188.242C411.952 187.394 411.202 186.709 410.269 186.302C409.335 185.896 408.276 185.791 407.268 186.008C406.259 186.224 405.364 186.747 404.732 187.489L406.745 190.23L403.994 188.775C403.781 189.395 403.735 190.051 403.861 190.69V190.69Z" stroke="#3F3D56" stroke-miterlimit="10"/>
<path d="M399.273 201.831C399.273 201.831 403.26 200.417 404.461 199.643C405.663 198.869 410.594 197.945 410.892 199.186C411.19 200.428 416.884 205.361 412.383 205.394C407.882 205.426 401.924 206.062 400.725 205.401C399.526 204.74 399.273 201.831 399.273 201.831Z" fill="#656380"/>
<path opacity="0.2" d="M412.463 204.961C407.962 204.994 402.004 205.63 400.805 204.969C399.892 204.465 399.528 202.659 399.406 201.826C399.322 201.829 399.273 201.831 399.273 201.831C399.273 201.831 399.526 204.74 400.725 205.401C401.924 206.062 407.882 205.426 412.383 205.394C413.682 205.384 414.131 204.966 414.106 204.346C413.926 204.721 413.43 204.954 412.463 204.961Z" fill="black"/>
<path d="M226.271 163.831H215.709C213.805 163.831 212.261 165.228 212.261 166.951V202.302C212.261 204.025 213.805 205.422 215.709 205.422H226.271C228.175 205.422 229.719 204.025 229.719 202.302V166.951C229.719 165.228 228.175 163.831 226.271 163.831Z" fill="#36DBE2"/>
<path d="M259.439 138.825H248.878C246.974 138.825 245.43 140.221 245.43 141.944V202.302C245.43 204.025 246.974 205.422 248.878 205.422H259.439C261.343 205.422 262.887 204.025 262.887 202.302V141.944C262.887 140.221 261.343 138.825 259.439 138.825Z" fill="#36DBE2"/>
<path d="M292.608 121.452H282.046C280.142 121.452 278.599 122.848 278.599 124.571V202.302C278.599 204.025 280.142 205.422 282.046 205.422H292.608C294.512 205.422 296.056 204.025 296.056 202.302V124.571C296.056 122.848 294.512 121.452 292.608 121.452Z" fill="#36DBE2"/>
<path d="M325.776 104.868H315.215C313.311 104.868 311.767 106.265 311.767 107.988V202.302C311.767 204.025 313.311 205.422 315.215 205.422H325.776C327.681 205.422 329.224 204.025 329.224 202.302V107.988C329.224 106.265 327.681 104.868 325.776 104.868Z" fill="#36DBE2"/>
<path d="M358.945 75.9131H348.384C346.479 75.9131 344.936 77.3097 344.936 79.0325V202.302C344.936 204.025 346.479 205.422 348.384 205.422H358.945C360.849 205.422 362.393 204.025 362.393 202.302V79.0325C362.393 77.3097 360.849 75.9131 358.945 75.9131Z" fill="#36DBE2"/>
<path d="M228.598 161.726H218.037C216.133 161.726 214.589 163.122 214.589 164.845V200.196C214.589 201.919 216.133 203.316 218.037 203.316H228.598C230.502 203.316 232.046 201.919 232.046 200.196V164.845C232.046 163.122 230.502 161.726 228.598 161.726Z" stroke="#3F3D56" stroke-miterlimit="10"/>
<path d="M261.767 136.719H251.206C249.301 136.719 247.758 138.116 247.758 139.838V200.196C247.758 201.919 249.301 203.316 251.206 203.316H261.767C263.671 203.316 265.215 201.919 265.215 200.196V139.838C265.215 138.116 263.671 136.719 261.767 136.719Z" stroke="#3F3D56" stroke-miterlimit="10"/>
<path d="M294.935 119.346H284.374C282.47 119.346 280.926 120.742 280.926 122.465V200.196C280.926 201.919 282.47 203.316 284.374 203.316H294.935C296.84 203.316 298.383 201.919 298.383 200.196V122.465C298.383 120.742 296.84 119.346 294.935 119.346Z" stroke="#3F3D56" stroke-miterlimit="10"/>
<path d="M328.104 102.762H317.543C315.638 102.762 314.095 104.159 314.095 105.882V200.196C314.095 201.919 315.638 203.316 317.543 203.316H328.104C330.008 203.316 331.552 201.919 331.552 200.196V105.882C331.552 104.159 330.008 102.762 328.104 102.762Z" stroke="#3F3D56" stroke-miterlimit="10"/>
<path d="M361.273 73.8073H350.711C348.807 73.8073 347.263 75.2039 347.263 76.9266V200.196C347.263 201.919 348.807 203.316 350.711 203.316H361.273C363.177 203.316 364.72 201.919 364.72 200.196V76.9266C364.72 75.2039 363.177 73.8073 361.273 73.8073Z" stroke="#3F3D56" stroke-miterlimit="10"/>
<path d="M416.51 205.553H166" stroke="#3F3D56" stroke-miterlimit="10"/>
<path d="M400.712 180.303C400.712 180.303 403.45 189.221 399.982 190.542C396.514 191.864 397.609 180.634 397.609 180.634L400.712 180.303Z" fill="#A0616A"/>
<path d="M375.887 237.444C375.887 237.444 373.331 237.279 372.418 237.774C372.145 237.919 371.841 238.009 371.526 238.037C371.211 238.066 370.892 238.032 370.593 237.94C370.593 237.94 366.577 237.609 368.037 239.426C369.498 241.243 370.958 241.903 370.958 242.729C370.958 243.555 376.982 243.555 377.164 242.729C377.347 241.903 377.529 237.609 377.164 237.444C376.799 237.279 375.887 237.444 375.887 237.444Z" fill="#575A89"/>
<path d="M382.641 237.444C382.641 237.444 385.196 237.279 386.109 237.774C386.382 237.919 386.687 238.009 387.002 238.037C387.317 238.066 387.635 238.032 387.934 237.94C387.934 237.94 391.95 237.609 390.49 239.426C389.03 241.243 387.569 241.903 387.569 242.729C387.569 243.555 381.545 243.555 381.363 242.729C381.18 241.903 380.998 237.609 381.363 237.444C381.728 237.279 382.641 237.444 382.641 237.444Z" fill="#575A89"/>
<path d="M368.403 178.487C368.403 178.487 367.125 204.58 367.855 205.901C368.585 207.222 371.141 229.517 370.776 230.838C370.41 232.159 368.585 237.609 370.776 238.435C372.966 239.261 377.712 238.435 377.712 238.435C377.712 238.435 378.99 231.829 378.442 228.361C377.895 224.893 377.712 210.36 377.712 210.36L381.363 195.167L382.641 209.534C382.641 209.534 383.006 229.187 380.45 233.15C377.895 237.114 381.363 238.765 381.363 238.765C381.363 238.765 388.299 239.591 389.03 239.426C389.76 239.261 388.482 232.82 389.03 230.013C389.577 227.205 390.855 211.516 391.95 207.718C393.046 203.919 399.252 182.78 394.688 178.487C390.125 174.193 368.403 178.487 368.403 178.487Z" fill="#3F3D56"/>
<path d="M381.728 125.805C385.256 125.805 388.117 123.217 388.117 120.025C388.117 116.832 385.256 114.244 381.728 114.244C378.199 114.244 375.339 116.832 375.339 120.025C375.339 123.217 378.199 125.805 381.728 125.805Z" fill="#A0616A"/>
<path d="M376.982 122.667C376.982 122.667 378.077 130.594 377.53 130.759C376.982 130.924 387.204 130.759 387.204 130.759C387.204 130.759 385.196 125.97 387.204 122.171L376.982 122.667Z" fill="#A0616A"/>
<path d="M376.982 129.108C376.982 129.108 381.431 125.144 386.691 129.108L387.031 130.289L384.284 130.264H376.982V129.108Z" fill="#F2F2F2"/>
<path d="M398.704 179.808C398.283 179.884 397.249 180.039 395.902 180.224C391.417 180.837 383.469 181.765 383.188 181.129C382.823 180.303 381.545 177.331 380.633 178.652C379.72 179.973 380.268 181.129 376.434 181.294C373.826 181.406 370.034 181.06 367.935 180.515C366.949 180.259 366.336 179.96 366.395 179.643C366.577 178.652 368.585 159.825 368.585 158.008C368.585 156.192 369.315 147.439 369.315 147.439L364.069 138.1L363.656 137.365C363.656 137.365 364.204 135.548 365.847 135.218C367.49 134.888 375.339 130.759 375.339 130.759C375.339 130.759 376.982 128.447 380.085 128.612C383.188 128.777 383.918 127.621 388.117 130.759C388.117 130.759 393.228 132.741 395.053 133.732C396.879 134.723 398.887 134.723 399.069 136.374C399.106 136.706 398.907 137.345 398.566 138.153C397.315 141.112 394.155 146.349 393.661 147.165C393.617 147.236 393.593 147.274 393.593 147.274C393.593 147.274 393.498 150.243 393.599 153.72V153.728C393.697 157.062 393.975 160.862 394.688 162.963C396.149 167.257 400.53 179.478 398.704 179.808Z" fill="#575A89"/>
<path d="M390.022 117.652C389.894 117.126 389.648 116.629 389.3 116.192C389.161 114.984 388.716 113.822 387.998 112.795C387.718 112.314 387.319 111.898 386.832 111.578C386.276 111.287 385.64 111.144 384.998 111.164C384.882 111.162 384.672 111.194 384.484 111.202C384.363 111.168 384.241 111.138 384.119 111.109C384.048 110.966 383.906 110.548 383.867 110.576L383.335 110.959C383.11 110.924 382.884 110.896 382.656 110.874C382.574 110.661 382.491 110.448 382.408 110.234C382.274 110.425 382.157 110.625 382.057 110.832C381.831 110.822 381.605 110.819 381.378 110.822L380.926 110.429C380.899 110.538 380.838 110.638 380.749 110.717C380.66 110.796 380.548 110.849 380.427 110.871C380.219 110.89 380.011 110.915 379.805 110.945C379.788 110.945 379.771 110.945 379.754 110.945C378.64 110.92 377.441 110.875 376.509 111.428C376.073 111.699 375.719 112.063 375.476 112.489C375.362 112.559 375.248 112.629 375.137 112.703C374.763 112.934 374.44 113.224 374.181 113.56C373.994 113.85 373.852 114.162 373.759 114.487C373.403 115.466 373.238 116.493 373.272 117.523C373.31 118.56 373.742 119.553 374.496 120.335C374.974 120.8 375.581 121.143 376.06 121.607C377.045 122.562 377.23 123.894 378.072 124.905C378.964 125.974 380.591 126.678 382.019 126.879C382.878 126.996 383.754 126.959 384.597 126.769C385.44 126.578 386.233 126.239 386.931 125.771C387.266 125.56 387.55 125.29 387.767 124.978C388.263 124.202 388.053 123.227 388.237 122.346C388.582 120.695 390.323 119.31 390.022 117.652Z" fill="#3F3D56"/>
<path d="M365.664 180.799C365.664 180.799 368.402 189.717 364.934 191.038C361.466 192.359 362.561 181.129 362.561 181.129L365.664 180.799Z" fill="#A0616A"/>
<path opacity="0.1" d="M368.948 160.562C368.948 160.562 367.751 176.64 367.935 180.515C366.949 180.259 366.336 179.96 366.395 179.643C366.577 178.652 368.585 159.825 368.585 158.008C368.585 156.192 369.315 147.439 369.315 147.439L364.069 138.1C364.153 137.637 364.204 137.365 364.204 137.365L366.851 142.402L370.593 143.31L368.948 160.562Z" fill="black"/>
<path d="M364.934 136.374L363.656 137.365C363.656 137.365 362.014 146.118 362.196 148.265C362.379 150.412 358.363 182.946 361.466 182.946C364.569 182.946 368.037 182.45 367.49 181.294C366.942 180.138 368.401 160.562 368.401 160.562L370.045 143.31L364.934 136.374Z" fill="#575A89"/>
<path opacity="0.1" d="M398.566 138.153C397.315 141.112 394.155 146.349 393.661 147.165C393.675 145.053 393.684 143.558 393.684 143.558L397.518 136.457L398.339 135.879C398.339 135.879 398.427 136.752 398.566 138.153Z" fill="black"/>
<path opacity="0.1" d="M398.704 179.808C398.283 179.884 397.249 180.039 395.902 180.224C395.203 175.547 393.334 162.097 393.453 160.831C393.511 160.207 393.56 157.122 393.599 153.728C393.697 157.062 393.975 160.862 394.688 162.963C396.149 167.257 400.53 179.478 398.704 179.808Z" fill="black"/>
<path d="M396.421 135.091L399.159 135.751C399.159 135.751 400.984 154.083 401.167 157.22C401.349 160.358 403.54 179.68 403.175 180.506C402.81 181.332 397.151 182.488 396.968 181.662C396.786 180.836 394.132 162.204 394.272 160.703C394.413 159.202 393.5 143.678 393.5 143.678L396.421 135.091Z" fill="#575A89"/>
<path d="M223.172 145.8L256.341 120.794L289.8 103.684L322.969 87.1003L356.137 58.1451" stroke="#3F3D56" stroke-miterlimit="10"/>
<path d="M222.299 150.012C224.067 150.012 225.5 148.716 225.5 147.116C225.5 145.517 224.067 144.221 222.299 144.221C220.532 144.221 219.099 145.517 219.099 147.116C219.099 148.716 220.532 150.012 222.299 150.012Z" fill="#F2F2F2"/>
<path d="M255.468 125.005C257.235 125.005 258.668 123.709 258.668 122.11C258.668 120.511 257.235 119.214 255.468 119.214C253.7 119.214 252.267 120.511 252.267 122.11C252.267 123.709 253.7 125.005 255.468 125.005Z" fill="#F2F2F2"/>
<path d="M288.927 107.895C290.695 107.895 292.128 106.599 292.128 105C292.128 103.401 290.695 102.104 288.927 102.104C287.16 102.104 285.727 103.401 285.727 105C285.727 106.599 287.16 107.895 288.927 107.895Z" fill="#F2F2F2"/>
<path d="M322.096 91.312C323.864 91.312 325.296 90.0156 325.296 88.4165C325.296 86.8173 323.864 85.5209 322.096 85.5209C320.328 85.5209 318.895 86.8173 318.895 88.4165C318.895 90.0156 320.328 91.312 322.096 91.312Z" fill="#F2F2F2"/>
<path d="M355.265 62.3568C357.032 62.3568 358.465 61.0604 358.465 59.4613C358.465 57.8621 357.032 56.5658 355.265 56.5658C353.497 56.5658 352.064 57.8621 352.064 59.4613C352.064 61.0604 353.497 62.3568 355.265 62.3568Z" fill="#F2F2F2"/>
<path d="M223.172 148.696C224.94 148.696 226.373 147.399 226.373 145.8C226.373 144.201 224.94 142.905 223.172 142.905C221.405 142.905 219.972 144.201 219.972 145.8C219.972 147.399 221.405 148.696 223.172 148.696Z" stroke="#3F3D56" stroke-miterlimit="10"/>
<path d="M256.341 123.689C258.108 123.689 259.541 122.393 259.541 120.794C259.541 119.194 258.108 117.898 256.341 117.898C254.573 117.898 253.14 119.194 253.14 120.794C253.14 122.393 254.573 123.689 256.341 123.689Z" stroke="#3F3D56" stroke-miterlimit="10"/>
<path d="M289.8 106.579C291.568 106.579 293.001 105.283 293.001 103.684C293.001 102.085 291.568 100.788 289.8 100.788C288.033 100.788 286.6 102.085 286.6 103.684C286.6 105.283 288.033 106.579 289.8 106.579Z" stroke="#3F3D56" stroke-miterlimit="10"/>
<path d="M322.969 89.9958C324.736 89.9958 326.169 88.6995 326.169 87.1003C326.169 85.5012 324.736 84.2048 322.969 84.2048C321.201 84.2048 319.768 85.5012 319.768 87.1003C319.768 88.6995 321.201 89.9958 322.969 89.9958Z" stroke="#3F3D56" stroke-miterlimit="10"/>
<path d="M356.137 61.0407C357.905 61.0407 359.338 59.7443 359.338 58.1451C359.338 56.546 357.905 55.2496 356.137 55.2496C354.37 55.2496 352.937 56.546 352.937 58.1451C352.937 59.7443 354.37 61.0407 356.137 61.0407Z" stroke="#3F3D56" stroke-miterlimit="10"/>
</g>
<path opacity="0.2" d="M410.409 406.305C410.411 404.594 410.03 402.907 409.298 401.394C408.566 399.881 407.505 398.586 406.209 397.623C404.912 396.66 403.419 396.058 401.86 395.87C400.302 395.682 398.724 395.913 397.266 396.544C395.808 397.174 394.514 398.185 393.496 399.487C392.479 400.789 391.769 402.344 391.429 404.014C391.089 405.685 391.129 407.421 391.546 409.071C391.963 410.721 392.744 412.234 393.82 413.479V435.838C393.82 437.86 394.556 439.798 395.866 441.228C397.176 442.657 398.952 443.46 400.805 443.46C402.657 443.46 404.434 442.657 405.744 441.228C407.053 439.798 407.789 437.86 407.789 435.838V413.479C409.467 411.538 410.404 408.973 410.409 406.305V406.305Z" fill="black"/>
<path d="M459.766 223.885L451.103 224.449L452.258 135.833L466.078 135.837L459.766 223.885Z" fill="#A0616A"/>
<path d="M479.104 113.186C477.383 113.284 475.688 112.732 474.37 111.645C473.052 110.557 472.211 109.017 472.021 107.342L470.591 94.7591L478.232 92.6786L484.541 103.313C485.118 104.286 485.43 105.386 485.449 106.511C485.467 107.635 485.19 108.745 484.645 109.734C484.1 110.724 483.305 111.561 482.335 112.166C481.365 112.77 480.253 113.121 479.104 113.186Z" fill="#A0616A"/>
<path d="M441.65 63.2836C440.948 63.2844 440.274 63.5576 439.777 64.0432C439.28 64.5288 439.001 65.1871 439 65.8738V226.464C439.001 227.151 439.28 227.809 439.777 228.295C440.274 228.78 440.948 229.053 441.65 229.054H611.255C611.958 229.053 612.632 228.78 613.128 228.295C613.625 227.809 613.905 227.151 613.906 226.464V65.8738C613.905 65.1871 613.625 64.5287 613.128 64.0432C612.632 63.5576 611.958 63.2844 611.255 63.2836L441.65 63.2836Z" fill="#E6E6E6"/>
<path d="M445.641 222.563H607.264V69.7746H445.641V222.563Z" fill="white"/>
<path d="M460.036 94.1158C458.958 94.1158 458.081 95.6264 458.081 97.483C458.081 99.3396 458.958 100.85 460.036 100.85H533.75C534.829 100.85 535.706 99.3397 535.706 97.483C535.706 95.6264 534.829 94.1158 533.75 94.1158H460.036Z" fill="#E6E6E6"/>
<path d="M460.036 114.837C458.958 114.837 458.081 116.348 458.081 118.204C458.081 120.061 458.958 121.571 460.036 121.571H533.75C534.829 121.571 535.706 120.061 535.706 118.204C535.706 116.348 534.829 114.837 533.75 114.837H460.036Z" fill="#E6E6E6"/>
<path d="M460.036 135.319C458.958 135.319 458.081 136.83 458.081 138.687C458.081 140.543 458.958 142.054 460.036 142.054H533.75C534.829 142.054 535.706 140.543 535.706 138.687C535.706 136.83 534.829 135.319 533.75 135.319H460.036Z" fill="#E6E6E6"/>
<path d="M460.036 156.041C458.958 156.041 458.081 157.551 458.081 159.408C458.081 161.264 458.958 162.775 460.036 162.775H533.75C534.829 162.775 535.706 161.264 535.706 159.408C535.706 157.551 534.829 156.041 533.75 156.041H460.036Z" fill="#E6E6E6"/>
<path d="M571.445 93.9048C570.531 93.9048 569.655 94.2595 569.009 94.891C568.363 95.5225 568 96.3789 568 97.272C568 98.165 568.363 99.0214 569.009 99.6529C569.655 100.284 570.531 100.639 571.445 100.639H585.226C586.139 100.639 587.016 100.284 587.662 99.6529C588.308 99.0214 588.671 98.165 588.671 97.272C588.671 96.3789 588.308 95.5225 587.662 94.891C587.016 94.2595 586.139 93.9048 585.226 93.9048H571.445Z" fill="#36DBE2"/>
<path d="M571.096 114.657C570.182 114.657 569.306 115.012 568.66 115.643C568.014 116.275 567.651 117.131 567.651 118.024C567.651 118.917 568.014 119.774 568.66 120.405C569.306 121.037 570.182 121.391 571.096 121.391H584.876C585.79 121.391 586.666 121.037 587.312 120.405C587.958 119.774 588.321 118.917 588.321 118.024C588.321 117.131 587.958 116.275 587.312 115.643C586.666 115.012 585.79 114.657 584.876 114.657H571.096Z" fill="#E6E6E6"/>
<path d="M571.445 134.733C570.531 134.733 569.655 135.088 569.009 135.719C568.363 136.351 568 137.207 568 138.1C568 138.993 568.363 139.85 569.009 140.481C569.655 141.113 570.531 141.467 571.445 141.467H585.226C586.139 141.467 587.016 141.113 587.662 140.481C588.308 139.85 588.671 138.993 588.671 138.1C588.671 137.207 588.308 136.351 587.662 135.719C587.016 135.088 586.139 134.733 585.226 134.733H571.445Z" fill="#36DBE2"/>
<path d="M571.445 155.147C570.531 155.147 569.655 155.502 569.009 156.133C568.363 156.765 568 157.621 568 158.514C568 159.407 568.363 160.264 569.009 160.895C569.655 161.527 570.531 161.881 571.445 161.881H585.226C586.139 161.881 587.016 161.527 587.662 160.895C588.308 160.264 588.671 159.407 588.671 158.514C588.671 157.621 588.308 156.765 587.662 156.133C587.016 155.502 586.139 155.147 585.226 155.147H571.445Z" fill="#36DBE2"/>
<path d="M566.897 189.368C565.732 189.368 564.616 189.82 563.792 190.624C562.969 191.429 562.507 192.52 562.507 193.658C562.507 194.796 562.969 195.887 563.792 196.692C564.616 197.497 565.732 197.949 566.897 197.949H584.456C585.62 197.949 586.737 197.497 587.56 196.692C588.383 195.887 588.846 194.796 588.846 193.658C588.846 192.52 588.383 191.429 587.56 190.624C586.737 189.82 585.62 189.368 584.456 189.368H566.897Z" fill="#36DBE2"/>
<path d="M588.258 177.884H458.322V179.012H588.258V177.884Z" fill="#E6E6E6"/>
</g>
<defs>
<linearGradient id="paint0_linear" x1="60086.7" y1="191442" x2="68246.2" y2="142231" gradientUnits="userSpaceOnUse">
<stop stop-color="#808080" stop-opacity="0.25"/>
<stop offset="0.54" stop-color="#808080" stop-opacity="0.12"/>
<stop offset="1" stop-color="#808080" stop-opacity="0.1"/>
</linearGradient>
<linearGradient id="paint1_linear" x1="12192.1" y1="16263.9" x2="12297.2" y2="15629.6" gradientUnits="userSpaceOnUse">
<stop stop-color="#808080" stop-opacity="0.25"/>
<stop offset="0.54" stop-color="#808080" stop-opacity="0.12"/>
<stop offset="1" stop-color="#808080" stop-opacity="0.1"/>
</linearGradient>
<linearGradient id="paint2_linear" x1="173805" y1="7154.35" x2="170446" y2="-6615.86" gradientUnits="userSpaceOnUse">
<stop stop-color="#808080" stop-opacity="0.25"/>
<stop offset="0.54" stop-color="#808080" stop-opacity="0.12"/>
<stop offset="1" stop-color="#808080" stop-opacity="0.1"/>
</linearGradient>
<linearGradient id="paint3_linear" x1="9888.21" y1="9132.41" x2="9762.73" y2="8617.93" gradientUnits="userSpaceOnUse">
<stop stop-color="#808080" stop-opacity="0.25"/>
<stop offset="0.54" stop-color="#808080" stop-opacity="0.12"/>
<stop offset="1" stop-color="#808080" stop-opacity="0.1"/>
</linearGradient>
<linearGradient id="paint4_linear" x1="9093.51" y1="9017.63" x2="9093.51" y2="8216.42" gradientUnits="userSpaceOnUse">
<stop stop-color="#808080" stop-opacity="0.25"/>
<stop offset="0.54" stop-color="#808080" stop-opacity="0.12"/>
<stop offset="1" stop-color="#808080" stop-opacity="0.1"/>
</linearGradient>
<linearGradient id="paint5_linear" x1="74542.7" y1="75776.2" x2="74542.7" y2="53474.6" gradientUnits="userSpaceOnUse">
<stop stop-color="#808080" stop-opacity="0.25"/>
<stop offset="0.54" stop-color="#808080" stop-opacity="0.12"/>
<stop offset="1" stop-color="#808080" stop-opacity="0.1"/>
</linearGradient>
<linearGradient id="paint6_linear" x1="71499.8" y1="54501.5" x2="71499.8" y2="44896.8" gradientUnits="userSpaceOnUse">
<stop stop-color="#808080" stop-opacity="0.25"/>
<stop offset="0.54" stop-color="#808080" stop-opacity="0.12"/>
<stop offset="1" stop-color="#808080" stop-opacity="0.1"/>
</linearGradient>
<linearGradient id="paint7_linear" x1="14008.5" y1="36939.6" x2="14008.5" y2="33731.5" gradientUnits="userSpaceOnUse">
<stop stop-color="#808080" stop-opacity="0.25"/>
<stop offset="0.54" stop-color="#808080" stop-opacity="0.12"/>
<stop offset="1" stop-color="#808080" stop-opacity="0.1"/>
</linearGradient>
<clipPath id="clip0">
<rect width="782" height="493" fill="white"/>
</clipPath>
<clipPath id="clip1">
<rect width="260" height="193.934" fill="white" transform="translate(166 55.118)"/>
</clipPath>
</defs>
</svg>
