<svg width="826" height="427" viewBox="0 0 826 427" fill="none" xmlns="http://www.w3.org/2000/svg">
<g clip-path="url(#clip0)">
<path opacity="0.2" d="M60.951 175.474C54.9012 177.055 49.2385 180.885 47.7272 186.197C45.9987 192.303 49.9847 198.457 50.5609 204.726C52.4217 225.266 18.6537 239.757 23.471 259.933C25.3837 267.955 33.1149 273.856 40.7328 278.732C52.9365 286.517 66.4767 293.394 81.4716 295.336C104.231 298.286 128.01 289.614 150.132 295.095C167.974 299.516 181.628 312.475 199.348 317.256C212.836 320.898 227.368 319.463 241.381 317.988C248.937 317.195 256.852 316.28 262.95 312.357C274.284 305.054 274.997 290.632 282.587 280.297C294.309 264.359 320.01 261.228 341.56 264.326C363.111 267.424 384.037 275.049 405.871 274.428C410.537 274.293 415.316 273.746 419.387 271.764C424.337 269.357 427.681 265.115 430.637 260.918C449.115 234.587 459.258 204.511 460.046 173.713C460.173 168.42 459.956 162.899 457.08 158.228C453.443 152.319 446.175 148.784 438.94 146.406C421.565 140.684 402.371 139.748 385.345 133.296C368.924 127.072 355.625 116.156 341.324 106.802C312.826 88.1962 279.795 75.4669 244.748 69.5845C236.535 68.2114 228.01 67.2306 219.849 68.8162C210.446 70.643 202.342 75.7145 195.055 81.1743C175.668 95.6983 160.13 113.618 142.263 129.536C129.938 140.513 116.518 150.527 102.157 159.462C95.5455 163.586 88.518 168.482 81.1504 171.53C74.4063 174.317 68.0825 173.615 60.951 175.474Z" fill="#00B0FF"/>
<path d="M147.294 46.8559C147.294 46.8559 129.041 67.8327 142.099 92.2832C155.158 116.734 119.34 156.019 119.34 156.019" stroke="#535461" stroke-width="2" stroke-miterlimit="10"/>
<path d="M155.479 39.0054C154.029 44.4038 147.091 47.6201 147.091 47.6201C147.091 47.6201 142.51 42.0826 143.96 36.6841C145.41 31.2857 149.155 27.4279 152.348 28.0695C155.54 28.7111 156.929 33.6069 155.479 39.0054Z" fill="#8ED16F"/>
<path d="M150.819 38.0647C151.275 36.3698 151.049 34.876 150.315 34.7282C149.581 34.5803 148.616 35.8344 148.16 37.5293C147.705 39.2242 147.93 40.718 148.664 40.8658C149.399 41.0137 150.363 39.7595 150.819 38.0647Z" fill="#8ED16F"/>
<path opacity="0.3" d="M150.819 38.0647C151.275 36.3698 151.049 34.876 150.315 34.7282C149.581 34.5803 148.616 35.8344 148.16 37.5293C147.705 39.2242 147.93 40.718 148.664 40.8658C149.399 41.0137 150.363 39.7595 150.819 38.0647Z" fill="black"/>
<path d="M152.324 62.99C146.298 64.8698 139.407 61.576 139.407 61.576C139.407 61.576 142.288 55.2376 148.319 53.3618C154.35 51.486 160.126 52.1358 161.236 54.7758C162.346 57.4158 158.351 61.1101 152.324 62.99Z" fill="#8ED16F"/>
<path d="M150.631 58.8278C152.522 58.2361 153.846 57.2595 153.59 56.6463C153.334 56.0332 151.594 56.0158 149.703 56.6074C147.813 57.1991 146.488 58.1758 146.745 58.7889C147.001 59.402 148.741 59.4194 150.631 58.8278Z" fill="#8ED16F"/>
<path opacity="0.3" d="M150.631 58.8278C152.522 58.2361 153.846 57.2595 153.59 56.6463C153.334 56.0332 151.594 56.0158 149.703 56.6074C147.813 57.1991 146.488 58.1758 146.745 58.7889C147.001 59.402 148.741 59.4194 150.631 58.8278Z" fill="black"/>
<path d="M150.922 82.1033C144.895 83.9832 138.005 80.6893 138.005 80.6893C138.005 80.6893 140.886 74.3509 146.917 72.4751C152.948 70.5993 158.724 71.2491 159.833 73.8891C160.943 76.5291 156.948 80.2275 150.922 82.1033Z" fill="#8ED16F"/>
<path d="M149.299 78.23C151.191 77.6405 152.518 76.6651 152.263 76.0514C152.007 75.4377 150.266 75.4181 148.374 76.0075C146.482 76.597 145.155 77.5723 145.411 78.186C145.666 78.7997 147.407 78.8194 149.299 78.23Z" fill="#8ED16F"/>
<path opacity="0.3" d="M149.299 78.23C151.191 77.6405 152.518 76.6651 152.263 76.0514C152.007 75.4377 150.266 75.4181 148.374 76.0075C146.482 76.597 145.155 77.5723 145.411 78.186C145.666 78.7997 147.407 78.8194 149.299 78.23Z" fill="black"/>
<path d="M157.963 104.527C151.937 106.407 145.046 103.113 145.046 103.113C145.046 103.113 147.927 96.7744 153.958 94.8986C159.989 93.0228 165.765 93.6726 166.875 96.3126C167.985 98.9526 163.99 102.659 157.963 104.527Z" fill="#8ED16F"/>
<path d="M156.342 100.663C158.234 100.074 159.561 99.0986 159.305 98.4849C159.05 97.8712 157.309 97.8515 155.417 98.441C153.525 99.0304 152.198 100.006 152.453 100.619C152.709 101.233 154.449 101.253 156.342 100.663Z" fill="#8ED16F"/>
<path opacity="0.3" d="M156.342 100.663C158.234 100.074 159.561 99.0986 159.305 98.4849C159.05 97.8712 157.309 97.8515 155.417 98.441C153.525 99.0304 152.198 100.006 152.453 100.619C152.709 101.233 154.449 101.253 156.342 100.663Z" fill="black"/>
<path d="M153.382 125.034C147.356 126.913 140.465 123.62 140.465 123.62C140.465 123.62 143.346 117.281 149.377 115.405C155.408 113.53 161.184 114.179 162.294 116.819C163.404 119.459 159.413 123.158 153.382 125.034Z" fill="#8ED16F"/>
<path d="M151.773 120.822C153.664 120.23 154.988 119.254 154.732 118.64C154.476 118.027 152.736 118.01 150.845 118.601C148.955 119.193 147.63 120.17 147.886 120.783C148.143 121.396 149.883 121.413 151.773 120.822Z" fill="#8ED16F"/>
<path opacity="0.3" d="M151.773 120.822C153.664 120.23 154.988 119.254 154.732 118.64C154.476 118.027 152.736 118.01 150.845 118.601C148.955 119.193 147.63 120.17 147.886 120.783C148.143 121.396 149.883 121.413 151.773 120.822Z" fill="black"/>
<path d="M125.116 68.4212C129.565 72.4097 137.429 72.0991 137.429 72.0991C137.429 72.0991 138.076 65.3112 133.627 61.3226C129.178 57.334 123.666 55.6912 121.314 57.6446C118.962 59.5981 120.667 64.4326 125.116 68.4212Z" fill="#8ED16F"/>
<path d="M132.07 67.0057C132.612 66.5527 131.919 65.1705 130.523 63.9185C129.126 62.6665 127.554 62.0189 127.012 62.4719C126.469 62.9249 127.162 64.3071 128.559 65.5591C129.955 66.811 131.527 67.4587 132.07 67.0057Z" fill="#8ED16F"/>
<path opacity="0.3" d="M132.07 67.0057C132.612 66.5527 131.919 65.1705 130.523 63.9185C129.126 62.6665 127.554 62.0189 127.012 62.4719C126.469 62.9249 127.162 64.3071 128.559 65.5591C129.955 66.811 131.527 67.4587 132.07 67.0057Z" fill="black"/>
<path d="M122.561 131.76C127.01 135.749 134.873 135.438 134.873 135.438C134.873 135.438 135.521 128.65 131.072 124.662C126.623 120.673 121.111 119.03 118.759 120.984C116.407 122.937 118.112 127.772 122.561 131.76Z" fill="#8ED16F"/>
<path d="M129.508 130.35C130.05 129.897 129.358 128.515 127.961 127.263C126.564 126.011 124.993 125.364 124.45 125.817C123.908 126.27 124.6 127.652 125.997 128.904C127.394 130.156 128.966 130.803 129.508 130.35Z" fill="#8ED16F"/>
<path opacity="0.3" d="M129.508 130.35C130.05 129.897 129.358 128.515 127.961 127.263C126.564 126.011 124.993 125.364 124.45 125.817C123.908 126.27 124.6 127.652 125.997 128.904C127.394 130.156 128.966 130.803 129.508 130.35Z" fill="black"/>
<path d="M128.46 90.8079C134.193 93.2844 141.481 90.7098 141.481 90.7098C141.481 90.7098 139.474 84.1262 133.745 81.6497C128.016 79.1731 122.183 79.1977 120.724 81.7477C119.265 84.2978 122.726 88.3313 128.46 90.8079Z" fill="#8ED16F"/>
<path d="M134.453 87.4542C134.789 86.8706 133.603 85.7676 131.804 84.9906C130.005 84.2136 128.273 84.0569 127.936 84.6405C127.6 85.2241 128.786 86.3271 130.585 87.1041C132.385 87.8811 134.116 88.0379 134.453 87.4542Z" fill="#8ED16F"/>
<path opacity="0.3" d="M134.453 87.4542C134.789 86.8706 133.603 85.7676 131.804 84.9906C130.005 84.2136 128.273 84.0569 127.936 84.6405C127.6 85.2241 128.786 86.3271 130.585 87.1041C132.385 87.8811 134.116 88.0379 134.453 87.4542Z" fill="black"/>
<path d="M130.864 113.109C136.597 115.585 143.885 113.011 143.885 113.011C143.885 113.011 141.877 106.427 136.149 103.951C130.42 101.474 124.587 101.499 123.128 104.049C121.669 106.599 125.154 110.657 130.864 113.109Z" fill="#8ED16F"/>
<path d="M136.859 109.758C137.195 109.174 136.009 108.071 134.21 107.294C132.41 106.517 130.679 106.361 130.342 106.944C130.006 107.528 131.192 108.631 132.991 109.408C134.79 110.185 136.522 110.342 136.859 109.758Z" fill="#8ED16F"/>
<path opacity="0.3" d="M136.859 109.758C137.195 109.174 136.009 108.071 134.21 107.294C132.41 106.517 130.679 106.361 130.342 106.944C130.006 107.528 131.192 108.631 132.991 109.408C134.79 110.185 136.522 110.342 136.859 109.758Z" fill="black"/>
<path d="M59.3797 91.944C59.3797 91.944 92.7179 120.792 73.8975 163.599C55.0772 206.407 106.159 277.593 106.159 277.593C106.159 277.593 105.611 277.523 104.596 277.368C36.1152 266.91 2.1111 199.145 40.1768 148.806C54.3121 130.089 65.9538 108.135 59.3797 91.944Z" fill="#8ED16F"/>
<path d="M30.9074 229.673C30.9074 229.673 68.9495 224.43 72.416 253.932C75.8825 283.433 145.567 287.524 145.567 287.524C145.567 287.524 145.095 287.794 144.259 288.276C86.7213 320.969 31.7197 309.094 40.0082 265.697C43.0969 249.559 42.8419 233.356 30.9074 229.673Z" fill="#8ED16F"/>
<g opacity="0.3">
<path opacity="0.3" d="M30.9074 229.673C30.9074 229.673 68.9495 224.43 72.416 253.932C75.8825 283.433 145.567 287.524 145.567 287.524C145.567 287.524 145.095 287.794 144.259 288.276C86.7213 320.969 31.7197 309.094 40.0082 265.697C43.0969 249.559 42.8419 233.356 30.9074 229.673Z" fill="white"/>
</g>
<path d="M49.7499 208.258C55.5273 208.258 60.2109 197.685 60.2109 184.642C60.2109 171.598 55.5273 161.025 49.7499 161.025C43.9724 161.025 39.2889 171.598 39.2889 184.642C39.2889 197.685 43.9724 208.258 49.7499 208.258Z" fill="#8ED16F"/>
<path opacity="0.3" d="M49.7499 208.258C55.5273 208.258 60.2109 197.685 60.2109 184.642C60.2109 171.598 55.5273 161.025 49.7499 161.025C43.9724 161.025 39.2889 171.598 39.2889 184.642C39.2889 197.685 43.9724 208.258 49.7499 208.258Z" fill="black"/>
<path d="M48.7941 270.413C51.5477 268.03 48.8116 261.8 42.6827 256.496C36.5539 251.193 29.3532 248.825 26.5996 251.208C23.846 253.591 26.5821 259.822 32.7109 265.125C38.8398 270.428 46.0404 272.796 48.7941 270.413Z" fill="#8ED16F"/>
<path opacity="0.3" d="M48.7941 270.413C51.5477 268.03 48.8116 261.8 42.6827 256.496C36.5539 251.193 29.3532 248.825 26.5996 251.208C23.846 253.591 26.5821 259.822 32.7109 265.125C38.8398 270.428 46.0404 272.796 48.7941 270.413Z" fill="black"/>
<path d="M341.878 136.484H94.2433C91.2509 136.484 88.3811 137.513 86.2652 139.344C84.1493 141.175 82.9606 143.658 82.9606 146.247V271.843C82.9606 274.432 84.1493 276.915 86.2652 278.746C88.3811 280.577 91.2509 281.606 94.2433 281.606H341.878C344.871 281.606 347.74 280.577 349.856 278.746C351.972 276.915 353.161 274.432 353.161 271.843V146.247C353.161 143.658 351.972 141.175 349.856 139.344C347.74 137.513 344.871 136.484 341.878 136.484Z" fill="url(#paint0_linear)"/>
<path d="M338.261 138.193H97.8563C91.385 138.193 86.139 142.732 86.139 148.332V269.759C86.139 275.358 91.385 279.898 97.8563 279.898H338.261C344.732 279.898 349.978 275.358 349.978 269.759V148.332C349.978 142.732 344.732 138.193 338.261 138.193Z" fill="#00B0FF"/>
<path d="M349.978 162.991H86.139V188.969H349.978V162.991Z" fill="#00B0FF"/>
<path opacity="0.3" d="M349.978 162.991H86.139V188.969H349.978V162.991Z" fill="black"/>
<path d="M325 205H111V221H325V205Z" fill="#D6D6E3"/>
<path d="M128.899 270.453C140.457 270.453 149.826 262.346 149.826 252.345C149.826 242.345 140.457 234.237 128.899 234.237C117.342 234.237 107.972 242.345 107.972 252.345C107.972 262.346 117.342 270.453 128.899 270.453Z" fill="#00B0FF"/>
<path opacity="0.3" d="M128.899 270.453C140.457 270.453 149.826 262.346 149.826 252.345C149.826 242.345 140.457 234.237 128.899 234.237C117.342 234.237 107.972 242.345 107.972 252.345C107.972 262.346 117.342 270.453 128.899 270.453Z" fill="black"/>
<path opacity="0.1" d="M389.389 94.1467L408.805 92.7776C407.807 95.3605 407.128 98.0277 406.779 100.734C404.522 102.76 401.436 103.937 398.185 104.014C394.935 104.09 391.78 103.059 389.399 101.143C389.894 98.8303 389.891 96.4584 389.389 94.1467Z" fill="black"/>
<path opacity="0.1" d="M424.499 129.415C424.499 129.415 418.402 115.736 413.66 115.348C408.918 114.96 422.69 115.348 422.69 115.348L427.205 122.381L424.499 129.415Z" fill="black"/>
<path opacity="0.4" d="M364.892 297.335C369.615 298.312 386.57 296.163 388.147 293.817V294.401C386.565 296.747 369.634 298.896 364.892 297.92C362.956 297.511 362.337 296.694 362.531 295.799C362.682 296.461 363.391 297.008 364.892 297.335Z" fill="white"/>
<path d="M336.22 101.327H360.377V100.886H336.22V101.327Z" fill="#8ED16F"/>
<path d="M336.22 101.768H360.377V101.327H336.22V101.768Z" fill="#8ED16F"/>
<path opacity="0.1" d="M336.22 101.768H360.377V101.327H336.22V101.768Z" fill="black"/>
<path d="M336.22 102.21H360.377V101.768H336.22V102.21Z" fill="#8ED16F"/>
<path d="M336.22 102.647H360.377V102.206H336.22V102.647Z" fill="#8ED16F"/>
<path opacity="0.1" d="M336.22 102.647H360.377V102.206H336.22V102.647Z" fill="black"/>
<path d="M336.22 103.088H360.377V102.647H336.22V103.088Z" fill="#8ED16F"/>
<path d="M336.22 103.526H360.377V103.084H336.22V103.526Z" fill="#8ED16F"/>
<path opacity="0.1" d="M336.22 103.526H360.377V103.084H336.22V103.526Z" fill="black"/>
<path d="M336.22 103.967H360.377V103.526H336.22V103.967Z" fill="#8ED16F"/>
<path d="M336.22 104.404H360.377V103.963H336.22V104.404Z" fill="#8ED16F"/>
<path opacity="0.1" d="M336.22 104.404H360.377V103.963H336.22V104.404Z" fill="black"/>
<path d="M336.22 97.8124H360.377V97.371H336.22V97.8124Z" fill="#8ED16F"/>
<path d="M353.307 87.363L371.88 100.729L372.206 100.39L353.633 87.0237L353.307 87.363Z" fill="#8ED16F"/>
<path d="M336.374 80.3307L354.947 93.697L355.273 93.3577L336.7 79.9914L336.374 80.3307Z" fill="#8ED16F"/>
<path d="M336.22 98.2497H360.377V97.8083H336.22V98.2497Z" fill="#8ED16F"/>
<path opacity="0.1" d="M336.22 98.2497H360.377V97.8083H336.22V98.2497Z" fill="black"/>
<path d="M336.22 98.6951H360.377V98.2538H336.22V98.6951Z" fill="#8ED16F"/>
<path d="M336.22 99.1324H360.377V98.691H336.22V99.1324Z" fill="#8ED16F"/>
<path opacity="0.1" d="M336.22 99.1324H360.377V98.691H336.22V99.1324Z" fill="black"/>
<path d="M336.22 99.5697H360.377V99.1283H336.22V99.5697Z" fill="#8ED16F"/>
<path d="M336.22 100.011H360.377V99.5697H336.22V100.011Z" fill="#8ED16F"/>
<path opacity="0.1" d="M336.22 100.011H360.377V99.5697H336.22V100.011Z" fill="black"/>
<path d="M336.22 100.448H360.377V100.007H336.22V100.448Z" fill="#8ED16F"/>
<path d="M336.22 100.89H360.377V100.448H336.22V100.89Z" fill="#8ED16F"/>
<path opacity="0.1" d="M336.22 100.89H360.377V100.448H336.22V100.89Z" fill="black"/>
<path d="M333.158 118.026L341.814 119.417L344.946 104.82L336.291 103.429L333.158 118.026Z" fill="#8ED16F"/>
<path d="M340.947 111.754C341.311 110.057 340.812 108.553 339.832 108.396C338.853 108.238 337.763 109.487 337.399 111.184C337.035 112.882 337.533 114.386 338.513 114.543C339.493 114.701 340.582 113.452 340.947 111.754Z" fill="#8ED16F"/>
<path opacity="0.1" d="M340.947 111.754C341.311 110.057 340.812 108.553 339.832 108.396C338.853 108.238 337.763 109.487 337.399 111.184C337.035 112.882 337.533 114.386 338.513 114.543C339.493 114.701 340.582 113.452 340.947 111.754Z" fill="black"/>
<path d="M334.639 148.837L343.295 150.228L346.427 135.631L337.772 134.24L334.639 148.837Z" fill="#8ED16F"/>
<path d="M342.423 142.562C342.787 140.864 342.288 139.361 341.309 139.203C340.329 139.046 339.24 140.294 338.875 141.992C338.511 143.689 339.01 145.193 339.99 145.351C340.969 145.508 342.059 144.26 342.423 142.562Z" fill="#8ED16F"/>
<path opacity="0.1" d="M342.423 142.562C342.787 140.864 342.288 139.361 341.309 139.203C340.329 139.046 339.24 140.294 338.875 141.992C338.511 143.689 339.01 145.193 339.99 145.351C340.969 145.508 342.059 144.26 342.423 142.562Z" fill="black"/>
<path d="M303.334 73.1047L299.144 79.8042L314.234 86.8703L318.424 80.1708L303.334 73.1047Z" fill="#8ED16F"/>
<path d="M313.433 81.7755C313.911 81.0168 312.875 79.7299 311.119 78.9011C309.364 78.0724 307.552 78.0156 307.074 78.7743C306.596 79.533 307.632 80.8199 309.388 81.6487C311.143 82.4774 312.955 82.5342 313.433 81.7755Z" fill="#8ED16F"/>
<path opacity="0.1" d="M313.433 81.7755C313.911 81.0168 312.875 79.7299 311.119 78.9011C309.364 78.0724 307.552 78.0156 307.074 78.7743C306.596 79.533 307.632 80.8199 309.388 81.6487C311.143 82.4774 312.955 82.5342 313.433 81.7755Z" fill="black"/>
<path d="M270.2 205.318L266.01 212.017L281.1 219.083L285.29 212.384L270.2 205.318Z" fill="#8ED16F"/>
<path d="M278.779 213.778C279.253 213.02 278.215 211.739 276.46 210.917C274.705 210.095 272.898 210.044 272.424 210.802C271.95 211.561 272.988 212.841 274.743 213.663C276.498 214.485 278.305 214.536 278.779 213.778Z" fill="#8ED16F"/>
<path opacity="0.1" d="M278.779 213.778C279.253 213.02 278.215 211.739 276.46 210.917C274.705 210.095 272.898 210.044 272.424 210.802C271.95 211.561 272.988 212.841 274.743 213.663C276.498 214.485 278.305 214.536 278.779 213.778Z" fill="black"/>
<path d="M249.927 96.2111L245.738 102.911L260.828 109.977L265.018 103.277L249.927 96.2111Z" fill="#8ED16F"/>
<path d="M258.502 104.665C258.976 103.907 257.938 102.626 256.183 101.804C254.428 100.983 252.621 100.931 252.147 101.69C251.673 102.448 252.711 103.729 254.466 104.55C256.221 105.372 258.028 105.424 258.502 104.665Z" fill="#8ED16F"/>
<path opacity="0.1" d="M258.502 104.665C258.976 103.907 257.938 102.626 256.183 101.804C254.428 100.983 252.621 100.931 252.147 101.69C251.673 102.448 252.711 103.729 254.466 104.55C256.221 105.372 258.028 105.424 258.502 104.665Z" fill="black"/>
<path d="M275.336 73.103L271.146 79.8024L286.236 86.8685L290.426 80.169L275.336 73.103Z" fill="#8ED16F"/>
<path d="M283.91 81.5572C284.385 80.7989 283.346 79.518 281.591 78.6963C279.837 77.8745 278.03 77.8231 277.555 78.5813C277.081 79.3396 278.119 80.6205 279.874 81.4422C281.629 82.264 283.436 82.3154 283.91 81.5572Z" fill="#8ED16F"/>
<path opacity="0.1" d="M283.91 81.5572C284.385 80.7989 283.346 79.518 281.591 78.6963C279.837 77.8745 278.03 77.8231 277.555 78.5813C277.081 79.3396 278.119 80.6205 279.874 81.4422C281.629 82.264 283.436 82.3154 283.91 81.5572Z" fill="black"/>
<path d="M300.703 100.369L291.952 101.197L293.817 115.956L302.568 115.128L300.703 100.369Z" fill="#8ED16F"/>
<path d="M297.537 111.283C298.528 111.189 299.155 109.722 298.938 108.005C298.721 106.289 297.742 104.974 296.752 105.067C295.761 105.161 295.134 106.628 295.351 108.345C295.568 110.061 296.547 111.377 297.537 111.283Z" fill="#8ED16F"/>
<g opacity="0.1" filter="url(#filter0_d)">
<path d="M297.579 111.385C298.569 111.292 299.196 109.824 298.98 108.108C298.763 106.391 297.784 105.076 296.793 105.17C295.803 105.263 295.176 106.731 295.393 108.447C295.61 110.164 296.588 111.479 297.579 111.385Z" fill="black"/>
<path d="M298.482 108.155C298.581 108.942 298.483 109.648 298.269 110.149C298.049 110.663 297.757 110.866 297.516 110.889C297.275 110.912 296.939 110.768 296.596 110.307C296.262 109.858 295.99 109.187 295.89 108.4C295.791 107.613 295.889 106.907 296.103 106.406C296.323 105.892 296.615 105.689 296.856 105.666C297.097 105.643 297.433 105.787 297.776 106.248C298.11 106.697 298.382 107.368 298.482 108.155Z" stroke="black"/>
</g>
<path d="M360.702 181.186L351.951 182.014L353.816 196.773L362.567 195.945L360.702 181.186Z" fill="#8ED16F"/>
<path d="M357.54 192.1C358.531 192.006 359.158 190.539 358.941 188.822C358.724 187.106 357.745 185.791 356.755 185.884C355.764 185.978 355.137 187.445 355.354 189.162C355.571 190.878 356.55 192.193 357.54 192.1Z" fill="#8ED16F"/>
<path opacity="0.1" d="M357.54 192.1C358.531 192.006 359.158 190.539 358.941 188.822C358.724 187.106 357.745 185.791 356.755 185.884C355.764 185.978 355.137 187.445 355.354 189.162C355.571 190.878 356.55 192.193 357.54 192.1Z" fill="black"/>
<path d="M266.436 131.721L262.246 138.42L277.337 145.486L281.526 138.787L266.436 131.721Z" fill="#8ED16F"/>
<path d="M275.008 140.181C275.482 139.422 274.444 138.141 272.689 137.32C270.934 136.498 269.127 136.446 268.653 137.205C268.179 137.963 269.217 139.244 270.972 140.066C272.727 140.887 274.534 140.939 275.008 140.181Z" fill="#8ED16F"/>
<path opacity="0.1" d="M275.214 140.349C275.688 139.59 274.65 138.31 272.895 137.488C271.14 136.666 269.333 136.615 268.859 137.373C268.384 138.131 269.423 139.412 271.178 140.234C272.932 141.056 274.739 141.107 275.214 140.349Z" fill="black"/>
<path d="M228.357 122.31L224.167 129.01L239.257 136.076L243.447 129.376L228.357 122.31Z" fill="#8ED16F"/>
<path d="M238.185 131.215C238.663 130.456 237.627 129.169 235.872 128.34C234.116 127.511 232.304 127.455 231.826 128.213C231.348 128.972 232.384 130.259 234.14 131.088C235.896 131.917 237.707 131.973 238.185 131.215Z" fill="#8ED16F"/>
<path opacity="0.1" d="M238.185 131.215C238.663 130.456 237.627 129.169 235.872 128.34C234.116 127.511 232.304 127.455 231.826 128.213C231.348 128.972 232.384 130.259 234.14 131.088C235.896 131.917 237.707 131.973 238.185 131.215Z" fill="black"/>
<path d="M216.161 280.753L211.971 287.452L227.061 294.518L231.251 287.819L216.161 280.753Z" fill="#8ED16F"/>
<path d="M224.735 289.209C225.21 288.45 224.171 287.17 222.416 286.348C220.662 285.526 218.854 285.475 218.38 286.233C217.906 286.991 218.944 288.272 220.699 289.094C222.454 289.916 224.261 289.967 224.735 289.209Z" fill="#8ED16F"/>
<path opacity="0.1" d="M224.735 289.209C225.21 288.45 224.171 287.17 222.416 286.348C220.662 285.526 218.854 285.475 218.38 286.233C217.906 286.991 218.944 288.272 220.699 289.094C222.454 289.916 224.261 289.967 224.735 289.209Z" fill="black"/>
<path d="M205.182 283.335L203.576 290.825L220.446 293.533L222.052 286.043L205.182 283.335Z" fill="#8ED16F"/>
<path opacity="0.05" d="M205.182 283.335L203.576 290.825L220.446 293.533L222.052 286.043L205.182 283.335Z" fill="black"/>
<path d="M216.349 289.099C216.531 288.251 215.088 287.309 213.126 286.994C211.164 286.679 209.427 287.111 209.245 287.958C209.063 288.806 210.506 289.749 212.468 290.064C214.43 290.379 216.168 289.947 216.349 289.099Z" fill="#8ED16F"/>
<path opacity="0.1" d="M216.349 289.099C216.531 288.251 215.088 287.309 213.126 286.994C211.164 286.679 209.427 287.111 209.245 287.958C209.063 288.806 210.506 289.749 212.468 290.064C214.43 290.379 216.168 289.947 216.349 289.099Z" fill="black"/>
<path d="M206.763 287.826L205.157 295.316L222.027 298.024L223.633 290.535L206.763 287.826Z" fill="#8ED16F"/>
<path d="M217.925 293.591C218.107 292.743 216.664 291.8 214.702 291.485C212.74 291.17 211.002 291.602 210.821 292.45C210.639 293.298 212.082 294.24 214.044 294.555C216.006 294.87 217.744 294.438 217.925 293.591Z" fill="#8ED16F"/>
<path opacity="0.1" d="M217.925 293.591C218.107 292.743 216.664 291.8 214.702 291.485C212.74 291.17 211.002 291.602 210.821 292.45C210.639 293.298 212.082 294.24 214.044 294.555C216.006 294.87 217.744 294.438 217.925 293.591Z" fill="black"/>
<path d="M233.961 300.008L229.771 306.708L244.861 313.774L249.051 307.074L233.961 300.008Z" fill="#8ED16F"/>
<path d="M242.54 308.464C243.014 307.706 241.976 306.425 240.221 305.603C238.466 304.782 236.659 304.73 236.185 305.489C235.711 306.247 236.749 307.528 238.504 308.349C240.259 309.171 242.066 309.223 242.54 308.464Z" fill="#8ED16F"/>
<path opacity="0.1" d="M242.54 308.464C243.014 307.706 241.976 306.425 240.221 305.603C238.466 304.782 236.659 304.73 236.185 305.489C235.711 306.247 236.749 307.528 238.504 308.349C240.259 309.171 242.066 309.223 242.54 308.464Z" fill="black"/>
<path d="M222.985 302.585L221.38 310.075L238.25 312.783L239.855 305.293L222.985 302.585Z" fill="#8ED16F"/>
<path opacity="0.05" d="M222.985 302.585L221.38 310.075L238.25 312.783L239.855 305.293L222.985 302.585Z" fill="black"/>
<path d="M234.148 308.349C234.33 307.502 232.887 306.559 230.925 306.244C228.963 305.929 227.225 306.361 227.043 307.209C226.862 308.057 228.305 308.999 230.267 309.314C232.228 309.629 233.966 309.197 234.148 308.349Z" fill="#8ED16F"/>
<path opacity="0.1" d="M234.148 308.349C234.33 307.502 232.887 306.559 230.925 306.244C228.963 305.929 227.225 306.361 227.043 307.209C226.862 308.057 228.305 308.999 230.267 309.314C232.228 309.629 233.966 309.197 234.148 308.349Z" fill="black"/>
<path d="M224.565 307.082L222.959 314.571L239.829 317.28L241.435 309.79L224.565 307.082Z" fill="#8ED16F"/>
<path d="M235.732 312.846C235.914 311.998 234.471 311.056 232.509 310.741C230.547 310.426 228.809 310.858 228.628 311.705C228.446 312.553 229.889 313.495 231.851 313.81C233.813 314.125 235.551 313.693 235.732 312.846Z" fill="#8ED16F"/>
<path opacity="0.1" d="M235.732 312.846C235.914 311.998 234.471 311.056 232.509 310.741C230.547 310.426 228.809 310.858 228.628 311.705C228.446 312.553 229.889 313.495 231.851 313.81C233.813 314.125 235.551 313.693 235.732 312.846Z" fill="black"/>
<path d="M260.19 288L256 294.699L271.09 301.766L275.28 295.066L260.19 288Z" fill="#8ED16F"/>
<path d="M269.237 296.053C269.712 295.295 268.673 294.014 266.919 293.192C265.164 292.371 263.357 292.319 262.882 293.077C262.408 293.836 263.446 295.116 265.201 295.938C266.956 296.76 268.763 296.811 269.237 296.053Z" fill="#8ED16F"/>
<path opacity="0.1" d="M269.237 296.053C269.712 295.295 268.673 294.014 266.919 293.192C265.164 292.371 263.357 292.319 262.882 293.077C262.408 293.836 263.446 295.116 265.201 295.938C266.956 296.76 268.763 296.811 269.237 296.053Z" fill="black"/>
<path d="M249.689 290.178L248.083 297.668L264.954 300.376L266.559 292.887L249.689 290.178Z" fill="#8ED16F"/>
<path opacity="0.05" d="M249.689 290.178L248.083 297.668L264.954 300.376L266.559 292.887L249.689 290.178Z" fill="black"/>
<path d="M260.852 295.943C261.034 295.095 259.591 294.152 257.629 293.837C255.667 293.522 253.929 293.954 253.747 294.802C253.566 295.65 255.009 296.592 256.971 296.907C258.932 297.222 260.67 296.79 260.852 295.943Z" fill="#8ED16F"/>
<path opacity="0.1" d="M260.852 295.943C261.034 295.095 259.591 294.152 257.629 293.837C255.667 293.522 253.929 293.954 253.747 294.802C253.566 295.65 255.009 296.592 256.971 296.907C258.932 297.222 260.67 296.79 260.852 295.943Z" fill="black"/>
<path d="M251.269 294.674L249.663 302.164L266.533 304.872L268.139 297.382L251.269 294.674Z" fill="#8ED16F"/>
<path d="M262.436 300.439C262.618 299.591 261.175 298.649 259.213 298.334C257.251 298.019 255.513 298.451 255.332 299.298C255.15 300.146 256.593 301.089 258.555 301.404C260.517 301.719 262.254 301.287 262.436 300.439Z" fill="#8ED16F"/>
<path opacity="0.1" d="M262.436 300.439C262.618 299.591 261.175 298.649 259.213 298.334C257.251 298.019 255.513 298.451 255.332 299.298C255.15 300.146 256.593 301.089 258.555 301.404C260.517 301.719 262.254 301.287 262.436 300.439Z" fill="black"/>
</g>
<path d="M578.5 427C715.19 427 826 422.523 826 417C826 411.477 715.19 407 578.5 407C441.81 407 331 411.477 331 417C331 422.523 441.81 427 578.5 427Z" fill="#E6E6E6"/>
<path d="M484.5 78.9955C484.5 78.9955 510.538 72.9955 524.859 83.9955C539.18 94.9955 506.632 119.995 506.632 119.995L484.5 78.9955Z" fill="#2F2E41"/>
<path d="M457.573 222.479C458.095 221.104 458.309 219.632 458.2 218.166C458.091 216.7 457.662 215.276 456.943 213.993C456.224 212.711 455.233 211.602 454.039 210.744C452.845 209.886 451.478 209.301 450.033 209.028L444.771 173.683L430.943 186.078L438.06 217.742C437.764 220.199 438.379 222.68 439.789 224.714C441.2 226.748 443.307 228.193 445.713 228.777C448.118 229.361 450.654 229.042 452.84 227.882C455.026 226.721 456.71 224.798 457.573 222.479Z" fill="#FFB8B8"/>
<path d="M512.078 405.968L499.845 405.156L497.155 357.586L515.209 358.784L512.078 405.968Z" fill="#FFB8B8"/>
<path d="M490.837 401.354H514.48V416.241H475.95C475.95 414.286 476.335 412.351 477.083 410.544C477.831 408.738 478.928 407.097 480.31 405.715C481.692 404.332 483.333 403.236 485.14 402.488C486.946 401.74 488.882 401.354 490.837 401.354Z" fill="#2F2E41"/>
<path d="M490.937 389.033L479.436 393.279L457.587 350.937L474.562 344.671L490.937 389.033Z" fill="#FFB8B8"/>
<path d="M470.007 393.025L492.188 384.837L497.343 398.803L461.197 412.146C460.52 410.312 460.211 408.362 460.287 406.409C460.363 404.455 460.824 402.536 461.642 400.76C462.46 398.985 463.62 397.388 465.055 396.061C466.491 394.733 468.173 393.702 470.007 393.025Z" fill="#2F2E41"/>
<path d="M457.495 206.283C457.495 206.283 445.107 212.954 448.918 239.637L452.73 340.652L473.79 386.701L491.896 381.936L480.366 344.463L495.614 278.709L497.614 398.137L514.767 400.996L539.451 202.471L508.003 188.176L457.495 206.283Z" fill="#2F2E41"/>
<path d="M501.776 67.6589C515.34 67.6589 526.337 56.6625 526.337 43.0979C526.337 29.5332 515.34 18.5368 501.776 18.5368C488.211 18.5368 477.215 29.5332 477.215 43.0979C477.215 56.6625 488.211 67.6589 501.776 67.6589Z" fill="#FFB8B8"/>
<path d="M458.415 209.22C456.751 209.325 455.082 209.131 453.486 208.649L453.137 208.498L453.189 208.12C453.255 207.636 459.799 159.523 456.072 149.276C452.871 140.472 446.288 110.75 444.348 101.85C444.122 100.834 444.231 99.7728 444.658 98.8242C445.086 97.8757 445.808 97.0909 446.719 96.5871L482.258 76.6691C483.718 75.8466 485.44 75.6214 487.063 76.0406C488.685 76.4598 490.083 77.4908 490.962 78.9176L499.995 93.509L514.096 79.4084C515.175 78.326 516.602 77.6595 518.125 77.5261C519.648 77.3927 521.169 77.8012 522.42 78.6794L552.146 99.4875C553.43 100.378 554.373 101.679 554.819 103.177C555.264 104.675 555.185 106.281 554.596 107.728C548.924 121.752 536.144 159.051 539.948 202.427L540.01 203.133L539.325 202.955C539.068 202.888 513.41 196.408 487.175 203.905C471.91 208.266 463.153 209.22 458.415 209.22Z" fill="#6C63FF"/>
<path d="M447.944 97.1388C446.896 96.9891 445.83 97.2262 444.944 97.8057C444.058 98.3853 443.414 99.2676 443.132 100.288L427 158.54L430.812 193.8L448.918 190.941L447.012 166.164L460.354 134.716L451.547 100.368C451.333 99.5341 450.877 98.782 450.235 98.2072C449.594 97.6324 448.797 97.2606 447.944 97.1388Z" fill="#CCCCCC"/>
<path d="M520.768 8.62006C519.13 5.84011 516.756 3.56688 513.908 2.05136C511.059 0.535836 507.847 -0.163006 504.627 0.0320121C501.258 0.454482 497.97 1.37469 494.872 2.76257L478.816 9.02576C474.661 10.6464 470.111 12.6316 468.308 16.7106C466.635 20.4964 467.883 24.8686 469.147 28.8101L475.154 47.5457C475.819 43.3053 476.961 39.1536 478.558 35.1694C480.303 31.2521 483.063 27.6401 486.878 25.6827C491.049 23.5432 495.965 23.5875 500.647 23.8128C507.277 24.1319 514.487 24.9755 519.198 29.6525C521.699 32.3085 523.395 35.62 524.088 39.2018C524.77 42.7644 525.113 46.3836 525.113 50.011C527.832 45.337 530.123 40.4265 531.956 35.3395C533.465 31.5517 534.325 27.5369 534.499 23.4635C534.657 19.3553 533.294 15.3332 530.671 12.1673C527.958 9.13566 523.538 7.49893 519.651 8.69916" fill="#2F2E41"/>
<path d="M534.427 236.479C533.906 235.104 533.692 233.632 533.801 232.166C533.909 230.7 534.338 229.276 535.057 227.993C535.776 226.711 536.767 225.602 537.961 224.744C539.155 223.886 540.522 223.301 541.967 223.028L547.229 187.683L561.057 200.078L553.94 231.742C554.237 234.199 553.621 236.68 552.211 238.714C550.8 240.748 548.693 242.193 546.288 242.777C543.882 243.361 541.347 243.042 539.161 241.882C536.975 240.721 535.291 238.798 534.427 236.479H534.427Z" fill="#FFB8B8"/>
<path d="M551.511 99.5603C552.954 99.8009 554.272 100.528 555.245 101.62C556.218 102.712 556.789 104.105 556.862 105.566L562.322 214.765H542.309L535.639 156.634L544.128 104.849C544.265 104.016 544.564 103.219 545.009 102.502C545.454 101.786 546.036 101.164 546.722 100.673C547.408 100.181 548.184 99.8302 549.006 99.6393C549.828 99.4485 550.679 99.4216 551.511 99.5603Z" fill="#CCCCCC"/>
<path d="M592.852 416.199C595.346 389.346 602.232 363.085 613.237 338.464C616.304 331.613 619.68 324.912 623.365 318.362C624.311 316.676 621.721 315.162 620.774 316.848C607.375 340.704 597.988 366.601 592.988 393.503C591.597 401.015 590.552 408.581 589.852 416.199C589.675 418.121 592.676 418.109 592.852 416.199H592.852Z" fill="#E6E6E6"/>
<path d="M630.63 323.173C641.124 323.173 649.63 314.666 649.63 304.173C649.63 293.68 641.124 285.173 630.63 285.173C620.137 285.173 611.63 293.68 611.63 304.173C611.63 314.666 620.137 323.173 630.63 323.173Z" fill="#F80514"/>
<path d="M594.796 416.704C596.413 399.283 600.881 382.246 608.02 366.274C610.01 361.829 612.2 357.481 614.591 353.232C614.71 353.01 614.739 352.75 614.671 352.507C614.603 352.263 614.443 352.056 614.225 351.929C614.007 351.802 613.748 351.764 613.503 351.824C613.257 351.883 613.045 352.036 612.91 352.25C604.217 367.727 598.127 384.527 594.884 401.98C593.982 406.853 593.304 411.761 592.85 416.704C592.734 417.95 594.681 417.943 594.796 416.704Z" fill="#E6E6E6"/>
<path d="M619.304 356.353C626.112 356.353 631.63 350.835 631.63 344.027C631.63 337.22 626.112 331.701 619.304 331.701C612.497 331.701 606.978 337.22 606.978 344.027C606.978 350.835 612.497 356.353 619.304 356.353Z" fill="#6C63FF"/>
<path d="M592.339 415.54C582.9 400.809 575.944 384.628 571.749 367.643C570.584 362.914 569.637 358.14 568.908 353.319C568.866 353.07 568.729 352.847 568.525 352.698C568.322 352.548 568.069 352.483 567.818 352.517C567.568 352.55 567.341 352.68 567.184 352.878C567.027 353.076 566.954 353.327 566.979 353.578C569.644 371.128 575.176 388.121 583.353 403.876C585.639 408.274 588.123 412.561 590.805 416.737C591.481 417.791 593.011 416.588 592.339 415.54V415.54Z" fill="#E6E6E6"/>
<path d="M566.963 355.488C573.771 355.488 579.29 349.969 579.29 343.162C579.29 336.354 573.771 330.836 566.963 330.836C560.156 330.836 554.637 336.354 554.637 343.162C554.637 349.969 560.156 355.488 566.963 355.488Z" fill="#6C63FF"/>
<defs>
<filter id="filter0_d" x="291.35" y="105.165" width="11.6726" height="14.225" filterUnits="userSpaceOnUse" color-interpolation-filters="sRGB">
<feFlood flood-opacity="0" result="BackgroundImageFix"/>
<feColorMatrix in="SourceAlpha" type="matrix" values="0 0 0 0 0 0 0 0 0 0 0 0 0 0 0 0 0 0 127 0"/>
<feOffset dy="4"/>
<feGaussianBlur stdDeviation="2"/>
<feColorMatrix type="matrix" values="0 0 0 0 0 0 0 0 0 0 0 0 0 0 0 0 0 0 0.25 0"/>
<feBlend mode="normal" in2="BackgroundImageFix" result="effect1_dropShadow"/>
<feBlend mode="normal" in="SourceGraphic" in2="effect1_dropShadow" result="shape"/>
</filter>
<linearGradient id="paint0_linear" x1="218.061" y1="281.606" x2="218.061" y2="136.484" gradientUnits="userSpaceOnUse">
<stop stop-color="#808080" stop-opacity="0.25"/>
<stop offset="0.54" stop-color="#808080" stop-opacity="0.12"/>
<stop offset="1" stop-color="#808080" stop-opacity="0.1"/>
</linearGradient>
<clipPath id="clip0">
<rect width="460" height="292" fill="white" transform="translate(0 28)"/>
</clipPath>
</defs>
</svg>
