<svg width="1027" height="648" viewBox="0 0 1027 648" fill="none" xmlns="http://www.w3.org/2000/svg">
<path d="M247.5 648C384.19 648 495 643.523 495 638C495 632.477 384.19 628 247.5 628C110.81 628 0 632.477 0 638C0 643.523 110.81 648 247.5 648Z" fill="#E6E6E6"/>
<path d="M318.081 329.736C317.958 330.276 317.878 330.824 317.841 331.377L274.884 356.159L264.442 350.148L253.311 364.72L275.648 380.64L324.656 341.978C326.655 342.717 328.832 342.831 330.897 342.303C332.962 341.776 334.817 340.632 336.216 339.025C337.615 337.417 338.492 335.421 338.729 333.303C338.967 331.185 338.553 329.045 337.545 327.167C336.536 325.29 334.98 323.764 333.083 322.792C331.186 321.821 329.038 321.45 326.925 321.729C324.812 322.008 322.834 322.923 321.254 324.354C319.674 325.784 318.567 327.662 318.081 329.736Z" fill="#FFB8B8"/>
<path d="M220.248 344.941L254.072 369.048L269.2 350.081L236.32 323.698C234.905 322.563 233.274 321.729 231.525 321.246C229.777 320.764 227.949 320.643 226.152 320.892C224.356 321.141 222.629 321.754 221.078 322.694C219.527 323.634 218.183 324.88 217.131 326.357C215.08 329.235 214.256 332.809 214.841 336.295C215.425 339.78 217.37 342.89 220.248 344.941Z" fill="#6C63FF"/>
<path d="M150.426 620.008L162.286 623.115L179.916 578.851L162.413 574.264L150.426 620.008Z" fill="#FFB8B8"/>
<path d="M182.272 640.121L145 630.355L148.773 615.954L171.645 621.947C175.464 622.948 178.73 625.425 180.723 628.833C182.716 632.241 183.273 636.302 182.272 640.121Z" fill="#2F2E41"/>
<path d="M255.849 628.452L267.918 626.296L265.346 578.719L247.534 581.901L255.849 628.452Z" fill="#FFB8B8"/>
<path d="M293.196 633.346L255.265 640.121L252.648 625.466L275.923 621.309C277.848 620.965 279.821 621.003 281.731 621.422C283.64 621.841 285.448 622.632 287.052 623.75C288.656 624.868 290.024 626.29 291.078 627.937C292.133 629.583 292.852 631.421 293.196 633.346Z" fill="#2F2E41"/>
<path d="M232.085 278.56C235.059 279.284 237.478 282.314 238.931 285.825C240.271 289.512 241.179 293.342 241.635 297.239C242.777 304.496 243.873 312.352 241.512 319.073C238.744 326.95 231.37 331.076 224.973 329.137C218.576 327.198 213.489 319.92 211.751 311.543C210.168 303.078 211.188 294.333 214.675 286.459C216.492 282.322 218.997 278.505 222.325 276.638C223.958 275.651 225.904 275.319 227.772 275.708C229.64 276.097 231.291 277.179 232.394 278.736" fill="#2F2E41"/>
<path d="M248.912 409.947L271.888 615.741L252.912 622.947L217.912 484.947L169.183 611.125L148.412 612.279C148.412 612.279 176.912 415.947 198.033 411.485L248.912 409.947Z" fill="#2F2E41"/>
<path d="M229.612 304.823C243.177 304.823 254.173 293.827 254.173 280.262C254.173 266.697 243.177 255.701 229.612 255.701C216.048 255.701 205.051 266.697 205.051 280.262C205.051 293.827 216.048 304.823 229.612 304.823Z" fill="#FFB8B8"/>
<path d="M240.583 314.462L214.041 311C214.041 311 196.731 331.772 197.885 367.545C199.039 403.319 195 414.282 195 414.282L250.34 415.282C242.34 404.282 275.802 341.105 240.583 314.462Z" fill="#6C63FF"/>
<path d="M254.412 420.947C253.858 420.951 253.306 420.999 252.76 421.089L218.805 384.943L222.267 373.403L205.534 365.902L195.148 391.29L244 430.15C243.737 432.265 244.125 434.409 245.111 436.299C246.097 438.188 247.635 439.733 249.52 440.727C251.406 441.721 253.549 442.118 255.665 441.864C257.781 441.61 259.77 440.718 261.367 439.307C262.964 437.895 264.093 436.031 264.605 433.962C265.116 431.893 264.986 429.718 264.231 427.725C263.476 425.731 262.132 424.015 260.378 422.805C258.624 421.594 256.543 420.946 254.412 420.947Z" fill="#FFB8B8"/>
<path d="M217.222 326.19L201.495 364.633L223.421 375.019L241.579 336.974C242.36 335.337 242.799 333.558 242.868 331.746C242.938 329.934 242.637 328.126 241.983 326.434C241.33 324.742 240.338 323.202 239.068 321.907C237.798 320.612 236.278 319.59 234.599 318.903C232.98 318.24 231.245 317.903 229.496 317.911C227.746 317.919 226.015 318.271 224.401 318.947C222.788 319.624 221.323 320.612 220.091 321.855C218.859 323.097 217.884 324.571 217.222 326.19Z" fill="#6C63FF"/>
<path d="M223.188 302.591C227.036 300.371 227.447 295.015 226.924 290.603C226.401 286.191 225.527 281.273 228.12 277.665C231.216 273.36 237.434 273.274 242.735 273.134C248.036 272.993 254.491 271.441 255.864 266.319C256.772 262.935 254.83 259.304 252.044 257.179C249.258 255.055 245.772 254.116 242.383 253.223C234.804 251.226 226.978 249.213 219.217 250.31C211.53 251.397 204.58 255.467 199.871 261.639C195.162 267.811 193.073 275.589 194.055 283.29C195.311 293.141 197.132 297.443 195.937 301.787C193.709 309.877 184.106 315.074 183.914 323.463C183.765 330.025 189.561 335.087 195.216 338.419C199.702 341.062 204.543 343.305 209.712 343.923C214.881 344.542 220.447 343.357 224.298 339.854C229.265 335.335 230.493 327.785 229.069 321.223C227.645 314.661 223.991 308.833 220.377 303.174" fill="#2F2E41"/>
<path d="M61.4715 3.69715C147.796 10.2264 229.621 19.7357 304.325 31.9205C380.661 44.4562 450.28 59.1601 511.64 75.7062C576.301 93.1122 633.789 111.954 683.312 131.972C735.84 153.109 781.472 175.173 819.806 197.97C859.279 221.374 892.48 245.35 919.207 269.753C946.376 294.445 967.597 319.486 982.768 344.753C997.862 369.752 1007 394.934 1010.13 420.179C1013.28 444.318 1010.28 468.481 1001.14 492.533C992.783 514.974 977.516 537.238 955.464 559.147C935.881 578.934 908.282 598.225 873.055 616.747C864.895 620.95 856.237 625.096 847.081 629.183C842.33 631.304 855.883 633.193 860.642 631.069C899.572 613.377 930.657 594.771 953.396 575.549C978.909 554.152 997.402 532.316 1008.71 510.239C1021.24 486.286 1027.35 462.167 1026.98 438.03C1026.76 412.672 1020.41 387.337 1007.98 362.152C995.532 336.653 977.059 311.34 952.642 286.335C928.284 261.289 897.387 236.628 860.129 212.496C824.219 189.135 781.223 166.425 731.48 144.545C684.103 123.666 628.892 103.848 566.519 85.332C507.284 67.7021 439.659 51.7641 364.995 37.8369C292.999 24.4478 213.441 13.5339 128.66 5.41605C107.942 3.45491 86.9376 1.68133 65.6467 0.0953245C55.9827 -0.627764 51.8476 2.97707 61.4715 3.69715Z" fill="#6C63FF"/>
<g clip-path="url(#clip0)">
<path opacity="0.2" d="M293.877 367.937C287.827 369.519 282.164 373.348 280.653 378.66C278.924 384.766 282.91 390.92 283.487 397.189C285.347 417.729 251.579 432.22 256.397 452.396C258.309 460.418 266.041 466.319 273.659 471.195C285.862 478.98 299.402 485.858 314.397 487.799C337.156 490.749 360.936 482.077 383.057 487.558C400.9 491.979 414.554 504.938 432.273 509.72C445.762 513.361 460.294 511.926 474.306 510.451C481.863 509.658 489.778 508.743 495.875 504.82C507.21 497.517 507.923 483.095 515.513 472.76C527.235 456.822 552.936 453.691 574.486 456.789C596.036 459.887 616.963 467.513 638.796 466.891C643.463 466.757 648.242 466.209 652.313 464.227C657.263 461.82 660.606 457.578 663.563 453.381C682.041 427.05 692.183 396.974 692.972 366.176C693.099 360.883 692.882 355.362 690.006 350.691C686.369 344.782 679.101 341.247 671.865 338.869C654.49 333.147 635.297 332.211 618.271 325.759C601.85 319.535 588.551 308.619 574.25 299.265C545.752 280.659 512.72 267.93 477.674 262.048C469.461 260.675 460.936 259.694 452.775 261.279C443.372 263.106 435.268 268.178 427.98 273.637C408.593 288.161 393.055 306.081 375.189 321.999C362.864 332.976 349.443 342.991 335.083 351.926C328.471 356.049 321.444 360.945 314.076 363.993C307.332 366.781 301.008 366.078 293.877 367.937Z" fill="#00B0FF"/>
<path d="M380.294 238.856C380.294 238.856 362.041 259.833 375.099 284.283C388.158 308.734 352.34 348.019 352.34 348.019" stroke="#535461" stroke-width="2" stroke-miterlimit="10"/>
<path d="M388.479 231.005C387.029 236.404 380.091 239.62 380.091 239.62C380.091 239.62 375.51 234.083 376.96 228.684C378.41 223.286 382.155 219.428 385.348 220.069C388.54 220.711 389.929 225.607 388.479 231.005Z" fill="#8ED16F"/>
<path d="M383.819 230.065C384.275 228.37 384.049 226.876 383.315 226.728C382.581 226.58 381.616 227.834 381.16 229.529C380.705 231.224 380.93 232.718 381.664 232.866C382.399 233.014 383.363 231.76 383.819 230.065Z" fill="#8ED16F"/>
<path opacity="0.3" d="M383.819 230.065C384.275 228.37 384.049 226.876 383.315 226.728C382.581 226.58 381.616 227.834 381.16 229.529C380.705 231.224 380.93 232.718 381.664 232.866C382.399 233.014 383.363 231.76 383.819 230.065Z" fill="black"/>
<path d="M385.324 254.99C379.298 256.87 372.407 253.576 372.407 253.576C372.407 253.576 375.288 247.238 381.319 245.362C387.35 243.486 393.126 244.136 394.236 246.776C395.346 249.416 391.351 253.11 385.324 254.99Z" fill="#8ED16F"/>
<path d="M383.631 250.828C385.522 250.236 386.846 249.259 386.59 248.646C386.334 248.033 384.594 248.016 382.703 248.607C380.813 249.199 379.488 250.176 379.745 250.789C380.001 251.402 381.741 251.419 383.631 250.828Z" fill="#8ED16F"/>
<path opacity="0.3" d="M383.631 250.828C385.522 250.236 386.846 249.259 386.59 248.646C386.334 248.033 384.594 248.016 382.703 248.607C380.813 249.199 379.488 250.176 379.745 250.789C380.001 251.402 381.741 251.419 383.631 250.828Z" fill="black"/>
<path d="M383.922 274.103C377.895 275.983 371.005 272.689 371.005 272.689C371.005 272.689 373.886 266.351 379.917 264.475C385.948 262.599 391.724 263.249 392.833 265.889C393.943 268.529 389.948 272.228 383.922 274.103Z" fill="#8ED16F"/>
<path d="M382.299 270.23C384.191 269.641 385.518 268.665 385.263 268.051C385.007 267.438 383.266 267.418 381.374 268.008C379.482 268.597 378.155 269.572 378.411 270.186C378.666 270.8 380.407 270.819 382.299 270.23Z" fill="#8ED16F"/>
<path opacity="0.3" d="M382.299 270.23C384.191 269.641 385.518 268.665 385.263 268.051C385.007 267.438 383.266 267.418 381.374 268.008C379.482 268.597 378.155 269.572 378.411 270.186C378.666 270.8 380.407 270.819 382.299 270.23Z" fill="black"/>
<path d="M390.963 296.527C384.937 298.407 378.046 295.113 378.046 295.113C378.046 295.113 380.927 288.774 386.958 286.899C392.989 285.023 398.765 285.673 399.875 288.313C400.985 290.953 396.99 294.659 390.963 296.527Z" fill="#8ED16F"/>
<path d="M389.342 292.663C391.234 292.074 392.561 291.099 392.305 290.485C392.05 289.871 390.309 289.852 388.417 290.441C386.525 291.03 385.198 292.006 385.453 292.619C385.709 293.233 387.449 293.253 389.342 292.663Z" fill="#8ED16F"/>
<path opacity="0.3" d="M389.342 292.663C391.234 292.074 392.561 291.099 392.305 290.485C392.05 289.871 390.309 289.852 388.417 290.441C386.525 291.03 385.198 292.006 385.453 292.619C385.709 293.233 387.449 293.253 389.342 292.663Z" fill="black"/>
<path d="M386.382 317.034C380.356 318.913 373.465 315.62 373.465 315.62C373.465 315.62 376.346 309.281 382.377 307.405C388.408 305.53 394.184 306.179 395.294 308.819C396.404 311.459 392.413 315.158 386.382 317.034Z" fill="#8ED16F"/>
<path d="M384.773 312.822C386.664 312.23 387.988 311.254 387.732 310.64C387.476 310.027 385.736 310.01 383.845 310.601C381.955 311.193 380.63 312.17 380.886 312.783C381.143 313.396 382.883 313.413 384.773 312.822Z" fill="#8ED16F"/>
<path opacity="0.3" d="M384.773 312.822C386.664 312.23 387.988 311.254 387.732 310.64C387.476 310.027 385.736 310.01 383.845 310.601C381.955 311.193 380.63 312.17 380.886 312.783C381.143 313.396 382.883 313.413 384.773 312.822Z" fill="black"/>
<path d="M358.116 260.421C362.565 264.41 370.429 264.099 370.429 264.099C370.429 264.099 371.076 257.311 366.627 253.323C362.178 249.334 356.666 247.691 354.314 249.645C351.962 251.598 353.667 256.433 358.116 260.421Z" fill="#8ED16F"/>
<path d="M365.07 259.006C365.612 258.553 364.919 257.17 363.523 255.919C362.126 254.667 360.554 254.019 360.012 254.472C359.469 254.925 360.162 256.307 361.559 257.559C362.955 258.811 364.527 259.459 365.07 259.006Z" fill="#8ED16F"/>
<path opacity="0.3" d="M365.07 259.006C365.612 258.553 364.919 257.17 363.523 255.919C362.126 254.667 360.554 254.019 360.012 254.472C359.469 254.925 360.162 256.307 361.559 257.559C362.955 258.811 364.527 259.459 365.07 259.006Z" fill="black"/>
<path d="M355.561 323.76C360.01 327.749 367.873 327.438 367.873 327.438C367.873 327.438 368.521 320.65 364.072 316.662C359.623 312.673 354.111 311.03 351.759 312.984C349.407 314.937 351.112 319.772 355.561 323.76Z" fill="#8ED16F"/>
<path d="M362.508 322.35C363.05 321.897 362.358 320.515 360.961 319.263C359.564 318.011 357.993 317.364 357.45 317.817C356.908 318.27 357.6 319.652 358.997 320.904C360.394 322.156 361.966 322.803 362.508 322.35Z" fill="#8ED16F"/>
<path opacity="0.3" d="M362.508 322.35C363.05 321.897 362.358 320.515 360.961 319.263C359.564 318.011 357.993 317.364 357.45 317.817C356.908 318.27 357.6 319.652 358.997 320.904C360.394 322.156 361.966 322.803 362.508 322.35Z" fill="black"/>
<path d="M361.46 282.808C367.193 285.284 374.481 282.71 374.481 282.71C374.481 282.71 372.474 276.126 366.745 273.65C361.016 271.173 355.183 271.198 353.724 273.748C352.265 276.298 355.726 280.331 361.46 282.808Z" fill="#8ED16F"/>
<path d="M367.453 279.454C367.789 278.871 366.603 277.768 364.804 276.991C363.005 276.214 361.273 276.057 360.936 276.641C360.6 277.224 361.786 278.327 363.585 279.104C365.385 279.881 367.116 280.038 367.453 279.454Z" fill="#8ED16F"/>
<path opacity="0.3" d="M367.453 279.454C367.789 278.871 366.603 277.768 364.804 276.991C363.005 276.214 361.273 276.057 360.936 276.641C360.6 277.224 361.786 278.327 363.585 279.104C365.385 279.881 367.116 280.038 367.453 279.454Z" fill="black"/>
<path d="M363.864 305.109C369.597 307.585 376.885 305.011 376.885 305.011C376.885 305.011 374.877 298.427 369.149 295.951C363.42 293.474 357.587 293.499 356.128 296.049C354.669 298.599 358.154 302.657 363.864 305.109Z" fill="#8ED16F"/>
<path d="M369.859 301.758C370.195 301.174 369.009 300.071 367.21 299.294C365.41 298.517 363.679 298.361 363.342 298.944C363.006 299.528 364.192 300.631 365.991 301.408C367.79 302.185 369.522 302.342 369.859 301.758Z" fill="#8ED16F"/>
<path opacity="0.3" d="M369.859 301.758C370.195 301.174 369.009 300.071 367.21 299.294C365.41 298.517 363.679 298.361 363.342 298.944C363.006 299.528 364.192 300.631 365.991 301.408C367.79 302.185 369.522 302.342 369.859 301.758Z" fill="black"/>
<path d="M292.38 283.944C292.38 283.944 325.718 312.792 306.898 355.599C288.077 398.407 339.159 469.593 339.159 469.593C339.159 469.593 338.611 469.523 337.596 469.368C269.115 458.91 235.111 391.145 273.177 340.806C287.312 322.089 298.954 300.135 292.38 283.944Z" fill="#8ED16F"/>
<path d="M263.907 421.673C263.907 421.673 301.949 416.43 305.416 445.932C308.883 475.433 378.567 479.524 378.567 479.524C378.567 479.524 378.095 479.794 377.259 480.276C319.721 512.969 264.72 501.094 273.008 457.697C276.097 441.559 275.842 425.356 263.907 421.673Z" fill="#8ED16F"/>
<g opacity="0.3">
<path opacity="0.3" d="M263.907 421.673C263.907 421.673 301.949 416.43 305.416 445.932C308.883 475.433 378.567 479.524 378.567 479.524C378.567 479.524 378.095 479.794 377.259 480.276C319.721 512.969 264.72 501.094 273.008 457.697C276.097 441.559 275.842 425.356 263.907 421.673Z" fill="white"/>
</g>
<path d="M282.75 400.258C288.527 400.258 293.211 389.685 293.211 376.642C293.211 363.598 288.527 353.025 282.75 353.025C276.972 353.025 272.289 363.598 272.289 376.642C272.289 389.685 276.972 400.258 282.75 400.258Z" fill="#8ED16F"/>
<path opacity="0.3" d="M282.75 400.258C288.527 400.258 293.211 389.685 293.211 376.642C293.211 363.598 288.527 353.025 282.75 353.025C276.972 353.025 272.289 363.598 272.289 376.642C272.289 389.685 276.972 400.258 282.75 400.258Z" fill="black"/>
<path d="M281.794 462.413C284.548 460.03 281.812 453.8 275.683 448.496C269.554 443.193 262.353 440.825 259.6 443.208C256.846 445.591 259.582 451.822 265.711 457.125C271.84 462.428 279.04 464.796 281.794 462.413Z" fill="#8ED16F"/>
<path opacity="0.3" d="M281.794 462.413C284.548 460.03 281.812 453.8 275.683 448.496C269.554 443.193 262.353 440.825 259.6 443.208C256.846 445.591 259.582 451.822 265.711 457.125C271.84 462.428 279.04 464.796 281.794 462.413Z" fill="black"/>
<path d="M574.878 328.484H327.243C324.251 328.484 321.381 329.513 319.265 331.344C317.149 333.175 315.961 335.658 315.961 338.247V463.843C315.961 466.432 317.149 468.915 319.265 470.746C321.381 472.577 324.251 473.606 327.243 473.606H574.878C577.871 473.606 580.74 472.577 582.856 470.746C584.972 468.915 586.161 466.432 586.161 463.843V338.247C586.161 335.658 584.972 333.175 582.856 331.344C580.74 329.513 577.871 328.484 574.878 328.484Z" fill="url(#paint0_linear)"/>
<path d="M571.261 330.193H330.856C324.385 330.193 319.139 334.732 319.139 340.332V461.759C319.139 467.358 324.385 471.898 330.856 471.898H571.261C577.732 471.898 582.978 467.358 582.978 461.759V340.332C582.978 334.732 577.732 330.193 571.261 330.193Z" fill="#00B0FF"/>
<path d="M582.978 354.991H319.139V380.969H582.978V354.991Z" fill="#00B0FF"/>
<path opacity="0.3" d="M582.978 354.991H319.139V380.969H582.978V354.991Z" fill="black"/>
<path d="M557.961 400.258H344.16V412.854H557.961V400.258Z" fill="#D6D6E3"/>
<path d="M361.899 462.453C373.457 462.453 382.826 454.346 382.826 444.345C382.826 434.345 373.457 426.237 361.899 426.237C350.342 426.237 340.972 434.345 340.972 444.345C340.972 454.346 350.342 462.453 361.899 462.453Z" fill="#00B0FF"/>
<path opacity="0.3" d="M361.899 462.453C373.457 462.453 382.826 454.346 382.826 444.345C382.826 434.345 373.457 426.237 361.899 426.237C350.342 426.237 340.972 434.345 340.972 444.345C340.972 454.346 350.342 462.453 361.899 462.453Z" fill="black"/>
<path opacity="0.1" d="M622.39 286.147L641.805 284.778C640.807 287.361 640.128 290.028 639.779 292.734C637.522 294.76 634.436 295.937 631.185 296.014C627.935 296.09 624.78 295.059 622.399 293.143C622.894 290.83 622.891 288.458 622.39 286.147Z" fill="black"/>
<path opacity="0.1" d="M657.499 321.415C657.499 321.415 651.402 307.736 646.66 307.348C641.918 306.96 655.69 307.348 655.69 307.348L660.205 314.381L657.499 321.415Z" fill="black"/>
<path opacity="0.4" d="M597.892 489.335C602.615 490.312 619.57 488.163 621.147 485.817V486.401C619.565 488.747 602.634 490.896 597.892 489.92C595.956 489.511 595.337 488.694 595.531 487.799C595.682 488.461 596.391 489.008 597.892 489.335Z" fill="white"/>
<path d="M569.22 293.327H593.377V292.886H569.22V293.327Z" fill="#8ED16F"/>
<path d="M569.22 293.768H593.377V293.327H569.22V293.768Z" fill="#8ED16F"/>
<path opacity="0.1" d="M569.22 293.768H593.377V293.327H569.22V293.768Z" fill="black"/>
<path d="M569.22 294.21H593.377V293.768H569.22V294.21Z" fill="#8ED16F"/>
<path d="M569.22 294.647H593.377V294.206H569.22V294.647Z" fill="#8ED16F"/>
<path opacity="0.1" d="M569.22 294.647H593.377V294.206H569.22V294.647Z" fill="black"/>
<path d="M569.22 295.088H593.377V294.647H569.22V295.088Z" fill="#8ED16F"/>
<path d="M569.22 295.526H593.377V295.084H569.22V295.526Z" fill="#8ED16F"/>
<path opacity="0.1" d="M569.22 295.526H593.377V295.084H569.22V295.526Z" fill="black"/>
<path d="M569.22 295.967H593.377V295.526H569.22V295.967Z" fill="#8ED16F"/>
<path d="M569.22 296.404H593.377V295.963H569.22V296.404Z" fill="#8ED16F"/>
<path opacity="0.1" d="M569.22 296.404H593.377V295.963H569.22V296.404Z" fill="black"/>
<path d="M569.22 289.812H593.377V289.371H569.22V289.812Z" fill="#8ED16F"/>
<path d="M586.307 279.363L604.88 292.729L605.206 292.39L586.633 279.024L586.307 279.363Z" fill="#8ED16F"/>
<path d="M569.374 272.331L587.947 285.697L588.273 285.358L569.7 271.991L569.374 272.331Z" fill="#8ED16F"/>
<path d="M569.22 290.25H593.377V289.808H569.22V290.25Z" fill="#8ED16F"/>
<path opacity="0.1" d="M569.22 290.25H593.377V289.808H569.22V290.25Z" fill="black"/>
<path d="M569.22 290.695H593.377V290.254H569.22V290.695Z" fill="#8ED16F"/>
<path d="M569.22 291.132H593.377V290.691H569.22V291.132Z" fill="#8ED16F"/>
<path opacity="0.1" d="M569.22 291.132H593.377V290.691H569.22V291.132Z" fill="black"/>
<path d="M569.22 291.57H593.377V291.128H569.22V291.57Z" fill="#8ED16F"/>
<path d="M569.22 292.011H593.377V291.57H569.22V292.011Z" fill="#8ED16F"/>
<path opacity="0.1" d="M569.22 292.011H593.377V291.57H569.22V292.011Z" fill="black"/>
<path d="M569.22 292.448H593.377V292.007H569.22V292.448Z" fill="#8ED16F"/>
<path d="M569.22 292.89H593.377V292.448H569.22V292.89Z" fill="#8ED16F"/>
<path opacity="0.1" d="M569.22 292.89H593.377V292.448H569.22V292.89Z" fill="black"/>
<path d="M566.158 310.026L574.814 311.417L577.946 296.82L569.291 295.429L566.158 310.026Z" fill="#8ED16F"/>
<path d="M573.947 303.754C574.311 302.057 573.812 300.553 572.832 300.396C571.853 300.238 570.763 301.487 570.399 303.184C570.035 304.882 570.534 306.386 571.513 306.543C572.493 306.701 573.582 305.452 573.947 303.754Z" fill="#8ED16F"/>
<path opacity="0.1" d="M573.947 303.754C574.311 302.057 573.812 300.553 572.832 300.396C571.853 300.238 570.763 301.487 570.399 303.184C570.035 304.882 570.534 306.386 571.513 306.543C572.493 306.701 573.582 305.452 573.947 303.754Z" fill="black"/>
<path d="M567.639 340.837L576.295 342.228L579.427 327.631L570.772 326.24L567.639 340.837Z" fill="#8ED16F"/>
<path d="M575.423 334.562C575.787 332.864 575.289 331.361 574.309 331.203C573.329 331.046 572.24 332.294 571.875 333.992C571.511 335.689 572.01 337.193 572.99 337.351C573.969 337.508 575.059 336.26 575.423 334.562Z" fill="#8ED16F"/>
<path opacity="0.1" d="M575.423 334.562C575.787 332.864 575.289 331.361 574.309 331.203C573.329 331.046 572.24 332.294 571.875 333.992C571.511 335.689 572.01 337.193 572.99 337.351C573.969 337.508 575.059 336.26 575.423 334.562Z" fill="black"/>
<path d="M536.334 265.105L532.144 271.804L547.234 278.87L551.424 272.171L536.334 265.105Z" fill="#8ED16F"/>
<path d="M546.433 273.776C546.911 273.017 545.875 271.73 544.119 270.901C542.364 270.072 540.552 270.016 540.074 270.774C539.596 271.533 540.632 272.82 542.388 273.649C544.143 274.477 545.955 274.534 546.433 273.776Z" fill="#8ED16F"/>
<path opacity="0.1" d="M546.433 273.776C546.911 273.017 545.875 271.73 544.119 270.901C542.364 270.072 540.552 270.016 540.074 270.774C539.596 271.533 540.632 272.82 542.388 273.649C544.143 274.477 545.955 274.534 546.433 273.776Z" fill="black"/>
<path d="M503.2 397.318L499.01 404.017L514.1 411.083L518.29 404.384L503.2 397.318Z" fill="#8ED16F"/>
<path d="M511.779 405.778C512.253 405.02 511.215 403.739 509.46 402.917C507.705 402.095 505.898 402.044 505.424 402.802C504.95 403.561 505.988 404.841 507.743 405.663C509.498 406.485 511.305 406.536 511.779 405.778Z" fill="#8ED16F"/>
<path opacity="0.1" d="M511.779 405.778C512.253 405.02 511.215 403.739 509.46 402.917C507.705 402.095 505.898 402.044 505.424 402.802C504.95 403.561 505.988 404.841 507.743 405.663C509.498 406.485 511.305 406.536 511.779 405.778Z" fill="black"/>
<path d="M482.927 288.211L478.738 294.911L493.828 301.977L498.018 295.277L482.927 288.211Z" fill="#8ED16F"/>
<path d="M491.502 296.665C491.976 295.907 490.938 294.626 489.183 293.804C487.428 292.983 485.621 292.931 485.147 293.69C484.673 294.448 485.711 295.729 487.466 296.55C489.221 297.372 491.028 297.424 491.502 296.665Z" fill="#8ED16F"/>
<path opacity="0.1" d="M491.502 296.665C491.976 295.907 490.938 294.626 489.183 293.804C487.428 292.983 485.621 292.931 485.147 293.69C484.673 294.448 485.711 295.729 487.466 296.55C489.221 297.372 491.028 297.424 491.502 296.665Z" fill="black"/>
<path d="M508.336 265.103L504.146 271.802L519.236 278.869L523.426 272.169L508.336 265.103Z" fill="#8ED16F"/>
<path d="M516.91 273.557C517.385 272.799 516.346 271.518 514.591 270.696C512.837 269.875 511.03 269.823 510.555 270.581C510.081 271.34 511.119 272.62 512.874 273.442C514.629 274.264 516.436 274.315 516.91 273.557Z" fill="#8ED16F"/>
<path opacity="0.1" d="M516.91 273.557C517.385 272.799 516.346 271.518 514.591 270.696C512.837 269.875 511.03 269.823 510.555 270.581C510.081 271.34 511.119 272.62 512.874 273.442C514.629 274.264 516.436 274.315 516.91 273.557Z" fill="black"/>
<path d="M533.703 292.369L524.952 293.197L526.817 307.956L535.568 307.128L533.703 292.369Z" fill="#8ED16F"/>
<path d="M530.537 303.283C531.528 303.189 532.155 301.722 531.938 300.005C531.721 298.289 530.742 296.974 529.752 297.067C528.761 297.161 528.134 298.628 528.351 300.345C528.568 302.061 529.547 303.377 530.537 303.283Z" fill="#8ED16F"/>
<path opacity="0.1" d="M530.537 303.283C531.528 303.189 532.155 301.722 531.938 300.005C531.721 298.289 530.742 296.974 529.752 297.067C528.761 297.161 528.134 298.628 528.351 300.345C528.568 302.061 529.547 303.377 530.537 303.283Z" fill="black"/>
<path d="M593.702 373.186L584.951 374.014L586.816 388.773L595.567 387.945L593.702 373.186Z" fill="#8ED16F"/>
<path d="M590.54 384.1C591.531 384.006 592.158 382.539 591.941 380.822C591.724 379.106 590.745 377.791 589.755 377.884C588.764 377.978 588.137 379.445 588.354 381.162C588.571 382.878 589.55 384.193 590.54 384.1Z" fill="#8ED16F"/>
<path opacity="0.1" d="M590.54 384.1C591.531 384.006 592.158 382.539 591.941 380.822C591.724 379.106 590.745 377.791 589.755 377.884C588.764 377.978 588.137 379.445 588.354 381.162C588.571 382.878 589.55 384.193 590.54 384.1Z" fill="black"/>
<path d="M499.436 323.721L495.246 330.42L510.337 337.486L514.526 330.787L499.436 323.721Z" fill="#8ED16F"/>
<path d="M508.008 332.181C508.482 331.422 507.444 330.141 505.689 329.32C503.934 328.498 502.127 328.446 501.653 329.205C501.179 329.963 502.217 331.244 503.972 332.066C505.727 332.887 507.534 332.939 508.008 332.181Z" fill="#8ED16F"/>
<path opacity="0.1" d="M508.008 332.181C508.482 331.422 507.444 330.141 505.689 329.32C503.934 328.498 502.127 328.446 501.653 329.205C501.179 329.963 502.217 331.244 503.972 332.066C505.727 332.887 507.534 332.939 508.008 332.181Z" fill="black"/>
<path d="M461.357 314.31L457.167 321.01L472.257 328.076L476.447 321.376L461.357 314.31Z" fill="#8ED16F"/>
<path d="M471.185 323.215C471.663 322.456 470.627 321.169 468.872 320.34C467.116 319.511 465.304 319.455 464.826 320.213C464.348 320.972 465.384 322.259 467.14 323.088C468.896 323.917 470.707 323.973 471.185 323.215Z" fill="#8ED16F"/>
<path opacity="0.1" d="M471.185 323.215C471.663 322.456 470.627 321.169 468.872 320.34C467.116 319.511 465.304 319.455 464.826 320.213C464.348 320.972 465.384 322.259 467.14 323.088C468.896 323.917 470.707 323.973 471.185 323.215Z" fill="black"/>
<path d="M449.161 472.753L444.971 479.452L460.061 486.518L464.251 479.819L449.161 472.753Z" fill="#8ED16F"/>
<path d="M457.735 481.209C458.21 480.45 457.171 479.17 455.416 478.348C453.662 477.526 451.854 477.475 451.38 478.233C450.906 478.991 451.944 480.272 453.699 481.094C455.454 481.916 457.261 481.967 457.735 481.209Z" fill="#8ED16F"/>
<path opacity="0.1" d="M457.735 481.209C458.21 480.45 457.171 479.17 455.416 478.348C453.662 477.526 451.854 477.475 451.38 478.233C450.906 478.991 451.944 480.272 453.699 481.094C455.454 481.916 457.261 481.967 457.735 481.209Z" fill="black"/>
<path d="M438.182 475.335L436.576 482.825L453.446 485.533L455.052 478.043L438.182 475.335Z" fill="#8ED16F"/>
<path opacity="0.05" d="M438.182 475.335L436.576 482.825L453.446 485.533L455.052 478.043L438.182 475.335Z" fill="black"/>
<path d="M449.349 481.099C449.531 480.251 448.088 479.309 446.126 478.994C444.164 478.679 442.427 479.111 442.245 479.958C442.063 480.806 443.506 481.749 445.468 482.064C447.43 482.379 449.168 481.947 449.349 481.099Z" fill="#8ED16F"/>
<path opacity="0.1" d="M449.349 481.099C449.531 480.251 448.088 479.309 446.126 478.994C444.164 478.679 442.427 479.111 442.245 479.958C442.063 480.806 443.506 481.749 445.468 482.064C447.43 482.379 449.168 481.947 449.349 481.099Z" fill="black"/>
<path d="M439.763 479.826L438.157 487.316L455.027 490.024L456.633 482.535L439.763 479.826Z" fill="#8ED16F"/>
<path d="M450.925 485.591C451.107 484.743 449.664 483.8 447.702 483.485C445.74 483.17 444.002 483.602 443.821 484.45C443.639 485.298 445.082 486.24 447.044 486.555C449.006 486.87 450.744 486.438 450.925 485.591Z" fill="#8ED16F"/>
<path opacity="0.1" d="M450.925 485.591C451.107 484.743 449.664 483.8 447.702 483.485C445.74 483.17 444.002 483.602 443.821 484.45C443.639 485.298 445.082 486.24 447.044 486.555C449.006 486.87 450.744 486.438 450.925 485.591Z" fill="black"/>
<path d="M466.961 492.008L462.771 498.708L477.861 505.774L482.051 499.074L466.961 492.008Z" fill="#8ED16F"/>
<path d="M475.54 500.464C476.014 499.706 474.976 498.425 473.221 497.603C471.466 496.782 469.659 496.73 469.185 497.489C468.711 498.247 469.749 499.528 471.504 500.349C473.259 501.171 475.066 501.223 475.54 500.464Z" fill="#8ED16F"/>
<path opacity="0.1" d="M475.54 500.464C476.014 499.706 474.976 498.425 473.221 497.603C471.466 496.782 469.659 496.73 469.185 497.489C468.711 498.247 469.749 499.528 471.504 500.349C473.259 501.171 475.066 501.223 475.54 500.464Z" fill="black"/>
<path d="M455.985 494.585L454.38 502.075L471.25 504.783L472.855 497.293L455.985 494.585Z" fill="#8ED16F"/>
<path opacity="0.05" d="M455.985 494.585L454.38 502.075L471.25 504.783L472.855 497.293L455.985 494.585Z" fill="black"/>
<path d="M467.148 500.349C467.33 499.502 465.887 498.559 463.925 498.244C461.963 497.929 460.225 498.361 460.043 499.209C459.862 500.057 461.305 500.999 463.267 501.314C465.228 501.629 466.966 501.197 467.148 500.349Z" fill="#8ED16F"/>
<path opacity="0.1" d="M467.148 500.349C467.33 499.502 465.887 498.559 463.925 498.244C461.963 497.929 460.225 498.361 460.043 499.209C459.862 500.057 461.305 500.999 463.267 501.314C465.228 501.629 466.966 501.197 467.148 500.349Z" fill="black"/>
<path d="M457.565 499.082L455.959 506.571L472.829 509.28L474.435 501.79L457.565 499.082Z" fill="#8ED16F"/>
<path d="M468.732 504.846C468.914 503.998 467.471 503.056 465.509 502.741C463.547 502.426 461.809 502.858 461.628 503.705C461.446 504.553 462.889 505.495 464.851 505.81C466.813 506.125 468.551 505.693 468.732 504.846Z" fill="#8ED16F"/>
<path opacity="0.1" d="M468.732 504.846C468.914 503.998 467.471 503.056 465.509 502.741C463.547 502.426 461.809 502.858 461.628 503.705C461.446 504.553 462.889 505.495 464.851 505.81C466.813 506.125 468.551 505.693 468.732 504.846Z" fill="black"/>
<path d="M493.667 479.599L489.478 486.298L504.568 493.365L508.757 486.665L493.667 479.599Z" fill="#8ED16F"/>
<path d="M502.237 488.053C502.712 487.295 501.673 486.014 499.919 485.192C498.164 484.371 496.357 484.319 495.882 485.077C495.408 485.836 496.446 487.116 498.201 487.938C499.956 488.76 501.763 488.811 502.237 488.053Z" fill="#8ED16F"/>
<path opacity="0.1" d="M502.237 488.053C502.712 487.295 501.673 486.014 499.919 485.192C498.164 484.371 496.357 484.319 495.882 485.077C495.408 485.836 496.446 487.116 498.201 487.938C499.956 488.76 501.763 488.811 502.237 488.053Z" fill="black"/>
<path d="M482.689 482.178L481.083 489.668L497.954 492.376L499.559 484.887L482.689 482.178Z" fill="#8ED16F"/>
<path opacity="0.05" d="M482.689 482.178L481.083 489.668L497.954 492.376L499.559 484.887L482.689 482.178Z" fill="black"/>
<path d="M493.852 487.943C494.034 487.095 492.591 486.152 490.629 485.837C488.667 485.522 486.929 485.954 486.747 486.802C486.566 487.65 488.009 488.592 489.971 488.907C491.932 489.222 493.67 488.79 493.852 487.943Z" fill="#8ED16F"/>
<path opacity="0.1" d="M493.852 487.943C494.034 487.095 492.591 486.152 490.629 485.837C488.667 485.522 486.929 485.954 486.747 486.802C486.566 487.65 488.009 488.592 489.971 488.907C491.932 489.222 493.67 488.79 493.852 487.943Z" fill="black"/>
<path d="M484.269 486.674L482.663 494.164L499.533 496.872L501.139 489.382L484.269 486.674Z" fill="#8ED16F"/>
<path d="M495.436 492.439C495.618 491.591 494.175 490.649 492.213 490.334C490.251 490.019 488.513 490.451 488.332 491.298C488.15 492.146 489.593 493.089 491.555 493.404C493.517 493.719 495.254 493.287 495.436 492.439Z" fill="#8ED16F"/>
<path opacity="0.1" d="M495.436 492.439C495.618 491.591 494.175 490.649 492.213 490.334C490.251 490.019 488.513 490.451 488.332 491.298C488.15 492.146 489.593 493.089 491.555 493.404C493.517 493.719 495.254 493.287 495.436 492.439Z" fill="black"/>
</g>
<path d="M729.5 648C866.19 648 977 643.523 977 638C977 632.477 866.19 628 729.5 628C592.81 628 482 632.477 482 638C482 643.523 592.81 648 729.5 648Z" fill="#E6E6E6"/>
<path d="M685.5 292.995C685.5 292.995 711.538 286.995 725.859 297.995C740.18 308.995 707.632 333.995 707.632 333.995L685.5 292.995Z" fill="#2F2E41"/>
<path d="M658.573 436.479C659.095 435.104 659.309 433.632 659.2 432.166C659.091 430.7 658.662 429.276 657.943 427.993C657.224 426.711 656.233 425.602 655.039 424.744C653.845 423.886 652.478 423.301 651.033 423.028L645.771 387.683L631.943 400.078L639.06 431.742C638.764 434.199 639.379 436.68 640.789 438.714C642.2 440.748 644.307 442.193 646.713 442.777C649.118 443.361 651.654 443.042 653.84 441.882C656.026 440.721 657.71 438.798 658.573 436.479Z" fill="#FFB8B8"/>
<path d="M713.078 619.968L700.845 619.156L698.155 571.586L716.209 572.784L713.078 619.968Z" fill="#FFB8B8"/>
<path d="M691.837 615.354H715.48V630.241H676.95C676.95 628.286 677.335 626.351 678.083 624.544C678.831 622.738 679.928 621.097 681.31 619.715C682.692 618.332 684.333 617.236 686.14 616.488C687.946 615.74 689.882 615.354 691.837 615.354Z" fill="#2F2E41"/>
<path d="M691.937 603.033L680.436 607.279L658.587 564.937L675.562 558.671L691.937 603.033Z" fill="#FFB8B8"/>
<path d="M671.007 607.025L693.188 598.837L698.343 612.803L662.197 626.146C661.52 624.312 661.211 622.362 661.287 620.409C661.363 618.455 661.824 616.536 662.642 614.76C663.46 612.985 664.62 611.388 666.055 610.061C667.491 608.733 669.173 607.702 671.007 607.025Z" fill="#2F2E41"/>
<path d="M658.495 420.283C658.495 420.283 646.107 426.954 649.918 453.637L653.73 554.652L674.79 600.701L692.896 595.936L681.366 558.463L696.614 492.709L698.614 612.137L715.767 614.996L740.451 416.471L709.003 402.176L658.495 420.283Z" fill="#2F2E41"/>
<path d="M702.776 281.659C716.34 281.659 727.337 270.663 727.337 257.098C727.337 243.533 716.34 232.537 702.776 232.537C689.211 232.537 678.215 243.533 678.215 257.098C678.215 270.663 689.211 281.659 702.776 281.659Z" fill="#FFB8B8"/>
<path d="M659.415 423.22C657.751 423.325 656.082 423.131 654.486 422.649L654.137 422.498L654.189 422.12C654.255 421.636 660.799 373.523 657.072 363.276C653.871 354.472 647.288 324.75 645.348 315.85C645.122 314.834 645.231 313.773 645.658 312.824C646.086 311.876 646.808 311.091 647.719 310.587L683.258 290.669C684.718 289.847 686.44 289.621 688.063 290.041C689.685 290.46 691.083 291.491 691.962 292.918L700.995 307.509L715.096 293.408C716.175 292.326 717.602 291.659 719.125 291.526C720.648 291.393 722.169 291.801 723.42 292.679L753.146 313.487C754.43 314.378 755.373 315.679 755.819 317.177C756.264 318.675 756.185 320.281 755.596 321.728C749.924 335.752 737.144 373.051 740.948 416.427L741.01 417.133L740.325 416.955C740.068 416.888 714.41 410.408 688.175 417.905C672.91 422.266 664.153 423.22 659.415 423.22Z" fill="#6C63FF"/>
<path d="M648.944 311.139C647.896 310.989 646.83 311.226 645.944 311.806C645.058 312.385 644.414 313.268 644.132 314.288L628 372.54L631.812 407.8L649.918 404.941L648.012 380.164L661.354 348.716L652.547 314.368C652.333 313.534 651.877 312.782 651.235 312.207C650.594 311.632 649.797 311.261 648.944 311.139Z" fill="#CCCCCC"/>
<path d="M721.768 222.62C720.13 219.84 717.756 217.567 714.908 216.051C712.059 214.536 708.847 213.837 705.627 214.032C702.258 214.454 698.97 215.375 695.872 216.763L679.816 223.026C675.661 224.646 671.111 226.632 669.308 230.711C667.635 234.496 668.883 238.869 670.147 242.81L676.154 261.546C676.819 257.305 677.961 253.154 679.558 249.169C681.303 245.252 684.063 241.64 687.878 239.683C692.049 237.543 696.965 237.587 701.647 237.813C708.277 238.132 715.487 238.976 720.198 243.652C722.699 246.309 724.395 249.62 725.088 253.202C725.77 256.764 726.113 260.384 726.113 264.011C728.832 259.337 731.123 254.426 732.956 249.34C734.465 245.552 735.325 241.537 735.499 237.464C735.657 233.355 734.294 229.333 731.671 226.167C728.958 223.136 724.538 221.499 720.651 222.699" fill="#2F2E41"/>
<path d="M735.427 450.479C734.906 449.104 734.692 447.632 734.801 446.166C734.909 444.7 735.338 443.276 736.057 441.993C736.776 440.711 737.767 439.602 738.961 438.744C740.155 437.886 741.522 437.301 742.967 437.028L748.229 401.683L762.057 414.078L754.94 445.742C755.237 448.199 754.621 450.68 753.211 452.714C751.8 454.748 749.693 456.193 747.288 456.777C744.882 457.361 742.347 457.042 740.161 455.882C737.975 454.721 736.291 452.798 735.427 450.479H735.427Z" fill="#FFB8B8"/>
<path d="M752.511 313.56C753.954 313.801 755.272 314.528 756.245 315.62C757.218 316.712 757.789 318.105 757.862 319.566L763.322 428.765H743.309L736.639 370.634L745.128 318.849C745.265 318.016 745.564 317.219 746.009 316.502C746.454 315.786 747.036 315.164 747.722 314.673C748.408 314.181 749.184 313.83 750.006 313.639C750.828 313.448 751.679 313.422 752.511 313.56Z" fill="#CCCCCC"/>
<path d="M793.852 630.199C796.346 603.346 803.232 577.085 814.237 552.464C817.304 545.613 820.68 538.912 824.365 532.362C825.311 530.676 822.721 529.162 821.774 530.848C808.375 554.704 798.988 580.601 793.988 607.503C792.597 615.015 791.552 622.581 790.852 630.199C790.675 632.121 793.676 632.109 793.852 630.199H793.852Z" fill="#E6E6E6"/>
<path d="M831.63 537.173C842.124 537.173 850.63 528.666 850.63 518.173C850.63 507.68 842.124 499.173 831.63 499.173C821.137 499.173 812.63 507.68 812.63 518.173C812.63 528.666 821.137 537.173 831.63 537.173Z" fill="#F80514"/>
<path d="M795.796 630.704C797.413 613.283 801.881 596.246 809.02 580.274C811.01 575.829 813.2 571.481 815.591 567.232C815.71 567.01 815.739 566.75 815.671 566.507C815.603 566.263 815.443 566.056 815.225 565.929C815.007 565.802 814.748 565.764 814.503 565.824C814.257 565.883 814.045 566.036 813.91 566.25C805.217 581.727 799.127 598.527 795.884 615.98C794.982 620.853 794.304 625.761 793.85 630.704C793.734 631.95 795.681 631.943 795.796 630.704Z" fill="#E6E6E6"/>
<path d="M820.304 570.353C827.112 570.353 832.63 564.835 832.63 558.027C832.63 551.22 827.112 545.701 820.304 545.701C813.497 545.701 807.978 551.22 807.978 558.027C807.978 564.835 813.497 570.353 820.304 570.353Z" fill="#6C63FF"/>
<path d="M793.339 629.54C783.9 614.809 776.944 598.628 772.749 581.643C771.584 576.914 770.637 572.14 769.908 567.319C769.866 567.07 769.729 566.847 769.525 566.698C769.322 566.548 769.069 566.483 768.818 566.517C768.568 566.55 768.341 566.68 768.184 566.878C768.027 567.076 767.954 567.327 767.979 567.578C770.644 585.128 776.176 602.121 784.353 617.876C786.639 622.274 789.123 626.561 791.805 630.737C792.481 631.791 794.011 630.588 793.339 629.54V629.54Z" fill="#E6E6E6"/>
<path d="M767.963 569.488C774.771 569.488 780.29 563.969 780.29 557.162C780.29 550.354 774.771 544.836 767.963 544.836C761.156 544.836 755.637 550.354 755.637 557.162C755.637 563.969 761.156 569.488 767.963 569.488Z" fill="#6C63FF"/>
<defs>
<linearGradient id="paint0_linear" x1="451.061" y1="473.606" x2="451.061" y2="328.484" gradientUnits="userSpaceOnUse">
<stop stop-color="#808080" stop-opacity="0.25"/>
<stop offset="0.54" stop-color="#808080" stop-opacity="0.12"/>
<stop offset="1" stop-color="#808080" stop-opacity="0.1"/>
</linearGradient>
<clipPath id="clip0">
<rect width="460" height="292" fill="white" transform="translate(233 220)"/>
</clipPath>
</defs>
</svg>
