<svg width="438" height="236" viewBox="0 0 438 236" fill="none" xmlns="http://www.w3.org/2000/svg">
<path d="M166.797 66H156.918V37.6992L151.152 66H143.523L136.914 37.6992V66H128.266V15.5859H142.504L147.566 41.7422L151.961 15.5859H166.797V66ZM195.59 25.1836L187.82 65.7891C187.023 69.9375 185.945 72.4453 184.586 73.3125C183.25 74.2031 181.387 74.6484 178.996 74.6484H172V69.1641C174.625 69.1641 176.254 69.0352 176.887 68.7773C177.52 68.5195 177.836 67.7578 177.836 66.4922C177.836 65.2266 176.395 58.6289 173.512 46.6992L168.309 25.1836H178.328L182.512 46.7695L185.816 25.1836H195.59ZM217.879 22.0898H208.211V35.6953H216.859V41.8125H208.211V66H197.137V15.5859H217.879V22.0898ZM229.445 22.9336H219.426V15.5859H229.445V22.9336ZM229.445 66H219.426V25.1836H229.445V66ZM255.004 66H244.984V33.2344C244.984 31.9922 244.41 31.3711 243.262 31.3711C242.113 31.3711 241.539 31.9688 241.539 33.1641V66H231.52V25.1836H241.539V26.5547C242.875 25.4531 244.938 24.9023 247.727 24.9023C249.531 24.9023 251.195 25.3945 252.719 26.3789C254.242 27.3633 255.004 28.8047 255.004 30.7031V66ZM257.289 45.8203H267.379V57.3867C267.379 58.5352 268.07 59.1094 269.453 59.1094C270.789 59.1094 271.457 58.5352 271.457 57.3867V51.4102C271.457 49.582 270.238 47.4375 267.801 44.9766C263.09 40.4062 260.16 37.3359 259.012 35.7656C257.863 34.1953 257.289 32.4727 257.289 30.5977V24.9375C257.289 18.3984 261.555 15.1289 270.086 15.1289C277.727 15.1289 281.547 18.1055 281.547 24.0586V32.7773H271.457V23.4961C271.457 22.4883 270.906 21.9844 269.805 21.9844C268.516 21.9844 267.871 22.957 267.871 24.9023L268.082 28.1719C268.082 30.0469 269.324 32.2266 271.809 34.7109C276.426 39.1406 279.355 42.2344 280.598 43.9922C281.863 45.75 282.496 47.7422 282.496 49.9688V56.4023C282.496 63.1055 278.219 66.457 269.664 66.457C261.414 66.457 257.289 63.4102 257.289 57.3164V45.8203ZM294.73 65.0508V74.6484H284.746V25.1836H292.305L293.148 26.8359C294.789 25.5469 296.734 24.9023 298.984 24.9023C301.258 24.9023 303.355 25.4766 305.277 26.625C307.223 27.7734 308.195 29.4258 308.195 31.582V60.9023C308.195 62.6133 307.492 63.9844 306.086 65.0156C304.68 66.0469 302.969 66.5625 300.953 66.5625C298.164 66.5625 296.09 66.0586 294.73 65.0508ZM298.211 58.3711V33.0938C298.211 31.8516 297.637 31.2305 296.488 31.2305C295.316 31.2305 294.73 31.8516 294.73 33.0938V58.4414C294.73 59.6367 295.316 60.2344 296.488 60.2344C297.637 60.2344 298.211 59.6133 298.211 58.3711ZM334.07 66H325.211V64.418C324.461 65.8477 322.316 66.5625 318.777 66.5625C313.316 66.5625 310.586 64.4297 310.586 60.1641V51.9727C310.586 50.1445 311.242 48.5508 312.555 47.1914C313.891 45.832 316.562 44.1328 320.57 42.0938C322.891 40.9219 324.051 39.9844 324.051 39.2812V33.2344C324.051 31.8984 323.477 31.2305 322.328 31.2305C321.016 31.2305 320.359 32.8594 320.359 36.1172C320.359 36.7031 320.395 37.5703 320.465 38.7188C320.559 39.8672 320.605 40.7344 320.605 41.3203H310.938V33.1641C310.938 27.6562 314.922 24.9023 322.891 24.9023C330.344 24.9023 334.07 27.7734 334.07 33.5156V66ZM324.051 58.3711V47.8594C321.754 48.4219 320.605 49.4531 320.605 50.9531V58.3711C320.605 59.6133 321.203 60.2344 322.398 60.2344C323.5 60.2344 324.051 59.6133 324.051 58.3711ZM359.875 43.2539H349.891V33.2344C349.891 31.8984 349.316 31.2305 348.168 31.2305C346.996 31.2305 346.41 31.8984 346.41 33.2344V58.2305C346.41 59.6133 346.996 60.3047 348.168 60.3047C349.316 60.3047 349.891 59.6133 349.891 58.2305V48.3516H359.875V58.3008C359.875 63.8086 356.02 66.5625 348.309 66.5625C340.387 66.5625 336.426 63.6914 336.426 57.9492V33.5156C336.426 27.7734 340.387 24.9023 348.309 24.9023C356.02 24.9023 359.875 27.6562 359.875 33.1641V43.2539ZM385.574 48.7031H372.109V58.2305C372.109 59.6133 372.695 60.3047 373.867 60.3047C375.016 60.3047 375.59 59.6133 375.59 58.2305V50.0039H385.574V58.3008C385.574 63.8086 381.648 66.5625 373.797 66.5625C366.016 66.5625 362.125 63.6914 362.125 57.9492V33.5156C362.125 27.7734 366.016 24.9023 373.797 24.9023C381.648 24.9023 385.574 27.6562 385.574 33.1641V48.7031ZM375.59 42.5859V33.2344C375.59 31.8984 375.016 31.2305 373.867 31.2305C372.695 31.2305 372.109 31.8984 372.109 33.2344V42.5859H375.59Z" fill="url(#paint0_radial)"/>
<g filter="url(#filter0_d)">
<path d="M379.411 106.702L316.835 136.268C308.196 120.198 291.622 109.971 273.384 109.456L215.618 107.869C206.471 107.607 197.496 105.29 189.363 101.09L183.485 98.0433C153.389 82.3555 117.516 82.3945 87.4513 98.1447L87.8179 84.8284C87.9388 80.4169 84.4635 76.7427 80.0521 76.6218L16.7081 74.8782C12.2966 74.7573 8.62626 78.2327 8.50535 82.6441L4.67897 221.65C4.55805 226.061 8.03339 229.736 12.4448 229.856L75.7888 231.6H76.0072C80.3368 231.6 83.8784 228.156 83.9955 223.83L84.1788 217.18L100.635 208.369C107.094 204.893 114.646 204.066 121.701 206.063L219.97 233.644C220.142 233.695 220.314 233.734 220.489 233.773C227.592 235.259 234.831 236.004 242.086 236C257.454 236.008 272.643 232.696 286.61 226.284C286.954 226.128 287.285 225.944 287.601 225.738L430.082 133.577C433.632 131.279 434.778 126.618 432.699 122.936C422.121 104.167 398.66 97.0174 379.411 106.702ZM20.8699 214.106L24.2555 91.0692L71.627 92.372L68.2414 215.413L20.8699 214.106ZM279.414 212.016C262.061 219.848 242.679 222.009 224.027 218.198L126.023 190.688C114.993 187.571 103.186 188.862 93.0953 194.288L84.6858 198.793L86.9364 116.988C113.585 99.2641 147.761 97.4426 176.141 112.229L182.019 115.276C192.293 120.58 203.624 123.506 215.181 123.841L272.951 125.429C289.177 125.897 302.957 137.45 306.249 153.348L220.201 150.973C215.789 150.852 212.119 154.331 211.994 158.739C211.873 163.15 215.352 166.825 219.76 166.945L314.721 169.559H314.944C319.269 169.555 322.807 166.111 322.924 161.789C323.021 158.318 322.764 154.842 322.152 151.425L386.334 121.099C386.397 121.072 386.459 121.041 386.521 121.009C395.625 116.403 406.632 117.944 414.121 124.875L279.414 212.016Z" fill="#3FCDC7"/>
</g>
<defs>
<filter id="filter0_d" x="0.675903" y="74.8752" width="437.058" height="169.125" filterUnits="userSpaceOnUse" color-interpolation-filters="sRGB">
<feFlood flood-opacity="0" result="BackgroundImageFix"/>
<feColorMatrix in="SourceAlpha" type="matrix" values="0 0 0 0 0 0 0 0 0 0 0 0 0 0 0 0 0 0 127 0"/>
<feOffset dy="4"/>
<feGaussianBlur stdDeviation="2"/>
<feColorMatrix type="matrix" values="0 0 0 0 0 0 0 0 0 0 0 0 0 0 0 0 0 0 0.25 0"/>
<feBlend mode="normal" in2="BackgroundImageFix" result="effect1_dropShadow"/>
<feBlend mode="normal" in="SourceGraphic" in2="effect1_dropShadow" result="shape"/>
</filter>
<radialGradient id="paint0_radial" cx="0" cy="0" r="1" gradientUnits="userSpaceOnUse" gradientTransform="translate(259 38.5) rotate(90) scale(38.5 132)">
<stop stop-color="#45A4B1"/>
<stop offset="0.9999" stop-color="#027770"/>
<stop offset="1" stop-opacity="0.34"/>
</radialGradient>
</defs>
</svg>
