<svg width="1597" height="860" viewBox="0 0 1597 860" fill="none" xmlns="http://www.w3.org/2000/svg">
<g clip-path="url(#clip0)">
<path d="M1233.8 121.407H1094.4V124.014H1233.8V121.407Z" fill="#3F3D56"/>
<path d="M985.527 121.407H543.41V124.014H985.527V121.407Z" fill="#3F3D56"/>
<path d="M1033.54 452.241H-14V844.678H1033.54V452.241Z" fill="#5F485B" fill-opacity="0.46"/>
<path d="M822.829 305.241H313V828.055H822.829V305.241Z" fill="#0B0500" fill-opacity="0.58"/>
<path d="M739.517 423.969H362.456V476.12H739.517V423.969Z" fill="#36DBE2"/>
<path d="M740 557.241H362V583.241H740V557.241Z" fill="#36DBE2"/>
<path d="M744 600.241H366V626.241H744V600.241Z" fill="#C4C4C4"/>
<path d="M739.517 775.988H682.427V802.063H739.517V775.988Z" fill="#36DBE2"/>
<path d="M543.435 176.151C573.498 176.151 597.87 152.219 597.87 122.696C597.87 93.174 573.498 69.2414 543.435 69.2414C513.371 69.2414 489 93.174 489 122.696C489 152.219 513.371 176.151 543.435 176.151Z" fill="#36DBE2"/>
<path d="M791.297 176.251C821.36 176.251 845.731 152.319 845.731 122.796C845.731 93.2741 821.36 69.3415 791.297 69.3415C761.233 69.3415 736.862 93.2741 736.862 122.796C736.862 152.319 761.233 176.251 791.297 176.251Z" fill="#36DBE2"/>
<path d="M1039.96 177.469C1028.93 177.469 1018.15 174.258 1008.98 168.241C999.812 162.224 992.664 153.672 988.444 143.666C984.223 133.66 983.119 122.65 985.271 112.028C987.422 101.406 992.733 91.6486 1000.53 83.9905C1008.33 76.3324 1018.27 71.1171 1029.08 69.0043C1039.9 66.8914 1051.11 67.9758 1061.3 72.1203C1071.49 76.2649 1080.2 83.2834 1086.33 92.2884C1092.45 101.293 1095.72 111.88 1095.72 122.711C1095.71 137.229 1089.83 151.147 1079.37 161.413C1068.92 171.678 1054.75 177.453 1039.96 177.469ZM1039.96 70.5596C1029.46 70.5596 1019.19 73.6182 1010.46 79.3487C1001.72 85.0791 994.917 93.224 990.897 102.753C986.877 112.283 985.826 122.769 987.875 132.885C989.924 143.001 994.982 152.294 1002.41 159.587C1009.84 166.88 1019.3 171.847 1029.6 173.86C1039.9 175.872 1050.58 174.839 1060.28 170.892C1069.99 166.945 1078.28 160.26 1084.12 151.684C1089.95 143.108 1093.07 133.025 1093.07 122.711C1093.05 108.884 1087.45 95.6285 1077.5 85.8517C1067.54 76.0748 1054.04 70.5754 1039.96 70.5596Z" fill="#3F3D56"/>
<path d="M1288.24 177.469C1277.21 177.469 1266.43 174.258 1257.26 168.241C1248.09 162.224 1240.94 153.672 1236.72 143.666C1232.5 133.66 1231.39 122.65 1233.55 112.028C1235.7 101.406 1241.01 91.6486 1248.81 83.9905C1256.61 76.3324 1266.54 71.1171 1277.36 69.0043C1288.18 66.8914 1299.39 67.9758 1309.58 72.1203C1319.77 76.2649 1328.48 83.2834 1334.6 92.2884C1340.73 101.293 1344 111.88 1344 122.711C1343.98 137.229 1338.1 151.147 1327.65 161.413C1317.2 171.678 1303.02 177.453 1288.24 177.469ZM1288.24 70.5596C1277.73 70.5596 1267.47 73.6182 1258.73 79.3487C1250 85.0791 1243.19 93.224 1239.17 102.753C1235.15 112.283 1234.1 122.769 1236.15 132.885C1238.2 143.001 1243.26 152.294 1250.69 159.587C1258.11 166.88 1267.58 171.847 1277.88 173.86C1288.18 175.872 1298.86 174.839 1308.56 170.892C1318.26 166.945 1326.56 160.26 1332.39 151.684C1338.23 143.108 1341.34 133.025 1341.34 122.711C1341.33 108.884 1335.73 95.6285 1325.77 85.8517C1315.82 76.0748 1302.32 70.5754 1288.24 70.5596Z" fill="#3F3D56"/>
<path d="M539.317 155.391L516.467 120.632L524.697 113.587L540.429 137.519L612.752 55L620.026 63.2991L539.317 155.391Z" fill="#3F3D56"/>
<path d="M163.305 782.507L171.935 799.456L187.756 798.152L197.824 768.165L182.002 760.343L163.305 782.507Z" fill="#FFB8B8"/>
<path d="M109.203 821.654L108.87 834.54L132.768 835.962V820.316L109.203 821.654Z" fill="#FFB8B8"/>
<path d="M117.414 605.293L123.111 710.158L108.87 824.199L151.597 829.443L178.658 685.253L187.203 586.94L117.414 605.293Z" fill="#2F2E41"/>
<path d="M50.5661 566.57C50.5661 566.57 33.4866 670.514 69.069 704.723C104.651 738.932 153.044 799.456 153.044 799.456L187.203 759.984L100.382 674.461L117.461 616.568L187.203 586.307L175.816 513.941L73.3389 512.625L50.5661 566.57Z" fill="#2F2E41"/>
<path d="M134.759 326.185C151.991 326.185 165.96 313.343 165.96 297.502C165.96 281.661 151.991 268.819 134.759 268.819C117.528 268.819 103.559 281.661 103.559 297.502C103.559 313.343 117.528 326.185 134.759 326.185Z" fill="#FFB8B8"/>
<path d="M107.764 304.021C107.764 304.021 106.346 344.438 99.2567 349.653C92.1676 354.868 124.777 377.033 124.777 377.033L146.045 345.742V317.059L107.764 304.021Z" fill="#FFB8B8"/>
<path d="M122.016 359.322L104.84 335.312L95.1352 347.535L80.9884 384.206L92.3064 526.961L158.798 528.271L167.288 364.56L146.066 340.986L122.016 359.322Z" fill="#D0CDE1"/>
<path d="M194.622 367.923L205.868 366.602C205.868 366.602 208.68 367.923 210.086 377.169C211.491 386.415 228.361 468.305 228.361 468.305L205.868 568.688L180.564 536.988L196.028 481.514L180.564 426.039L194.622 367.923Z" fill="#2F2E41"/>
<path d="M49.4861 366.602H41.0364L19.9152 473.675L39.6286 556.954L59.3421 526.55L53.7095 493.503L56.5265 464.422L66.3839 447.237L49.4861 366.602Z" fill="#2F2E41"/>
<path d="M175.795 794.646C175.795 794.646 167.288 792.008 167.288 797.284C167.288 802.559 172.959 818.384 172.959 818.384C172.959 818.384 164.452 867.179 177.213 864.541C189.975 861.904 199.901 839.485 201.319 832.891C202.737 826.297 209.827 792.008 209.827 792.008C209.827 792.008 221.17 766.952 214.08 765.633C206.991 764.314 187.139 759.039 187.139 759.039C187.139 759.039 198.483 792.008 175.795 794.646Z" fill="#2F2E41"/>
<path d="M134.766 834.933C134.766 834.933 111.656 821.617 107.323 832.269C104.449 840.039 102.512 848.077 101.546 856.238C101.546 856.238 95.7681 873.548 118.878 870.885C141.987 868.222 139.099 868.222 140.543 860.232C141.987 852.243 134.766 834.933 134.766 834.933Z" fill="#2F2E41"/>
<path d="M116.604 296.609L122.211 295.296C122.211 295.296 126.416 272.99 136.228 275.614C146.04 278.238 171.271 280.863 171.271 270.366C171.271 259.868 147.441 250.683 133.424 251.995C119.407 253.308 95.578 257.244 96.9797 276.926C98.3814 296.608 107.426 315.755 107.426 315.755L108.157 304.086L116.604 296.609Z" fill="#2F2E41"/>
<path d="M145.799 374.425L122.146 358.779L145.799 340.527L154.011 349.76L145.799 374.425Z" fill="#D0CDE1"/>
<path d="M101.183 373.121L122.146 358.779L105.376 335.312L95.5929 347.045L101.183 373.121Z" fill="#D0CDE1"/>
<path d="M204.463 367.479L158.928 350.394L148.255 343.166L116.239 473.932L94.8941 414.792L101.297 339.223L42.2443 367.479L62.1659 456.847L65.0118 491.017L56.474 518.616C56.474 518.616 26.5917 538.33 36.5525 559.358C46.5132 580.385 57.897 581.7 57.897 581.7C57.897 581.7 106.278 539.644 109.124 529.13C111.97 518.616 116.239 500.217 116.239 500.217C116.239 500.217 140.429 584.328 168.888 583.014C197.348 581.7 197.348 554.101 197.348 554.101L190.233 525.187L178.849 494.96L184.541 445.019L204.463 367.479Z" fill="#2F2E41"/>
<line x1="520.688" y1="516.632" x2="515.688" y2="512.632" stroke="black"/>
<path d="M737 503.241H359V529.241H737V503.241Z" fill="#C4C4C4"/>
<rect x="376" y="659.241" width="361" height="28" fill="#C4C4C4"/>
<rect x="376" y="751.241" width="134" height="25" fill="#C4C4C4"/>
</g>
<g clip-path="url(#clip1)">
<path d="M1139.5 878.241C1262.93 878.241 1361 822.533 1361 768.685C1361 714.837 1262.93 683.241 1139.5 683.241C1016.06 683.241 916 726.894 916 780.741C916 834.589 1016.06 878.241 1139.5 878.241Z" fill="#F2F2F2"/>
<path d="M1286.7 460.712C1320.49 460.712 1347.89 433.319 1347.89 399.527C1347.89 365.735 1320.49 338.341 1286.7 338.341C1252.91 338.341 1225.52 365.735 1225.52 399.527C1225.52 433.319 1252.91 460.712 1286.7 460.712Z" fill="#36DBE2"/>
<path d="M1182.7 604.712C1216.49 604.712 1243.89 577.319 1243.89 543.527C1243.89 509.735 1216.49 482.341 1182.7 482.341C1148.91 482.341 1121.52 509.735 1121.52 543.527C1121.52 577.319 1148.91 604.712 1182.7 604.712Z" fill="#36DBE2"/>
<path d="M1065.7 719.712C1099.49 719.712 1126.89 692.319 1126.89 658.527C1126.89 624.735 1099.49 597.341 1065.7 597.341C1031.91 597.341 1004.52 624.735 1004.52 658.527C1004.52 692.319 1031.91 719.712 1065.7 719.712Z" fill="#36DBE2"/>
<path d="M1065.65 769.179V658.19" stroke="#3F3D56" stroke-width="2" stroke-miterlimit="10"/>
<path d="M1065.65 673.885C1074.32 673.885 1081.34 666.858 1081.34 658.19C1081.34 649.522 1074.32 642.495 1065.65 642.495C1056.98 642.495 1049.95 649.522 1049.95 658.19C1049.95 666.858 1056.98 673.885 1065.65 673.885Z" fill="#3F3D56"/>
<path d="M1065.65 726.595C1065.65 726.595 1063.41 678.37 1017.44 683.975L1065.65 726.595Z" fill="#3F3D56"/>
<path d="M1286.74 769.957V399.751" stroke="#3F3D56" stroke-width="2" stroke-miterlimit="10"/>
<path d="M1286.74 415.271C1295.41 415.271 1302.44 408.244 1302.44 399.576C1302.44 390.908 1295.41 383.881 1286.74 383.881C1278.07 383.881 1271.04 390.908 1271.04 399.576C1271.04 408.244 1278.07 415.271 1286.74 415.271Z" fill="#3F3D56"/>
<path d="M1238.53 683.117C1247.2 683.117 1254.23 676.09 1254.23 667.422C1254.23 658.754 1247.2 651.727 1238.53 651.727C1229.86 651.727 1222.84 658.754 1222.84 667.422C1222.84 676.09 1229.86 683.117 1238.53 683.117Z" fill="#3F3D56"/>
<path d="M1286.74 479.749C1286.74 479.749 1284.5 431.524 1238.53 437.129L1286.74 479.749Z" fill="#3F3D56"/>
<path d="M1286.74 616.461C1286.74 616.461 1284.5 568.236 1238.53 573.841L1286.74 616.461Z" fill="#3F3D56"/>
<path d="M1286.74 765.643C1286.74 765.643 1296.83 671.906 1238.53 667.422" stroke="#3F3D56" stroke-width="2" stroke-miterlimit="10"/>
<path d="M1334.95 683.117C1343.62 683.117 1350.65 676.09 1350.65 667.422C1350.65 658.754 1343.62 651.727 1334.95 651.727C1326.29 651.727 1319.26 658.754 1319.26 667.422C1319.26 676.09 1326.29 683.117 1334.95 683.117Z" fill="#3F3D56"/>
<path d="M1286.75 765.643C1286.75 765.643 1276.66 671.906 1334.95 667.422" stroke="#3F3D56" stroke-width="2" stroke-miterlimit="10"/>
<path d="M1335.91 535.889C1344.58 535.889 1351.61 528.862 1351.61 520.194C1351.61 511.525 1344.58 504.498 1335.91 504.498C1327.24 504.498 1320.22 511.525 1320.22 520.194C1320.22 528.862 1327.24 535.889 1335.91 535.889Z" fill="#3F3D56"/>
<path d="M1287.7 613.415C1287.7 613.415 1277.61 524.678 1335.91 520.194" stroke="#3F3D56" stroke-width="2" stroke-miterlimit="10"/>
<path d="M1182.76 769.435V543.458" stroke="#3F3D56" stroke-width="2" stroke-miterlimit="10"/>
<path d="M1182.76 559.154C1191.43 559.154 1198.45 552.126 1198.45 543.458C1198.45 534.79 1191.43 527.763 1182.76 527.763C1174.09 527.763 1167.06 534.79 1167.06 543.458C1167.06 552.126 1174.09 559.154 1182.76 559.154Z" fill="#3F3D56"/>
<path d="M1182.76 607.378C1182.76 607.378 1180.52 559.153 1134.55 564.759L1182.76 607.378Z" fill="#3F3D56"/>
<path d="M1182.76 765.121C1182.76 765.121 1192.85 672.384 1134.55 667.9" stroke="#3F3D56" stroke-width="2" stroke-miterlimit="10"/>
<path d="M1134.55 683.595C1143.22 683.595 1150.25 676.568 1150.25 667.9C1150.25 659.232 1143.22 652.205 1134.55 652.205C1125.88 652.205 1118.86 659.232 1118.86 667.9C1118.86 676.568 1125.88 683.595 1134.55 683.595Z" fill="#3F3D56"/>
<path d="M1009.61 769.218H1333.61" stroke="#3F3D56" stroke-width="2" stroke-miterlimit="10"/>
<path d="M1505 592C1522.67 592 1537 577.673 1537 560C1537 542.327 1522.67 528 1505 528C1487.33 528 1473 542.327 1473 560C1473 577.673 1487.33 592 1505 592Z" fill="#F2F2F2"/>
<path d="M948.099 409.241C965.772 409.241 980.099 394.915 980.099 377.241C980.099 359.568 965.772 345.241 948.099 345.241C930.426 345.241 916.099 359.568 916.099 377.241C916.099 394.915 930.426 409.241 948.099 409.241Z" fill="#F2F2F2"/>
<path d="M1271.1 290.241C1288.77 290.241 1303.1 275.915 1303.1 258.241C1303.1 240.568 1288.77 226.241 1271.1 226.241C1253.43 226.241 1239.1 240.568 1239.1 258.241C1239.1 275.915 1253.43 290.241 1271.1 290.241Z" fill="#F2F2F2"/>
</g>
<defs>
<clipPath id="clip0">
<rect width="1344" height="830" fill="white"/>
</clipPath>
<clipPath id="clip1">
<rect width="752" height="651" fill="white" transform="translate(845 209)"/>
</clipPath>
</defs>
</svg>
